/* XPM */
static char *result[] = {
/* columns rows colors chars-per-pixel */
"100 100 4 1 ",
"  c gray8",
". c #EE583B",
"X c #F4A15E",
"o c None",
/* pixels */
"oooooooooooooooooooooooooooooooooooooooooooooooooooooooooooooooooooooooooooooooooooooooooooooooooooo",
"oooooooooooooooooooooooooooooooooooooooooooooooooooooooooooooooooooooooooooooooooooooooooooooooooooo",
"oooooooooooooooooooooooooooooooooooooooooooooooooooooooooooooooooooooooooooooooooooooooooooooooooooo",
"oooooooooooooooooooooooooooooooooooooooooooooooooooooooooooooooooooooooooooooooooooooooooooooooooooo",
"oooooooooooooooooooooooooooooooooooooooooooo            oooooooooooooooooooooooooooooooooooooooooooo",
"oooooooooooooooooooooooooooooooooooooooooooo            oooooooooooooooooooooooooooooooooooooooooooo",
"oooooooooooooooooooooooooooooooooooooooooooo            oooooooooooooooooooooooooooooooooooooooooooo",
"oooooooooooooooooooooooooooooooooooooooooooo            oooooooooooooooooooooooooooooooooooooooooooo",
"oooooooooooooooooooooooooooooooooooooooooooo            oooooooooooooooooooooooooooooooooooooooooooo",
"oooooooooooooooooooooooooooooooooooooooooooo            oooooooooooooooooooooooooooooooooooooooooooo",
"oooooooooooooooooooooooooooooooo                                    oooooooooooooooooooooooooooooooo",
"oooooooooooooooooooooooooooooooo                                    oooooooooooooooooooooooooooooooo",
"oooooooooooooooooooooooooooooooo                                    oooooooooooooooooooooooooooooooo",
"oooooooooooooooooooooooooooooooo                                    oooooooooooooooooooooooooooooooo",
"oooooooooooooooooooooooooooooooo                                    oooooooooooooooooooooooooooooooo",
"oooooooooooooooooooooooooooooooo                                    oooooooooooooooooooooooooooooooo",
"oooooooooooooooooooo            XXXXXX......XXXXXXXXXXXX......XXXXXX            oooooooooooooooooooo",
"oooooooooooooooooooo            XXXXXX......XXXXXXXXXXXX......XXXXXX            oooooooooooooooooooo",
"oooooooooooooooooooo            XXXXXX......XXXXXXXXXXXX......XXXXXX            oooooooooooooooooooo",
"oooooooooooooooooooo            XXXXXX......XXXXXXXXXXXX......XXXXXX            oooooooooooooooooooo",
"oooooooooooooooooooo            XXXXXX......XXXXXXXXXXXX......XXXXXX            oooooooooooooooooooo",
"oooooooooooooooooooo            XXXXXX......XXXXXXXXXXXX......XXXXXX            oooooooooooooooooooo",
"oooooooooooooo      XXXXXXXXXXXX......XXXXXXXXXXXXXXXXXXXXXXXX......XXXXXXXXXXXX      oooooooooooooo",
"oooooooooooooo      XXXXXXXXXXXX......XXXXXXXXXXXXXXXXXXXXXXXX......XXXXXXXXXXXX      oooooooooooooo",
"oooooooooooooo      XXXXXXXXXXXX......XXXXXXXXXXXXXXXXXXXXXXXX......XXXXXXXXXXXX      oooooooooooooo",
"oooooooooooooo      XXXXXXXXXXXX......XXXXXXXXXXXXXXXXXXXXXXXX......XXXXXXXXXXXX      oooooooooooooo",
"oooooooooooooo      XXXXXXXXXXXX......XXXXXXXXXXXXXXXXXXXXXXXX......XXXXXXXXXXXX      oooooooooooooo",
"oooooooooooooo      XXXXXXXXXXXX......XXXXXXXXXXXXXXXXXXXXXXXX......XXXXXXXXXXXX      oooooooooooooo",
"oooooooo                  XXXXXX                                    XXXXXX                  oooooooo",
"oooooooo                  XXXXXX                                    XXXXXX                  oooooooo",
"oooooooo                  XXXXXX                                    XXXXXX                  oooooooo",
"oooooooo                  XXXXXX                                    XXXXXX                  oooooooo",
"oooooooo                  XXXXXX                                    XXXXXX                  oooooooo",
"oooooooo                  XXXXXX                                    XXXXXX                  oooooooo",
"oooooooo      ............      ..................            ......      ............      oooooooo",
"oooooooo      ............      ..................            ......      ............      oooooooo",
"oooooooo      ............      ..................            ......      ............      oooooooo",
"oooooooo      ............      ..................            ......      ............      oooooooo",
"oooooooo      ............      ..................            ......      ............      oooooooo",
"oooooooo      ............      ..................            ......      ............      oooooooo",
"oooooooooooooo      ..............................            ..................      oooooooooooooo",
"oooooooooooooo      ..............................            ..................      oooooooooooooo",
"oooooooooooooo      ..............................            ..................      oooooooooooooo",
"oooooooooooooo      ..............................            ..................      oooooooooooooo",
"oooooooooooooo      ..............................            ..................      oooooooooooooo",
"oooooooooooooo      ..............................            ..................      oooooooooooooo",
"oooooooo      ......            ..........................................      ......      oooooooo",
"oooooooo      ......            ..........................................      ......      oooooooo",
"oooooooo      ......            ..........................................      ......      oooooooo",
"oooooooo      ......            ..........................................      ......      oooooooo",
"oooooooo      ......            ..........................................      ......      oooooooo",
"oooooooo      ......            ..........................................      ......      oooooooo",
"oooooooo      ......XXXXXX            ........................            XXXXXX......      oooooooo",
"oooooooo      ......XXXXXX            ........................            XXXXXX......      oooooooo",
"oooooooo      ......XXXXXX            ........................            XXXXXX......      oooooooo",
"oooooooo      ......XXXXXX            ........................            XXXXXX......      oooooooo",
"oooooooo      ......XXXXXX            ........................            XXXXXX......      oooooooo",
"oooooooo      ......XXXXXX            ........................            XXXXXX......      oooooooo",
"oooooooo      ......XXXXXX      XXXXXX      ............      XXXXXX      XXXXXX......      oooooooo",
"oooooooo      ......XXXXXX      XXXXXX      ............      XXXXXX      XXXXXX......      oooooooo",
"oooooooo      ......XXXXXX      XXXXXX      ............      XXXXXX      XXXXXX......      oooooooo",
"oooooooo      ......XXXXXX      XXXXXX      ............      XXXXXX      XXXXXX......      oooooooo",
"oooooooo      ......XXXXXX      XXXXXX      ............      XXXXXX      XXXXXX......      oooooooo",
"oooooooo      ......XXXXXX      XXXXXX      ............      XXXXXX      XXXXXX......      oooooooo",
"oooooooo            ......                  ............                  ......            oooooooo",
"oooooooo            ......                  ............                  ......            oooooooo",
"oooooooo            ......                  ............                  ......            oooooooo",
"oooooooo            ......                  ............                  ......            oooooooo",
"oooooooo            ......                  ............                  ......            oooooooo",
"oooooooo            ......                  ............                  ......            oooooooo",
"oo      ............            ....................................            ............      oo",
"oo      ............            ....................................            ............      oo",
"oo      ............            ....................................            ............      oo",
"oo      ............            ....................................            ............      oo",
"oo      ............            ....................................            ............      oo",
"oo      ............            ....................................            ............      oo",
"oo      ......      ............                                    ............      ......      oo",
"oo      ......      ............                                    ............      ......      oo",
"oo      ......      ............                                    ............      ......      oo",
"oo      ......      ............                                    ............      ......      oo",
"oo      ......      ............                                    ............      ......      oo",
"oo      ......      ............                                    ............      ......      oo",
"oo      ......            ......      ........................      ......            ......      oo",
"oo      ......            ......      ........................      ......            ......      oo",
"oo      ......            ......      ........................      ......            ......      oo",
"oo      ......            ......      ........................      ......            ......      oo",
"oo      ......            ......      ........................      ......            ......      oo",
"oo      ......            ......      ........................      ......            ......      oo",
"oooooooo                                                                                    oooooooo",
"oooooooo                                                                                    oooooooo",
"oooooooo                                                                                    oooooooo",
"oooooooo                                                                                    oooooooo",
"oooooooo                                                                                    oooooooo",
"oooooooo                                                                                    oooooooo",
"oooooooooooooooooooooooooooooooooooooooooooooooooooooooooooooooooooooooooooooooooooooooooooooooooooo",
"oooooooooooooooooooooooooooooooooooooooooooooooooooooooooooooooooooooooooooooooooooooooooooooooooooo",
"oooooooooooooooooooooooooooooooooooooooooooooooooooooooooooooooooooooooooooooooooooooooooooooooooooo",
"oooooooooooooooooooooooooooooooooooooooooooooooooooooooooooooooooooooooooooooooooooooooooooooooooooo",
"oooooooooooooooooooooooooooooooooooooooooooooooooooooooooooooooooooooooooooooooooooooooooooooooooooo",
"oooooooooooooooooooooooooooooooooooooooooooooooooooooooooooooooooooooooooooooooooooooooooooooooooooo"
};
