/* XPM */
static char *result[] = {
/* columns rows colors chars-per-pixel */
"100 100 6 1 ",
"  c #206500",
". c #EE4527",
"X c #55C205",
"o c #A8F745",
"O c #F78EB9",
"+ c #D4F7D4",
/* pixels */
"XXXoooXXXoooXXXXoooooooooOOO+++OOO.......+++OOO+++XXXoooXXXoooXXXXoooooooooXXXoooXXXoooXXXXooooooooo",
"XXXoooXXXoooXXXXoooooooooOOO+++OOO.......+++OOO+++XXXoooXXXoooXXXXoooooooooXXXoooXXXoooXXXXooooooooo",
"XXXoooXXXoooXXXXoooooooooOOO+++OOO.......+++OOO+++XXXoooXXXoooXXXXoooooooooXXXoooXXXoooXXXXooooooooo",
"oooXXX   XXXooooXXXoooXXX+++OOO...OOOOOOO...+++OOOoooXXX   XXXooooXXXoooXXXoooXXX   XXXooooXXXoooXXX",
"oooXXX   XXXooooXXXoooXXX+++OOO...OOOOOOO...+++OOOoooXXX   XXXooooXXXoooXXXoooXXX   XXXooooXXXoooXXX",
"oooXXX   XXXooooXXXoooXXX+++OOO...OOOOOOO...+++OOOoooXXX   XXXooooXXXoooXXXoooXXX   XXXooooXXXoooXXX",
"XXXoooXXXooo    oooXXXoooOOO...OOO.......OOO...+++XXXoooXXXooo    oooXXXoooXXXoooXXXooo    oooXXXooo",
"XXXoooXXXooo    oooXXXoooOOO...OOO.......OOO...+++XXXoooXXXooo    oooXXXoooXXXoooXXXooo    oooXXXooo",
"XXXoooXXXooo    oooXXXoooOOO...OOO.......OOO...+++XXXoooXXXooo    oooXXXoooXXXoooXXXooo    oooXXXooo",
"oooooooooXXXooooXXXoooooo+++...OOO.......OOO...+++oooooooooXXXooooXXXoooooooooooooooXXXooooXXXoooooo",
"oooooooooXXXooooXXXoooooo+++...OOO.......OOO...OOOoooooooooXXXooooXXXoooooooooooooooXXXooooXXXoooooo",
"oooooooooXXXooooXXXoooooo+++...OOO.......OOO...OOOoooooooooXXXooooXXXoooooooooooooooXXXooooXXXoooooo",
"oooooooooXXXooooXXXoooooo+++...OOO.......OOO...OOOoooooooooXXXooooXXXoooooooooooooooXXXooooXXXoooooo",
"XXXoooXXXoooXXXXoooXXXoooOOO......OOOOOOO......+++XXXoooXXXoooXXXXoooXXXoooXXXoooXXXoooXXXXoooXXXooo",
"XXXoooXXXoooXXXXoooXXXoooOOO......OOOOOOO......+++XXXoooXXXoooXXXXoooXXXoooXXXoooXXXoooXXXXoooXXXooo",
"XXXoooXXXoooXXXXoooXXXoooOOO......OOOOOOO......+++XXXoooXXXoooXXXXoooXXXoooXXXoooXXXoooXXXXoooXXXooo",
"oooXXXoooXXXooooXXX   XXX+++...OOO.......OOO...OOOoooXXXoooXXXooooXXX   XXXoooXXXoooXXXooooXXX   XXX",
"oooXXXoooXXXooooXXX   XXX+++...OOO.......OOO...OOOoooXXXoooXXXooooXXX   XXXoooXXXoooXXXooooXXX   XXX",
"oooXXXoooXXXooooXXX   XXX+++...OOO.......OOO...OOOoooXXXoooXXXooooXXX   XXXoooXXXoooXXXooooXXX   XXX",
"ooooooooooooXXXXoooXXXoooOOO+++...OOOOOOO...OOO+++ooooooooooooXXXXoooXXXoooooooooooooooXXXXoooXXXooo",
"ooooooooooooXXXXoooXXXoooOOO+++...OOOOOOO...OOO+++ooooooooooooXXXXoooXXXoooooooooooooooXXXXoooXXXooo",
"ooooooooooooXXXXoooXXXoooOOO+++...OOOOOOO...OOO+++ooooooooooooXXXXoooXXXoooooooooooooooXXXXoooXXXooo",
"oooooooooXXXooooXXXoooooo+++OOO+++.......OOO+++OOOoooooooooXXXooooXXXoooooooooooooooXXXooooXXXoooooo",
"oooooooooXXXooooXXXoooooo+++OOO+++.......OOO+++OOOoooooooooXXXooooXXXoooooooooooooooXXXooooXXXoooooo",
"oooooooooXXXooooXXXoooooo+++OOO+++.......OOO+++OOOoooooooooXXXooooXXXoooooooooooooooXXXooooXXXoooooo",
"OOO+++OOO.......+++OOO+++XXXoooXXXoooXXXXoooooooooXXXoooXXXoooXXXXoooooooooXXXoooXXXoooXXXXooooooooo",
"OOO+++OOO.......+++OOO+++XXXoooXXXoooXXXXoooooooooXXXoooXXXoooXXXXoooooooooXXXoooXXXoooXXXXooooooooo",
"OOO+++OOO.......+++OOO+++XXXoooXXXoooXXXXoooooooooXXXoooXXXoooXXXXoooooooooXXXoooXXXoooXXXXooooooooo",
"+++OOO...OOOOOOO...+++OOOoooXXX   XXXooooXXXoooXXXoooXXX   XXXooooXXXoooXXXoooXXX   XXXooooXXXoooXXX",
"+++OOO...OOOOOOO...+++OOOoooXXX   XXXooooXXXoooXXXoooXXX   XXXooooXXXoooXXXoooXXX   XXXooooXXXoooXXX",
"+++OOO...OOOOOOO...+++OOOoooXXX   XXXooooXXXoooXXXoooXXX   XXXooooXXXoooXXXoooXXX   XXXooooXXXoooXXX",
"OOO...OOO.......OOO...+++XXXoooXXXooo    oooXXXoooXXXoooXXXooo    oooXXXoooXXXoooXXXooo    oooXXXooo",
"OOO...OOO.......OOO...+++XXXoooXXXooo    oooXXXoooXXXoooXXXooo    oooXXXoooXXXoooXXXooo    oooXXXooo",
"OOO...OOO.......OOO...+++XXXoooXXXooo    oooXXXoooXXXoooXXXooo    oooXXXoooXXXoooXXXooo    oooXXXooo",
"+++...OOO.......OOO...+++oooooooooXXXooooXXXoooooooooooooooXXXooooXXXoooooooooooooooXXXooooXXXoooooo",
"+++...OOO.......OOO...OOOoooooooooXXXooooXXXoooooooooooooooXXXooooXXXoooooooooooooooXXXooooXXXoooooo",
"+++...OOO.......OOO...OOOoooooooooXXXooooXXXoooooooooooooooXXXooooXXXoooooooooooooooXXXooooXXXoooooo",
"+++...OOO.......OOO...OOOoooooooooXXXooooXXXoooooooooooooooXXXooooXXXoooooooooooooooXXXooooXXXoooooo",
"OOO......OOOOOOO......+++XXXoooXXXoooXXXXoooXXXoooXXXoooXXXoooXXXXoooXXXoooXXXoooXXXoooXXXXoooXXXooo",
"OOO......OOOOOOO......+++XXXoooXXXoooXXXXoooXXXoooXXXoooXXXoooXXXXoooXXXoooXXXoooXXXoooXXXXoooXXXooo",
"OOO......OOOOOOO......+++XXXoooXXXoooXXXXoooXXXoooXXXoooXXXoooXXXXoooXXXoooXXXoooXXXoooXXXXoooXXXooo",
"+++...OOO.......OOO...OOOoooXXXoooXXXooooXXX   XXXoooXXXoooXXXooooXXX   XXXoooXXXoooXXXooooXXX   XXX",
"+++...OOO.......OOO...OOOoooXXXoooXXXooooXXX   XXXoooXXXoooXXXooooXXX   XXXoooXXXoooXXXooooXXX   XXX",
"+++...OOO.......OOO...OOOoooXXXoooXXXooooXXX   XXXoooXXXoooXXXooooXXX   XXXoooXXXoooXXXooooXXX   XXX",
"OOO+++...OOOOOOO...OOO+++ooooooooooooXXXXoooXXXoooooooooooooooXXXXoooXXXoooooooooooooooXXXXoooXXXooo",
"OOO+++...OOOOOOO...OOO+++ooooooooooooXXXXoooXXXoooooooooooooooXXXXoooXXXoooooooooooooooXXXXoooXXXooo",
"OOO+++...OOOOOOO...OOO+++ooooooooooooXXXXoooXXXoooooooooooooooXXXXoooXXXoooooooooooooooXXXXoooXXXooo",
"+++OOO+++.......OOO+++OOOoooooooooXXXooooXXXoooooooooooooooXXXooooXXXoooooooooooooooXXXooooXXXoooooo",
"+++OOO+++.......OOO+++OOOoooooooooXXXooooXXXoooooooooooooooXXXooooXXXoooooooooooooooXXXooooXXXoooooo",
"+++OOO+++.......OOO+++OOOoooooooooXXXooooXXXoooooooooooooooXXXooooXXXoooooooooooooooXXXooooXXXoooooo",
"XXXoooXXXoooXXXXoooooooooXXXoooXXXoooXXXXoooooooooXXXoooXXXoooXXXXoooooooooOOO+++OOO.......+++OOO+++",
"XXXoooXXXoooXXXXoooooooooXXXoooXXXoooXXXXoooooooooXXXoooXXXoooXXXXoooooooooOOO+++OOO.......+++OOO+++",
"XXXoooXXXoooXXXXoooooooooXXXoooXXXoooXXXXoooooooooXXXoooXXXoooXXXXoooooooooOOO+++OOO.......+++OOO+++",
"oooXXX   XXXooooXXXoooXXXoooXXX   XXXooooXXXoooXXXoooXXX   XXXooooXXXoooXXX+++OOO...OOOOOOO...+++OOO",
"oooXXX   XXXooooXXXoooXXXoooXXX   XXXooooXXXoooXXXoooXXX   XXXooooXXXoooXXX+++OOO...OOOOOOO...+++OOO",
"oooXXX   XXXooooXXXoooXXXoooXXX   XXXooooXXXoooXXXoooXXX   XXXooooXXXoooXXX+++OOO...OOOOOOO...+++OOO",
"XXXoooXXXooo    oooXXXoooXXXoooXXXooo    oooXXXoooXXXoooXXXooo    oooXXXoooOOO...OOO.......OOO...+++",
"XXXoooXXXooo    oooXXXoooXXXoooXXXooo    oooXXXoooXXXoooXXXooo    oooXXXoooOOO...OOO.......OOO...+++",
"XXXoooXXXooo    oooXXXoooXXXoooXXXooo    oooXXXoooXXXoooXXXooo    oooXXXoooOOO...OOO.......OOO...+++",
"oooooooooXXXooooXXXoooooooooooooooXXXooooXXXoooooooooooooooXXXooooXXXoooooo+++...OOO.......OOO...+++",
"oooooooooXXXooooXXXoooooooooooooooXXXooooXXXoooooooooooooooXXXooooXXXoooooo+++...OOO.......OOO...OOO",
"oooooooooXXXooooXXXoooooooooooooooXXXooooXXXoooooooooooooooXXXooooXXXoooooo+++...OOO.......OOO...OOO",
"oooooooooXXXooooXXXoooooooooooooooXXXooooXXXoooooooooooooooXXXooooXXXoooooo+++...OOO.......OOO...OOO",
"XXXoooXXXoooXXXXoooXXXoooXXXoooXXXoooXXXXoooXXXoooXXXoooXXXoooXXXXoooXXXoooOOO......OOOOOOO......+++",
"XXXoooXXXoooXXXXoooXXXoooXXXoooXXXoooXXXXoooXXXoooXXXoooXXXoooXXXXoooXXXoooOOO......OOOOOOO......+++",
"XXXoooXXXoooXXXXoooXXXoooXXXoooXXXoooXXXXoooXXXoooXXXoooXXXoooXXXXoooXXXoooOOO......OOOOOOO......+++",
"oooXXXoooXXXooooXXX   XXXoooXXXoooXXXooooXXX   XXXoooXXXoooXXXooooXXX   XXX+++...OOO.......OOO...OOO",
"oooXXXoooXXXooooXXX   XXXoooXXXoooXXXooooXXX   XXXoooXXXoooXXXooooXXX   XXX+++...OOO.......OOO...OOO",
"oooXXXoooXXXooooXXX   XXXoooXXXoooXXXooooXXX   XXXoooXXXoooXXXooooXXX   XXX+++...OOO.......OOO...OOO",
"ooooooooooooXXXXoooXXXoooooooooooooooXXXXoooXXXoooooooooooooooXXXXoooXXXoooOOO+++...OOOOOOO...OOO+++",
"ooooooooooooXXXXoooXXXoooooooooooooooXXXXoooXXXoooooooooooooooXXXXoooXXXoooOOO+++...OOOOOOO...OOO+++",
"ooooooooooooXXXXoooXXXoooooooooooooooXXXXoooXXXoooooooooooooooXXXXoooXXXoooOOO+++...OOOOOOO...OOO+++",
"oooooooooXXXooooXXXoooooooooooooooXXXooooXXXoooooooooooooooXXXooooXXXoooooo+++OOO+++.......OOO+++OOO",
"oooooooooXXXooooXXXoooooooooooooooXXXooooXXXoooooooooooooooXXXooooXXXoooooo+++OOO+++.......OOO+++OOO",
"oooooooooXXXooooXXXoooooooooooooooXXXooooXXXoooooooooooooooXXXooooXXXoooooo+++OOO+++.......OOO+++OOO",
"XXXoooXXXoooXXXXoooooooooXXXoooXXXoooXXXXoooooooooOOO+++OOO.......+++OOO+++XXXoooXXXoooXXXXooooooooo",
"XXXoooXXXoooXXXXoooooooooXXXoooXXXoooXXXXoooooooooOOO+++OOO.......+++OOO+++XXXoooXXXoooXXXXooooooooo",
"XXXoooXXXoooXXXXoooooooooXXXoooXXXoooXXXXoooooooooOOO+++OOO.......+++OOO+++XXXoooXXXoooXXXXooooooooo",
"oooXXX   XXXooooXXXoooXXXoooXXX   XXXooooXXXoooXXX+++OOO...OOOOOOO...+++OOOoooXXX   XXXooooXXXoooXXX",
"oooXXX   XXXooooXXXoooXXXoooXXX   XXXooooXXXoooXXX+++OOO...OOOOOOO...+++OOOoooXXX   XXXooooXXXoooXXX",
"oooXXX   XXXooooXXXoooXXXoooXXX   XXXooooXXXoooXXX+++OOO...OOOOOOO...+++OOOoooXXX   XXXooooXXXoooXXX",
"XXXoooXXXooo    oooXXXoooXXXoooXXXooo    oooXXXoooOOO...OOO.......OOO...+++XXXoooXXXooo    oooXXXooo",
"XXXoooXXXooo    oooXXXoooXXXoooXXXooo    oooXXXoooOOO...OOO.......OOO...+++XXXoooXXXooo    oooXXXooo",
"XXXoooXXXooo    oooXXXoooXXXoooXXXooo    oooXXXoooOOO...OOO.......OOO...+++XXXoooXXXooo    oooXXXooo",
"oooooooooXXXooooXXXoooooooooooooooXXXooooXXXoooooo+++...OOO.......OOO...+++oooooooooXXXooooXXXoooooo",
"oooooooooXXXooooXXXoooooooooooooooXXXooooXXXoooooo+++...OOO.......OOO...OOOoooooooooXXXooooXXXoooooo",
"oooooooooXXXooooXXXoooooooooooooooXXXooooXXXoooooo+++...OOO.......OOO...OOOoooooooooXXXooooXXXoooooo",
"oooooooooXXXooooXXXoooooooooooooooXXXooooXXXoooooo+++...OOO.......OOO...OOOoooooooooXXXooooXXXoooooo",
"XXXoooXXXoooXXXXoooXXXoooXXXoooXXXoooXXXXoooXXXoooOOO......OOOOOOO......+++XXXoooXXXoooXXXXoooXXXooo",
"XXXoooXXXoooXXXXoooXXXoooXXXoooXXXoooXXXXoooXXXoooOOO......OOOOOOO......+++XXXoooXXXoooXXXXoooXXXooo",
"XXXoooXXXoooXXXXoooXXXoooXXXoooXXXoooXXXXoooXXXoooOOO......OOOOOOO......+++XXXoooXXXoooXXXXoooXXXooo",
"oooXXXoooXXXooooXXX   XXXoooXXXoooXXXooooXXX   XXX+++...OOO.......OOO...OOOoooXXXoooXXXooooXXX   XXX",
"oooXXXoooXXXooooXXX   XXXoooXXXoooXXXooooXXX   XXX+++...OOO.......OOO...OOOoooXXXoooXXXooooXXX   XXX",
"oooXXXoooXXXooooXXX   XXXoooXXXoooXXXooooXXX   XXX+++...OOO.......OOO...OOOoooXXXoooXXXooooXXX   XXX",
"ooooooooooooXXXXoooXXXoooooooooooooooXXXXoooXXXoooOOO+++...OOOOOOO...OOO+++ooooooooooooXXXXoooXXXooo",
"ooooooooooooXXXXoooXXXoooooooooooooooXXXXoooXXXoooOOO+++...OOOOOOO...OOO+++ooooooooooooXXXXoooXXXooo",
"ooooooooooooXXXXoooXXXoooooooooooooooXXXXoooXXXoooOOO+++...OOOOOOO...OOO+++ooooooooooooXXXXoooXXXooo",
"oooooooooXXXooooXXXoooooooooooooooXXXooooXXXoooooo+++OOO+++.......OOO+++OOOoooooooooXXXooooXXXoooooo",
"oooooooooXXXooooXXXoooooooooooooooXXXooooXXXoooooo+++OOO+++.......OOO+++OOOoooooooooXXXooooXXXoooooo",
"oooooooooXXXooooXXXoooooooooooooooXXXooooXXXoooooo+++OOO+++.......OOO+++OOOoooooooooXXXooooXXXoooooo"
};
