/* XPM */
static char *result[] = {
/* columns rows colors chars-per-pixel */
"100 100 3 1 ",
"  c #287000",
". c #60C808",
"X c #B0F850",
/* pixels */
"...XXX...XXX....XXXXXXXXX...XXX...XXX....XXXXXXXXX...XXX...XXX....XXXXXXXXX...XXX...XXX....XXXXXXXXX",
"...XXX...XXX....XXXXXXXXX...XXX...XXX....XXXXXXXXX...XXX...XXX....XXXXXXXXX...XXX...XXX....XXXXXXXXX",
"...XXX...XXX....XXXXXXXXX...XXX...XXX....XXXXXXXXX...XXX...XXX....XXXXXXXXX...XXX...XXX....XXXXXXXXX",
"XXX...   ...XXXX...XXX...XXX...   ...XXXX...XXX...XXX...   ...XXXX...XXX...XXX...   ...XXXX...XXX...",
"XXX...   ...XXXX...XXX...XXX...   ...XXXX...XXX...XXX...   ...XXXX...XXX...XXX...   ...XXXX...XXX...",
"XXX...   ...XXXX...XXX...XXX...   ...XXXX...XXX...XXX...   ...XXXX...XXX...XXX...   ...XXXX...XXX...",
"...XXX...XXX    XXX...XXX...XXX...XXX    XXX...XXX...XXX...XXX    XXX...XXX...XXX...XXX    XXX...XXX",
"...XXX...XXX    XXX...XXX...XXX...XXX    XXX...XXX...XXX...XXX    XXX...XXX...XXX...XXX    XXX...XXX",
"...XXX...XXX    XXX...XXX...XXX...XXX    XXX...XXX...XXX...XXX    XXX...XXX...XXX...XXX    XXX...XXX",
"XXXXXXXXX...XXXX...XXXXXXXXXXXXXXX...XXXX...XXXXXXXXXXXXXXX...XXXX...XXXXXXXXXXXXXXX...XXXX...XXXXXX",
"XXXXXXXXX...XXXX...XXXXXXXXXXXXXXX...XXXX...XXXXXXXXXXXXXXX...XXXX...XXXXXXXXXXXXXXX...XXXX...XXXXXX",
"XXXXXXXXX...XXXX...XXXXXXXXXXXXXXX...XXXX...XXXXXXXXXXXXXXX...XXXX...XXXXXXXXXXXXXXX...XXXX...XXXXXX",
"XXXXXXXXX...XXXX...XXXXXXXXXXXXXXX...XXXX...XXXXXXXXXXXXXXX...XXXX...XXXXXXXXXXXXXXX...XXXX...XXXXXX",
"...XXX...XXX....XXX...XXX...XXX...XXX....XXX...XXX...XXX...XXX....XXX...XXX...XXX...XXX....XXX...XXX",
"...XXX...XXX....XXX...XXX...XXX...XXX....XXX...XXX...XXX...XXX....XXX...XXX...XXX...XXX....XXX...XXX",
"...XXX...XXX....XXX...XXX...XXX...XXX....XXX...XXX...XXX...XXX....XXX...XXX...XXX...XXX....XXX...XXX",
"XXX...XXX...XXXX...   ...XXX...XXX...XXXX...   ...XXX...XXX...XXXX...   ...XXX...XXX...XXXX...   ...",
"XXX...XXX...XXXX...   ...XXX...XXX...XXXX...   ...XXX...XXX...XXXX...   ...XXX...XXX...XXXX...   ...",
"XXX...XXX...XXXX...   ...XXX...XXX...XXXX...   ...XXX...XXX...XXXX...   ...XXX...XXX...XXXX...   ...",
"XXXXXXXXXXXX....XXX...XXXXXXXXXXXXXXX....XXX...XXXXXXXXXXXXXXX....XXX...XXXXXXXXXXXXXXX....XXX...XXX",
"XXXXXXXXXXXX....XXX...XXXXXXXXXXXXXXX....XXX...XXXXXXXXXXXXXXX....XXX...XXXXXXXXXXXXXXX....XXX...XXX",
"XXXXXXXXXXXX....XXX...XXXXXXXXXXXXXXX....XXX...XXXXXXXXXXXXXXX....XXX...XXXXXXXXXXXXXXX....XXX...XXX",
"XXXXXXXXX...XXXX...XXXXXXXXXXXXXXX...XXXX...XXXXXXXXXXXXXXX...XXXX...XXXXXXXXXXXXXXX...XXXX...XXXXXX",
"XXXXXXXXX...XXXX...XXXXXXXXXXXXXXX...XXXX...XXXXXXXXXXXXXXX...XXXX...XXXXXXXXXXXXXXX...XXXX...XXXXXX",
"XXXXXXXXX...XXXX...XXXXXXXXXXXXXXX...XXXX...XXXXXXXXXXXXXXX...XXXX...XXXXXXXXXXXXXXX...XXXX...XXXXXX",
"...XXX...XXX....XXXXXXXXX...XXX...XXX....XXXXXXXXXXXXXXXXXXXXXXXXXXXXXXXXXX...XXX...XXX....XXXXXXXXX",
"...XXX...XXX....XXXXXXXXX...XXX...XXX....XXXXXXXXXXXXXXXXXXXXXXXXXXXXXXXXXX...XXX...XXX....XXXXXXXXX",
"...XXX...XXX....XXXXXXXXX...XXX...XXX....XXXXXXXXXXXXXXXXXXXXXXXXXXXXXXXXXX...XXX...XXX....XXXXXXXXX",
"XXX...   ...XXXX...XXX...XXX...   ...XXXX...XXX...XXX   XXXXXXXXXX   XXXXXXXXX...   ...XXXX...XXX...",
"XXX...   ...XXXX...XXX...XXX...   ...XXXX...XXX...XXX   XXXXXXXXXX   XXXXXXXXX...   ...XXXX...XXX...",
"XXX...   ...XXXX...XXX...XXX...   ...XXXX...XXX...XXX   XXXXXXXXXX   XXXXXXXXX...   ...XXXX...XXX...",
"...XXX...XXX    XXX...XXX...XXX...XXX    XXX...XXX   XXX   XXX    XXX   XXX...XXX...XXX    XXX...XXX",
"...XXX...XXX    XXX...XXX...XXX...XXX    XXX...XXX   XXX   XXX    XXX   XXX...XXX...XXX    XXX...XXX",
"...XXX...XXX    XXX...XXX...XXX...XXX    XXX...XXX   XXX   XXX    XXX   XXX...XXX...XXX    XXX...XXX",
"XXXXXXXXX...XXXX...XXXXXXXXXXXXXXX...XXXX...XXXXXX   ......   .......   XXXXXXXXXXXX...XXXX...XXXXXX",
"XXXXXXXXX...XXXX...XXXXXXXXXXXXXXX...XXXX...XXXXXX   ......   .......   XXXXXXXXXXXX...XXXX...XXXXXX",
"XXXXXXXXX...XXXX...XXXXXXXXXXXXXXX...XXXX...XXXXXX   ......   .......   XXXXXXXXXXXX...XXXX...XXXXXX",
"XXXXXXXXX...XXXX...XXXXXXXXXXXXXXX...XXXX...XXXXXX   ......   .......   XXXXXXXXXXXX...XXXX...XXXXXX",
"...XXX...XXX....XXX...XXX...XXX...XXX....XXX...XXXXXX   ...   ....   XXXXXX...XXX...XXX....XXX...XXX",
"...XXX...XXX....XXX...XXX...XXX...XXX....XXX...XXXXXX   ...   ....   XXXXXX...XXX...XXX....XXX...XXX",
"...XXX...XXX....XXX...XXX...XXX...XXX....XXX...XXXXXX   ...   ....   XXXXXX...XXX...XXX....XXX...XXX",
"XXX...XXX...XXXX...   ...XXX...XXX...XXXX...   ...XXX      ...       XXXXXXXXX...XXX...XXXX...   ...",
"XXX...XXX...XXXX...   ...XXX...XXX...XXXX...   ...XXX      ...       XXXXXXXXX...XXX...XXXX...   ...",
"XXX...XXX...XXXX...   ...XXX...XXX...XXXX...   ...XXX      ...       XXXXXXXXX...XXX...XXXX...   ...",
"XXXXXXXXXXXX....XXX...XXXXXXXXXXXXXXX....XXX...XXX......          ......XXXXXXXXXXXXXXX....XXX...XXX",
"XXXXXXXXXXXX....XXX...XXXXXXXXXXXXXXX....XXX...XXX......          ......XXXXXXXXXXXXXXX....XXX...XXX",
"XXXXXXXXXXXX....XXX...XXXXXXXXXXXXXXX....XXX...XXX......          ......XXXXXXXXXXXXXXX....XXX...XXX",
"XXXXXXXXX...XXXX...XXXXXXXXXXXXXXX...XXXX...XXXXXXXXX......   .......XXXXXXXXXXXXXXX...XXXX...XXXXXX",
"XXXXXXXXX...XXXX...XXXXXXXXXXXXXXX...XXXX...XXXXXXXXX......   .......XXXXXXXXXXXXXXX...XXXX...XXXXXX",
"XXXXXXXXX...XXXX...XXXXXXXXXXXXXXX...XXXX...XXXXXXXXX......   .......XXXXXXXXXXXXXXX...XXXX...XXXXXX",
"XXXXXXXXXXXXXXXXXXXXXXXXX...XXX...XXX....XXXXXXXXX...XXX...XXX....XXXXXXXXX...XXX...XXX....XXXXXXXXX",
"XXXXXXXXXXXXXXXXXXXXXXXXX...XXX...XXX....XXXXXXXXX...XXX...XXX....XXXXXXXXX...XXX...XXX....XXXXXXXXX",
"XXXXXXXXXXXXXXXXXXXXXXXXX...XXX...XXX....XXXXXXXXX...XXX...XXX....XXXXXXXXX...XXX...XXX....XXXXXXXXX",
"XXX   XXXXXXXXXX   XXXXXXXXX...   ...XXXX...XXX...XXX...   ...XXXX...XXX...XXX...   ...XXXX...XXX...",
"XXX   XXXXXXXXXX   XXXXXXXXX...   ...XXXX...XXX...XXX...   ...XXXX...XXX...XXX...   ...XXXX...XXX...",
"XXX   XXXXXXXXXX   XXXXXXXXX...   ...XXXX...XXX...XXX...   ...XXXX...XXX...XXX...   ...XXXX...XXX...",
"   XXX   XXX    XXX   XXX...XXX...XXX    XXX...XXX...XXX...XXX    XXX...XXX...XXX...XXX    XXX...XXX",
"   XXX   XXX    XXX   XXX...XXX...XXX    XXX...XXX...XXX...XXX    XXX...XXX...XXX...XXX    XXX...XXX",
"   XXX   XXX    XXX   XXX...XXX...XXX    XXX...XXX...XXX...XXX    XXX...XXX...XXX...XXX    XXX...XXX",
"   ......   .......   XXXXXXXXXXXX...XXXX...XXXXXXXXXXXXXXX...XXXX...XXXXXXXXXXXXXXX...XXXX...XXXXXX",
"   ......   .......   XXXXXXXXXXXX...XXXX...XXXXXXXXXXXXXXX...XXXX...XXXXXXXXXXXXXXX...XXXX...XXXXXX",
"   ......   .......   XXXXXXXXXXXX...XXXX...XXXXXXXXXXXXXXX...XXXX...XXXXXXXXXXXXXXX...XXXX...XXXXXX",
"   ......   .......   XXXXXXXXXXXX...XXXX...XXXXXXXXXXXXXXX...XXXX...XXXXXXXXXXXXXXX...XXXX...XXXXXX",
"XXX   ...   ....   XXXXXX...XXX...XXX....XXX...XXX...XXX...XXX....XXX...XXX...XXX...XXX....XXX...XXX",
"XXX   ...   ....   XXXXXX...XXX...XXX....XXX...XXX...XXX...XXX....XXX...XXX...XXX...XXX....XXX...XXX",
"XXX   ...   ....   XXXXXX...XXX...XXX....XXX...XXX...XXX...XXX....XXX...XXX...XXX...XXX....XXX...XXX",
"XXX      ...       XXXXXXXXX...XXX...XXXX...   ...XXX...XXX...XXXX...   ...XXX...XXX...XXXX...   ...",
"XXX      ...       XXXXXXXXX...XXX...XXXX...   ...XXX...XXX...XXXX...   ...XXX...XXX...XXXX...   ...",
"XXX      ...       XXXXXXXXX...XXX...XXXX...   ...XXX...XXX...XXXX...   ...XXX...XXX...XXXX...   ...",
"......          ......XXXXXXXXXXXXXXX....XXX...XXXXXXXXXXXXXXX....XXX...XXXXXXXXXXXXXXX....XXX...XXX",
"......          ......XXXXXXXXXXXXXXX....XXX...XXXXXXXXXXXXXXX....XXX...XXXXXXXXXXXXXXX....XXX...XXX",
"......          ......XXXXXXXXXXXXXXX....XXX...XXXXXXXXXXXXXXX....XXX...XXXXXXXXXXXXXXX....XXX...XXX",
"XXX......   .......XXXXXXXXXXXXXXX...XXXX...XXXXXXXXXXXXXXX...XXXX...XXXXXXXXXXXXXXX...XXXX...XXXXXX",
"XXX......   .......XXXXXXXXXXXXXXX...XXXX...XXXXXXXXXXXXXXX...XXXX...XXXXXXXXXXXXXXX...XXXX...XXXXXX",
"XXX......   .......XXXXXXXXXXXXXXX...XXXX...XXXXXXXXXXXXXXX...XXXX...XXXXXXXXXXXXXXX...XXXX...XXXXXX",
"...XXX...XXX....XXXXXXXXX...XXX...XXX....XXXXXXXXXXXXXXXXXXXXXXXXXXXXXXXXXXXXXXXXXXXXXXXXXXXXXXXXXXX",
"...XXX...XXX....XXXXXXXXX...XXX...XXX....XXXXXXXXXXXXXXXXXXXXXXXXXXXXXXXXXXXXXXXXXXXXXXXXXXXXXXXXXXX",
"...XXX...XXX....XXXXXXXXX...XXX...XXX....XXXXXXXXXXXXXXXXXXXXXXXXXXXXXXXXXXXXXXXXXXXXXXXXXXXXXXXXXXX",
"XXX...   ...XXXX...XXX...XXX...   ...XXXX...XXX...XXX   XXXXXXXXXX   XXXXXXXXX   XXXXXXXXXX   XXXXXX",
"XXX...   ...XXXX...XXX...XXX...   ...XXXX...XXX...XXX   XXXXXXXXXX   XXXXXXXXX   XXXXXXXXXX   XXXXXX",
"XXX...   ...XXXX...XXX...XXX...   ...XXXX...XXX...XXX   XXXXXXXXXX   XXXXXXXXX   XXXXXXXXXX   XXXXXX",
"...XXX...XXX    XXX...XXX...XXX...XXX    XXX...XXX   XXX   XXX    XXX   XXX   XXX   XXX    XXX   XXX",
"...XXX...XXX    XXX...XXX...XXX...XXX    XXX...XXX   XXX   XXX    XXX   XXX   XXX   XXX    XXX   XXX",
"...XXX...XXX    XXX...XXX...XXX...XXX    XXX...XXX   XXX   XXX    XXX   XXX   XXX   XXX    XXX   XXX",
"XXXXXXXXX...XXXX...XXXXXXXXXXXXXXX...XXXX...XXXXXX   ......   .......   XXX   ......   .......   XXX",
"XXXXXXXXX...XXXX...XXXXXXXXXXXXXXX...XXXX...XXXXXX   ......   .......   XXX   ......   .......   XXX",
"XXXXXXXXX...XXXX...XXXXXXXXXXXXXXX...XXXX...XXXXXX   ......   .......   XXX   ......   .......   XXX",
"XXXXXXXXX...XXXX...XXXXXXXXXXXXXXX...XXXX...XXXXXX   ......   .......   XXX   ......   .......   XXX",
"...XXX...XXX....XXX...XXX...XXX...XXX....XXX...XXXXXX   ...   ....   XXXXXXXXX   ...   ....   XXXXXX",
"...XXX...XXX....XXX...XXX...XXX...XXX....XXX...XXXXXX   ...   ....   XXXXXXXXX   ...   ....   XXXXXX",
"...XXX...XXX....XXX...XXX...XXX...XXX....XXX...XXXXXX   ...   ....   XXXXXXXXX   ...   ....   XXXXXX",
"XXX...XXX...XXXX...   ...XXX...XXX...XXXX...   ...XXX      ...       XXXXXXXXX      ...       XXXXXX",
"XXX...XXX...XXXX...   ...XXX...XXX...XXXX...   ...XXX      ...       XXXXXXXXX      ...       XXXXXX",
"XXX...XXX...XXXX...   ...XXX...XXX...XXXX...   ...XXX      ...       XXXXXXXXX      ...       XXXXXX",
"XXXXXXXXXXXX....XXX...XXXXXXXXXXXXXXX....XXX...XXX......          ......XXX......          ......XXX",
"XXXXXXXXXXXX....XXX...XXXXXXXXXXXXXXX....XXX...XXX......          ......XXX......          ......XXX",
"XXXXXXXXXXXX....XXX...XXXXXXXXXXXXXXX....XXX...XXX......          ......XXX......          ......XXX",
"XXXXXXXXX...XXXX...XXXXXXXXXXXXXXX...XXXX...XXXXXXXXX......   .......XXXXXXXXX......   .......XXXXXX",
"XXXXXXXXX...XXXX...XXXXXXXXXXXXXXX...XXXX...XXXXXXXXX......   .......XXXXXXXXX......   .......XXXXXX",
"XXXXXXXXX...XXXX...XXXXXXXXXXXXXXX...XXXX...XXXXXXXXX......   .......XXXXXXXXX......   .......XXXXXX"
};
