/* XPM */
static char *result[] = {
/* columns rows colors chars-per-pixel */
"100 100 3 1 ",
"  c #206500",
". c #55C205",
"X c #A8F745",
/* pixels */
"...XXX...XXX....XXXXXXXXX...XXX...XXX....XXXXXXXXX...XXX...XXX....XXXXXXXXX...XXX...XXX....XXXXXXXXX",
"...XXX...XXX....XXXXXXXXX...XXX...XXX....XXXXXXXXX...XXX...XXX....XXXXXXXXX...XXX...XXX....XXXXXXXXX",
"...XXX...XXX....XXXXXXXXX...XXX...XXX....XXXXXXXXX...XXX...XXX....XXXXXXXXX...XXX...XXX....XXXXXXXXX",
"XXX...   ...XXXX...XXX...XXX...   ...XXXX...XXX...XXX...   ...XXXX...XXX...XXX...   ...XXXX...XXX...",
"XXX...   ...XXXX...XXX...XXX...   ...XXXX...XXX...XXX...   ...XXXX...XXX...XXX...   ...XXXX...XXX...",
"XXX...   ...XXXX...XXX...XXX...   ...XXXX...XXX...XXX...   ...XXXX...XXX...XXX...   ...XXXX...XXX...",
"...XXX...XXX    XXX...XXX...XXX...XXX    XXX...XXX...XXX...XXX    XXX...XXX...XXX...XXX    XXX...XXX",
"...XXX...XXX    XXX...XXX...XXX...XXX    XXX...XXX...XXX...XXX    XXX...XXX...XXX...XXX    XXX...XXX",
"...XXX...XXX    XXX...XXX...XXX...XXX    XXX...XXX...XXX...XXX    XXX...XXX...XXX...XXX    XXX...XXX",
"XXXXXXXXX...XXXX...XXXXXXXXXXXXXXX...XXXX...XXXXXXXXXXXXXXX...XXXX...XXXXXXXXXXXXXXX...XXXX...XXXXXX",
"XXXXXXXXX...XXXX...XXXXXXXXXXXXXXX...XXXX...XXXXXXXXXXXXXXX...XXXX...XXXXXXXXXXXXXXX...XXXX...XXXXXX",
"XXXXXXXXX...XXXX...XXXXXXXXXXXXXXX...XXXX...XXXXXXXXXXXXXXX...XXXX...XXXXXXXXXXXXXXX...XXXX...XXXXXX",
"XXXXXXXXX...XXXX...XXXXXXXXXXXXXXX...XXXX...XXXXXXXXXXXXXXX...XXXX...XXXXXXXXXXXXXXX...XXXX...XXXXXX",
"...XXX...XXX....XXX...XXX...XXX...XXX....XXX...XXX...XXX...XXX....XXX...XXX...XXX...XXX....XXX...XXX",
"...XXX...XXX....XXX...XXX...XXX...XXX....XXX...XXX...XXX...XXX....XXX...XXX...XXX...XXX....XXX...XXX",
"...XXX...XXX....XXX...XXX...XXX...XXX....XXX...XXX...XXX...XXX....XXX...XXX...XXX...XXX....XXX...XXX",
"XXX...XXX...XXXX...   ...XXX...XXX...XXXX...   ...XXX...XXX...XXXX...   ...XXX...XXX...XXXX...   ...",
"XXX...XXX...XXXX...   ...XXX...XXX...XXXX...   ...XXX...XXX...XXXX...   ...XXX...XXX...XXXX...   ...",
"XXX...XXX...XXXX...   ...XXX...XXX...XXXX...   ...XXX...XXX...XXXX...   ...XXX...XXX...XXXX...   ...",
"XXXXXXXXXXXX....XXX...XXXXXXXXXXXXXXX....XXX...XXXXXXXXXXXXXXX....XXX...XXXXXXXXXXXXXXX....XXX...XXX",
"XXXXXXXXXXXX....XXX...XXXXXXXXXXXXXXX....XXX...XXXXXXXXXXXXXXX....XXX...XXXXXXXXXXXXXXX....XXX...XXX",
"XXXXXXXXXXXX....XXX...XXXXXXXXXXXXXXX....XXX...XXXXXXXXXXXXXXX....XXX...XXXXXXXXXXXXXXX....XXX...XXX",
"XXXXXXXXX...XXXX...XXXXXXXXXXXXXXX...XXXX...XXXXXXXXXXXXXXX...XXXX...XXXXXXXXXXXXXXX...XXXX...XXXXXX",
"XXXXXXXXX...XXXX...XXXXXXXXXXXXXXX...XXXX...XXXXXXXXXXXXXXX...XXXX...XXXXXXXXXXXXXXX...XXXX...XXXXXX",
"XXXXXXXXX...XXXX...XXXXXXXXXXXXXXX...XXXX...XXXXXXXXXXXXXXX...XXXX...XXXXXXXXXXXXXXX...XXXX...XXXXXX",
"...XXX...XXX....XXXXXXXXX...XXX...XXX....XXXXXXXXX...XXX...XXX....XXXXXXXXX...XXX...XXX....XXXXXXXXX",
"...XXX...XXX....XXXXXXXXX...XXX...XXX....XXXXXXXXX...XXX...XXX....XXXXXXXXX...XXX...XXX....XXXXXXXXX",
"...XXX...XXX....XXXXXXXXX...XXX...XXX....XXXXXXXXX...XXX...XXX....XXXXXXXXX...XXX...XXX....XXXXXXXXX",
"XXX...   ...XXXX...XXX...XXX...   ...XXXX...XXX...XXX...   ...XXXX...XXX...XXX...   ...XXXX...XXX...",
"XXX...   ...XXXX...XXX...XXX...   ...XXXX...XXX...XXX...   ...XXXX...XXX...XXX...   ...XXXX...XXX...",
"XXX...   ...XXXX...XXX...XXX...   ...XXXX...XXX...XXX...   ...XXXX...XXX...XXX...   ...XXXX...XXX...",
"...XXX...XXX    XXX...XXX...XXX...XXX    XXX...XXX...XXX...XXX    XXX...XXX...XXX...XXX    XXX...XXX",
"...XXX...XXX    XXX...XXX...XXX...XXX    XXX...XXX...XXX...XXX    XXX...XXX...XXX...XXX    XXX...XXX",
"...XXX...XXX    XXX...XXX...XXX...XXX    XXX...XXX...XXX...XXX    XXX...XXX...XXX...XXX    XXX...XXX",
"XXXXXXXXX...XXXX...XXXXXXXXXXXXXXX...XXXX...XXXXXXXXXXXXXXX...XXXX...XXXXXXXXXXXXXXX...XXXX...XXXXXX",
"XXXXXXXXX...XXXX...XXXXXXXXXXXXXXX...XXXX...XXXXXXXXXXXXXXX...XXXX...XXXXXXXXXXXXXXX...XXXX...XXXXXX",
"XXXXXXXXX...XXXX...XXXXXXXXXXXXXXX...XXXX...XXXXXXXXXXXXXXX...XXXX...XXXXXXXXXXXXXXX...XXXX...XXXXXX",
"XXXXXXXXX...XXXX...XXXXXXXXXXXXXXX...XXXX...XXXXXXXXXXXXXXX...XXXX...XXXXXXXXXXXXXXX...XXXX...XXXXXX",
"...XXX...XXX....XXX...XXX...XXX...XXX....XXX...XXX...XXX...XXX....XXX...XXX...XXX...XXX....XXX...XXX",
"...XXX...XXX....XXX...XXX...XXX...XXX....XXX...XXX...XXX...XXX....XXX...XXX...XXX...XXX....XXX...XXX",
"...XXX...XXX....XXX...XXX...XXX...XXX....XXX...XXX...XXX...XXX....XXX...XXX...XXX...XXX....XXX...XXX",
"XXX...XXX...XXXX...   ...XXX...XXX...XXXX...   ...XXX...XXX...XXXX...   ...XXX...XXX...XXXX...   ...",
"XXX...XXX...XXXX...   ...XXX...XXX...XXXX...   ...XXX...XXX...XXXX...   ...XXX...XXX...XXXX...   ...",
"XXX...XXX...XXXX...   ...XXX...XXX...XXXX...   ...XXX...XXX...XXXX...   ...XXX...XXX...XXXX...   ...",
"XXXXXXXXXXXX....XXX...XXXXXXXXXXXXXXX....XXX...XXXXXXXXXXXXXXX....XXX...XXXXXXXXXXXXXXX....XXX...XXX",
"XXXXXXXXXXXX....XXX...XXXXXXXXXXXXXXX....XXX...XXXXXXXXXXXXXXX....XXX...XXXXXXXXXXXXXXX....XXX...XXX",
"XXXXXXXXXXXX....XXX...XXXXXXXXXXXXXXX....XXX...XXXXXXXXXXXXXXX....XXX...XXXXXXXXXXXXXXX....XXX...XXX",
"XXXXXXXXX...XXXX...XXXXXXXXXXXXXXX...XXXX...XXXXXXXXXXXXXXX...XXXX...XXXXXXXXXXXXXXX...XXXX...XXXXXX",
"XXXXXXXXX...XXXX...XXXXXXXXXXXXXXX...XXXX...XXXXXXXXXXXXXXX...XXXX...XXXXXXXXXXXXXXX...XXXX...XXXXXX",
"XXXXXXXXX...XXXX...XXXXXXXXXXXXXXX...XXXX...XXXXXXXXXXXXXXX...XXXX...XXXXXXXXXXXXXXX...XXXX...XXXXXX",
"...XXX...XXX....XXXXXXXXX...XXX...XXX....XXXXXXXXX...XXX...XXX....XXXXXXXXX...XXX...XXX....XXXXXXXXX",
"...XXX...XXX....XXXXXXXXX...XXX...XXX....XXXXXXXXX...XXX...XXX....XXXXXXXXX...XXX...XXX....XXXXXXXXX",
"...XXX...XXX....XXXXXXXXX...XXX...XXX....XXXXXXXXX...XXX...XXX....XXXXXXXXX...XXX...XXX....XXXXXXXXX",
"XXX...   ...XXXX...XXX...XXX...   ...XXXX...XXX...XXX...   ...XXXX...XXX...XXX...   ...XXXX...XXX...",
"XXX...   ...XXXX...XXX...XXX...   ...XXXX...XXX...XXX...   ...XXXX...XXX...XXX...   ...XXXX...XXX...",
"XXX...   ...XXXX...XXX...XXX...   ...XXXX...XXX...XXX...   ...XXXX...XXX...XXX...   ...XXXX...XXX...",
"...XXX...XXX    XXX...XXX...XXX...XXX    XXX...XXX...XXX...XXX    XXX...XXX...XXX...XXX    XXX...XXX",
"...XXX...XXX    XXX...XXX...XXX...XXX    XXX...XXX...XXX...XXX    XXX...XXX...XXX...XXX    XXX...XXX",
"...XXX...XXX    XXX...XXX...XXX...XXX    XXX...XXX...XXX...XXX    XXX...XXX...XXX...XXX    XXX...XXX",
"XXXXXXXXX...XXXX...XXXXXXXXXXXXXXX...XXXX...XXXXXXXXXXXXXXX...XXXX...XXXXXXXXXXXXXXX...XXXX...XXXXXX",
"XXXXXXXXX...XXXX...XXXXXXXXXXXXXXX...XXXX...XXXXXXXXXXXXXXX...XXXX...XXXXXXXXXXXXXXX...XXXX...XXXXXX",
"XXXXXXXXX...XXXX...XXXXXXXXXXXXXXX...XXXX...XXXXXXXXXXXXXXX...XXXX...XXXXXXXXXXXXXXX...XXXX...XXXXXX",
"XXXXXXXXX...XXXX...XXXXXXXXXXXXXXX...XXXX...XXXXXXXXXXXXXXX...XXXX...XXXXXXXXXXXXXXX...XXXX...XXXXXX",
"...XXX...XXX....XXX...XXX...XXX...XXX....XXX...XXX...XXX...XXX....XXX...XXX...XXX...XXX....XXX...XXX",
"...XXX...XXX....XXX...XXX...XXX...XXX....XXX...XXX...XXX...XXX....XXX...XXX...XXX...XXX....XXX...XXX",
"...XXX...XXX....XXX...XXX...XXX...XXX....XXX...XXX...XXX...XXX....XXX...XXX...XXX...XXX....XXX...XXX",
"XXX...XXX...XXXX...   ...XXX...XXX...XXXX...   ...XXX...XXX...XXXX...   ...XXX...XXX...XXXX...   ...",
"XXX...XXX...XXXX...   ...XXX...XXX...XXXX...   ...XXX...XXX...XXXX...   ...XXX...XXX...XXXX...   ...",
"XXX...XXX...XXXX...   ...XXX...XXX...XXXX...   ...XXX...XXX...XXXX...   ...XXX...XXX...XXXX...   ...",
"XXXXXXXXXXXX....XXX...XXXXXXXXXXXXXXX....XXX...XXXXXXXXXXXXXXX....XXX...XXXXXXXXXXXXXXX....XXX...XXX",
"XXXXXXXXXXXX....XXX...XXXXXXXXXXXXXXX....XXX...XXXXXXXXXXXXXXX....XXX...XXXXXXXXXXXXXXX....XXX...XXX",
"XXXXXXXXXXXX....XXX...XXXXXXXXXXXXXXX....XXX...XXXXXXXXXXXXXXX....XXX...XXXXXXXXXXXXXXX....XXX...XXX",
"XXXXXXXXX...XXXX...XXXXXXXXXXXXXXX...XXXX...XXXXXXXXXXXXXXX...XXXX...XXXXXXXXXXXXXXX...XXXX...XXXXXX",
"XXXXXXXXX...XXXX...XXXXXXXXXXXXXXX...XXXX...XXXXXXXXXXXXXXX...XXXX...XXXXXXXXXXXXXXX...XXXX...XXXXXX",
"XXXXXXXXX...XXXX...XXXXXXXXXXXXXXX...XXXX...XXXXXXXXXXXXXXX...XXXX...XXXXXXXXXXXXXXX...XXXX...XXXXXX",
"...XXX...XXX....XXXXXXXXX...XXX...XXX....XXXXXXXXX...XXX...XXX....XXXXXXXXX...XXX...XXX....XXXXXXXXX",
"...XXX...XXX....XXXXXXXXX...XXX...XXX....XXXXXXXXX...XXX...XXX....XXXXXXXXX...XXX...XXX....XXXXXXXXX",
"...XXX...XXX....XXXXXXXXX...XXX...XXX....XXXXXXXXX...XXX...XXX....XXXXXXXXX...XXX...XXX....XXXXXXXXX",
"XXX...   ...XXXX...XXX...XXX...   ...XXXX...XXX...XXX...   ...XXXX...XXX...XXX...   ...XXXX...XXX...",
"XXX...   ...XXXX...XXX...XXX...   ...XXXX...XXX...XXX...   ...XXXX...XXX...XXX...   ...XXXX...XXX...",
"XXX...   ...XXXX...XXX...XXX...   ...XXXX...XXX...XXX...   ...XXXX...XXX...XXX...   ...XXXX...XXX...",
"...XXX...XXX    XXX...XXX...XXX...XXX    XXX...XXX...XXX...XXX    XXX...XXX...XXX...XXX    XXX...XXX",
"...XXX...XXX    XXX...XXX...XXX...XXX    XXX...XXX...XXX...XXX    XXX...XXX...XXX...XXX    XXX...XXX",
"...XXX...XXX    XXX...XXX...XXX...XXX    XXX...XXX...XXX...XXX    XXX...XXX...XXX...XXX    XXX...XXX",
"XXXXXXXXX...XXXX...XXXXXXXXXXXXXXX...XXXX...XXXXXXXXXXXXXXX...XXXX...XXXXXXXXXXXXXXX...XXXX...XXXXXX",
"XXXXXXXXX...XXXX...XXXXXXXXXXXXXXX...XXXX...XXXXXXXXXXXXXXX...XXXX...XXXXXXXXXXXXXXX...XXXX...XXXXXX",
"XXXXXXXXX...XXXX...XXXXXXXXXXXXXXX...XXXX...XXXXXXXXXXXXXXX...XXXX...XXXXXXXXXXXXXXX...XXXX...XXXXXX",
"XXXXXXXXX...XXXX...XXXXXXXXXXXXXXX...XXXX...XXXXXXXXXXXXXXX...XXXX...XXXXXXXXXXXXXXX...XXXX...XXXXXX",
"...XXX...XXX....XXX...XXX...XXX...XXX....XXX...XXX...XXX...XXX....XXX...XXX...XXX...XXX....XXX...XXX",
"...XXX...XXX....XXX...XXX...XXX...XXX....XXX...XXX...XXX...XXX....XXX...XXX...XXX...XXX....XXX...XXX",
"...XXX...XXX....XXX...XXX...XXX...XXX....XXX...XXX...XXX...XXX....XXX...XXX...XXX...XXX....XXX...XXX",
"XXX...XXX...XXXX...   ...XXX...XXX...XXXX...   ...XXX...XXX...XXXX...   ...XXX...XXX...XXXX...   ...",
"XXX...XXX...XXXX...   ...XXX...XXX...XXXX...   ...XXX...XXX...XXXX...   ...XXX...XXX...XXXX...   ...",
"XXX...XXX...XXXX...   ...XXX...XXX...XXXX...   ...XXX...XXX...XXXX...   ...XXX...XXX...XXXX...   ...",
"XXXXXXXXXXXX....XXX...XXXXXXXXXXXXXXX....XXX...XXXXXXXXXXXXXXX....XXX...XXXXXXXXXXXXXXX....XXX...XXX",
"XXXXXXXXXXXX....XXX...XXXXXXXXXXXXXXX....XXX...XXXXXXXXXXXXXXX....XXX...XXXXXXXXXXXXXXX....XXX...XXX",
"XXXXXXXXXXXX....XXX...XXXXXXXXXXXXXXX....XXX...XXXXXXXXXXXXXXX....XXX...XXXXXXXXXXXXXXX....XXX...XXX",
"XXXXXXXXX...XXXX...XXXXXXXXXXXXXXX...XXXX...XXXXXXXXXXXXXXX...XXXX...XXXXXXXXXXXXXXX...XXXX...XXXXXX",
"XXXXXXXXX...XXXX...XXXXXXXXXXXXXXX...XXXX...XXXXXXXXXXXXXXX...XXXX...XXXXXXXXXXXXXXX...XXXX...XXXXXX",
"XXXXXXXXX...XXXX...XXXXXXXXXXXXXXX...XXXX...XXXXXXXXXXXXXXX...XXXX...XXXXXXXXXXXXXXX...XXXX...XXXXXX"
};
