/* XPM */
static char *result[] = {
/* columns rows colors chars-per-pixel */
"100 100 5 1 ",
"  c gray22",
". c #9C7827",
"X c #BB9042",
"o c #DEF4D8",
"O c None",
/* pixels */
"OOOOOOOOOOOOOOOOOOOOOOOOOOOOOOOOOOOOOOOOOOOO            OOOOOOOOOOOOOOOOOOOOOOOOOOOOOOOOOOOOOOOOOOOO",
"OOOOOOOOOOOOOOOOOOOOOOOOOOOOOOOOOOOOOOOOOOOO            OOOOOOOOOOOOOOOOOOOOOOOOOOOOOOOOOOOOOOOOOOOO",
"OOOOOOOOOOOOOOOOOOOOOOOOOOOOOOOOOOOOOOOOOOOO            OOOOOOOOOOOOOOOOOOOOOOOOOOOOOOOOOOOOOOOOOOOO",
"OOOOOOOOOOOOOOOOOOOOOOOOOOOOOOOOOOOOOOOOOOOO            OOOOOOOOOOOOOOOOOOOOOOOOOOOOOOOOOOOOOOOOOOOO",
"OOOOOOOOOOOOOOOOOOOOOOOOOOOOOOOOOOOOOOOOOOOO            OOOOOOOOOOOOOOOOOOOOOOOOOOOOOOOOOOOOOOOOOOOO",
"OOOOOOOOOOOOOOOOOOOOOOOOOOOOOOOOOOOOOOOOOOOO            OOOOOOOOOOOOOOOOOOOOOOOOOOOOOOOOOOOOOOOOOOOO",
"OOOOOOOOOOOOOOOOOOOOOOOOOOOOOOOOOOOOOO      ooooooOOOOOO       OOOOOOOOOOOOOOOOOOOOOOOOOOOOOOOOOOOOO",
"OOOOOOOOOOOOOOOOOOOOOOOOOOOOOOOOOOOOOO      ooooooOOOOOO       OOOOOOOOOOOOOOOOOOOOOOOOOOOOOOOOOOOOO",
"OOOOOOOOOOOOOOOOOOOOOOOOOOOOOOOOOOOOOO      ooooooOOOOOO       OOOOOOOOOOOOOOOOOOOOOOOOOOOOOOOOOOOOO",
"OOOOOOOOOOOOOOOOOOOOOOOOOOOOOOOOOOOOOO      ooooooOOOOOO       OOOOOOOOOOOOOOOOOOOOOOOOOOOOOOOOOOOOO",
"OOOOOOOOOOOOOOOOOOOOOOOOOOOOOOOOOOOOOO      ooooooOOOOOO       OOOOOOOOOOOOOOOOOOOOOOOOOOOOOOOOOOOOO",
"OOOOOOOOOOOOOOOOOOOOOOOOOOOOOOOOOOOOOO      ooooooOOOOOO       OOOOOOOOOOOOOOOOOOOOOOOOOOOOOOOOOOOOO",
"OOOOOOOOOOOOOOOOOOOOOOOOOOOOOOOOOOOOOO      ooooooOOOOOO       OOOOOOOOOOOOOOOOOOOOOOOOOOOOOOOOOOOOO",
"OOOOOOOOOOOOOOOOOOOOOOOOOOOOOOO       oooooo            OOOOOOO      OOOOOOOOOOOOOOOOOOOOOOOOOOOOOOO",
"OOOOOOOOOOOOOOOOOOOOOOOOOOOOOOO       oooooo            OOOOOOO      OOOOOOOOOOOOOOOOOOOOOOOOOOOOOOO",
"OOOOOOOOOOOOOOOOOOOOOOOOOOOOOOO       oooooo            OOOOOOO      OOOOOOOOOOOOOOOOOOOOOOOOOOOOOOO",
"OOOOOOOOOOOOOOOOOOOOOOOOOOOOOOO       oooooo            OOOOOOO      OOOOOOOOOOOOOOOOOOOOOOOOOOOOOOO",
"OOOOOOOOOOOOOOOOOOOOOOOOOOOOOOO       oooooo            OOOOOOO      OOOOOOOOOOOOOOOOOOOOOOOOOOOOOOO",
"OOOOOOOOOOOOOOOOOOOOOOOOOOOOOOO       oooooo            OOOOOOO      OOOOOOOOOOOOOOOOOOOOOOOOOOOOOOO",
"OOOOOOOOOOOOOOOOOOOOOOOOOOOOOOO       oooooo            OOOOOOO      OOOOOO             OOOOOOOOOOOO",
"OOOOOOOOOOOOOOOOOOOOOOOOOOOOOOO       oooooo            OOOOOOO      OOOOOO             OOOOOOOOOOOO",
"OOOOOOOOOOOOOOOOOOOOOOOOOOOOOOO       oooooo            OOOOOOO      OOOOOO             OOOOOOOOOOOO",
"OOOOOOOOOOOOOOOOOOOOOOOOOOOOOOO       oooooo            OOOOOOO      OOOOOO             OOOOOOOOOOOO",
"OOOOOOOOOOOOOOOOOOOOOOOOOOOOOOO       oooooo            OOOOOOO      OOOOOO             OOOOOOOOOOOO",
"OOOOOOOOOOOOOOOOOOOOOOOOOOOOOOO       oooooo            OOOOOOO      OOOOOO             OOOOOOOOOOOO",
"OOOOOOOOOOOOOOOOOOOOOOOOOOOOOOO       oooooo                   OOOOOO      ooooooooooooo      OOOOOO",
"OOOOOOOOOOOOOOOOOOOOOOOOOOOOOOO       oooooo                   OOOOOO      ooooooooooooo      OOOOOO",
"OOOOOOOOOOOOOOOOOOOOOOOOOOOOOOO       oooooo                   OOOOOO      ooooooooooooo      OOOOOO",
"OOOOOOOOOOOOOOOOOOOOOOOOOOOOOOO       oooooo                   OOOOOO      ooooooooooooo      OOOOOO",
"OOOOOOOOOOOOOOOOOOOOOOOOOOOOOOO       oooooo                   OOOOOO      ooooooooooooo      OOOOOO",
"OOOOOOOOOOOOOOOOOOOOOOOOOOOOOOO       oooooo                   OOOOOO      ooooooooooooo      OOOOOO",
"OOOOOOOOOOOOOOOOOOOOOOOOO             XXXXXXoooooo                   oooooo             OOOOOOOOOOOO",
"OOOOOOOOOOOOOOOOOOOOOOOOO             XXXXXXoooooo                   oooooo             OOOOOOOOOOOO",
"OOOOOOOOOOOOOOOOOOOOOOOOO             XXXXXXoooooo                   oooooo             OOOOOOOOOOOO",
"OOOOOOOOOOOOOOOOOOOOOOOOO             XXXXXXoooooo                   oooooo             OOOOOOOOOOOO",
"OOOOOOOOOOOOOOOOOOOOOOOOO             XXXXXXoooooo                   oooooo             OOOOOOOOOOOO",
"OOOOOOOOOOOOOOOOOOOOOOOOO             XXXXXXoooooo                   oooooo             OOOOOOOOOOOO",
"OOOOOOOOOOOOOOOOOOOOOOOOO             XXXXXXoooooo                   oooooo             OOOOOOOOOOOO",
"OOOOOOOOOOOOO                         XXXXXX      oooooo             oooooo             OOOOOOOOOOOO",
"OOOOOOOOOOOOO                         XXXXXX      oooooo             oooooo             OOOOOOOOOOOO",
"OOOOOOOOOOOOO                         XXXXXX      oooooo             oooooo             OOOOOOOOOOOO",
"OOOOOOOOOOOOO                         XXXXXX      oooooo             oooooo             OOOOOOOOOOOO",
"OOOOOOOOOOOOO                         XXXXXX      oooooo             oooooo             OOOOOOOOOOOO",
"OOOOOOOOOOOOO                         XXXXXX      oooooo             oooooo             OOOOOOOOOOOO",
"OOOOOO                   ......       XXXXXX            ooooooo      oooooo                   OOOOOO",
"OOOOOO                   ......       XXXXXX            ooooooo      oooooo                   OOOOOO",
"OOOOOO                   ......       XXXXXX            ooooooo      oooooo                   OOOOOO",
"OOOOOO                   ......       XXXXXX            ooooooo      oooooo                   OOOOOO",
"OOOOOO                   ......       XXXXXX            ooooooo      oooooo                   OOOOOO",
"OOOOOO                   ......       XXXXXX            ooooooo      oooooo                   OOOOOO",
"OOOOOO             ......             XXXXXXXXXXXX             oooooooooooo             OOOOOOOOOOOO",
"OOOOOO             ......             XXXXXXXXXXXX             oooooooooooo             OOOOOOOOOOOO",
"OOOOOO             ......             XXXXXXXXXXXX             oooooooooooo             OOOOOOOOOOOO",
"OOOOOO             ......             XXXXXXXXXXXX             oooooooooooo             OOOOOOOOOOOO",
"OOOOOO             ......             XXXXXXXXXXXX             oooooooooooo             OOOOOOOOOOOO",
"OOOOOO             ......             XXXXXXXXXXXX             oooooooooooo             OOOOOOOOOOOO",
"             ......      ......       XXXXXX      XXXXXX             XXXXXX                   OOOOOO",
"             ......      ......       XXXXXX      XXXXXX             XXXXXX                   OOOOOO",
"             ......      ......       XXXXXX      XXXXXX             XXXXXX                   OOOOOO",
"             ......      ......       XXXXXX      XXXXXX             XXXXXX                   OOOOOO",
"             ......      ......       XXXXXX      XXXXXX             XXXXXX                   OOOOOO",
"             ......      ......       XXXXXX      XXXXXX             XXXXXX                   OOOOOO",
"             ......      ......       XXXXXX      XXXXXX             XXXXXX                   OOOOOO",
"      .......      ......             ......            XXXXXXX      XXXXXX                   OOOOOO",
"      .......      ......             ......            XXXXXXX      XXXXXX                   OOOOOO",
"      .......      ......             ......            XXXXXXX      XXXXXX                   OOOOOO",
"      .......      ......             ......            XXXXXXX      XXXXXX                   OOOOOO",
"      .......      ......             ......            XXXXXXX      XXXXXX                   OOOOOO",
"      .......      ......             ......            XXXXXXX      XXXXXX                   OOOOOO",
"             ......                   ............             XXXXXXXXXXXX                   OOOOOO",
"             ......                   ............             XXXXXXXXXXXX                   OOOOOO",
"             ......                   ............             XXXXXXXXXXXX                   OOOOOO",
"             ......                   ............             XXXXXXXXXXXX                   OOOOOO",
"             ......                   ............             XXXXXXXXXXXX                   OOOOOO",
"             ......                   ............             XXXXXXXXXXXX                   OOOOOO",
"OOOOOO                                ......      ......             XXXXXX             OOOOOOOOOOOO",
"OOOOOO                                ......      ......             XXXXXX             OOOOOOOOOOOO",
"OOOOOO                                ......      ......             XXXXXX             OOOOOOOOOOOO",
"OOOOOO                                ......      ......             XXXXXX             OOOOOOOOOOOO",
"OOOOOO                                ......      ......             XXXXXX             OOOOOOOOOOOO",
"OOOOOO                                ......      ......             XXXXXX             OOOOOOOOOOOO",
"OOOOOO       ......                                     .......      XXXXXX             OOOOOOOOOOOO",
"OOOOOO       ......                                     .......      XXXXXX             OOOOOOOOOOOO",
"OOOOOO       ......                                     .......      XXXXXX             OOOOOOOOOOOO",
"OOOOOO       ......                                     .......      XXXXXX             OOOOOOOOOOOO",
"OOOOOO       ......                                     .......      XXXXXX             OOOOOOOOOOOO",
"OOOOOO       ......                                     .......      XXXXXX             OOOOOOOOOOOO",
"OOOOOO       ......                                     .......      XXXXXX             OOOOOOOOOOOO",
"OOOOOOOOOOOOO                                                                    OOOOOOOOOOOOOOOOOOO",
"OOOOOOOOOOOOO                                                                    OOOOOOOOOOOOOOOOOOO",
"OOOOOOOOOOOOO                                                                    OOOOOOOOOOOOOOOOOOO",
"OOOOOOOOOOOOO                                                                    OOOOOOOOOOOOOOOOOOO",
"OOOOOOOOOOOOO                                                                    OOOOOOOOOOOOOOOOOOO",
"OOOOOOOOOOOOO                                                                    OOOOOOOOOOOOOOOOOOO",
"OOOOOOOOOOOOOOOOOOOOOOOOO                                            OOOOOOOOOOOOOOOOOOOOOOOOOOOOOOO",
"OOOOOOOOOOOOOOOOOOOOOOOOO                                            OOOOOOOOOOOOOOOOOOOOOOOOOOOOOOO",
"OOOOOOOOOOOOOOOOOOOOOOOOO                                            OOOOOOOOOOOOOOOOOOOOOOOOOOOOOOO",
"OOOOOOOOOOOOOOOOOOOOOOOOO                                            OOOOOOOOOOOOOOOOOOOOOOOOOOOOOOO",
"OOOOOOOOOOOOOOOOOOOOOOOOO                                            OOOOOOOOOOOOOOOOOOOOOOOOOOOOOOO",
"OOOOOOOOOOOOOOOOOOOOOOOOO                                            OOOOOOOOOOOOOOOOOOOOOOOOOOOOOOO"
};
