/* XPM */
static char *result[] = {
/* columns rows colors chars-per-pixel */
"100 100 4 1 ",
"  c black",
". c #61AE1E",
"X c #EE9D5C",
"o c None",
/* pixels */
"ooooooooooooooooooooooooooooooo       oooooo            ooooooo      ooooooooooooooooooooooooooooooo",
"ooooooooooooooooooooooooooooooo       oooooo            ooooooo      ooooooooooooooooooooooooooooooo",
"ooooooooooooooooooooooooooooooo       oooooo            ooooooo      ooooooooooooooooooooooooooooooo",
"ooooooooooooooooooooooooooooooo       oooooo            ooooooo      ooooooooooooooooooooooooooooooo",
"ooooooooooooooooooooooooooooooo       oooooo            ooooooo      ooooooooooooooooooooooooooooooo",
"ooooooooooooooooooooooooooooooo       oooooo            ooooooo      ooooooooooooooooooooooooooooooo",
"ooooooooooooooooooooooooo      .......      ............       ......      ooooooooooooooooooooooooo",
"ooooooooooooooooooooooooo      .......      ............       ......      ooooooooooooooooooooooooo",
"ooooooooooooooooooooooooo      .......      ............       ......      ooooooooooooooooooooooooo",
"ooooooooooooooooooooooooo      .......      ............       ......      ooooooooooooooooooooooooo",
"ooooooooooooooooooooooooo      .......      ............       ......      ooooooooooooooooooooooooo",
"ooooooooooooooooooooooooo      .......      ............       ......      ooooooooooooooooooooooooo",
"ooooooooooooooooooooooooo      .......      ............       ......      ooooooooooooooooooooooooo",
"ooooooooooooo            .............      ............       ............             oooooooooooo",
"ooooooooooooo            .............      ............       ............             oooooooooooo",
"ooooooooooooo            .............      ............       ............             oooooooooooo",
"ooooooooooooo            .............      ............       ............             oooooooooooo",
"ooooooooooooo            .............      ............       ............             oooooooooooo",
"ooooooooooooo            .............      ............       ............             oooooooooooo",
"oooooo       ............      ...................      .............      .............      oooooo",
"oooooo       ............      ...................      .............      .............      oooooo",
"oooooo       ............      ...................      .............      .............      oooooo",
"oooooo       ............      ...................      .............      .............      oooooo",
"oooooo       ............      ...................      .............      .............      oooooo",
"oooooo       ............      ...................      .............      .............      oooooo",
"ooooooooooooo      ..............................................................       oooooooooooo",
"ooooooooooooo      ..............................................................       oooooooooooo",
"ooooooooooooo      ..............................................................       oooooooooooo",
"ooooooooooooo      ..............................................................       oooooooooooo",
"ooooooooooooo      ..............................................................       oooooooooooo",
"ooooooooooooo      ..............................................................       oooooooooooo",
"ooooooooooooo      ......             ......            .......            ......       oooooooooooo",
"ooooooooooooo      ......             ......            .......            ......       oooooooooooo",
"ooooooooooooo      ......             ......            .......            ......       oooooooooooo",
"ooooooooooooo      ......             ......            .......            ......       oooooooooooo",
"ooooooooooooo      ......             ......            .......            ......       oooooooooooo",
"ooooooooooooo      ......             ......            .......            ......       oooooooooooo",
"ooooooooooooo      ......             ......            .......            ......       oooooooooooo",
"oooooo       XXXXXX      XXXXXX       XXXXXXXXXXXXXXXXXXXXXXXXX      XXXXXX      XXXXXXX      oooooo",
"oooooo       XXXXXX      XXXXXX       XXXXXXXXXXXXXXXXXXXXXXXXX      XXXXXX      XXXXXXX      oooooo",
"oooooo       XXXXXX      XXXXXX       XXXXXXXXXXXXXXXXXXXXXXXXX      XXXXXX      XXXXXXX      oooooo",
"oooooo       XXXXXX      XXXXXX       XXXXXXXXXXXXXXXXXXXXXXXXX      XXXXXX      XXXXXXX      oooooo",
"oooooo       XXXXXX      XXXXXX       XXXXXXXXXXXXXXXXXXXXXXXXX      XXXXXX      XXXXXXX      oooooo",
"oooooo       XXXXXX      XXXXXX       XXXXXXXXXXXXXXXXXXXXXXXXX      XXXXXX      XXXXXXX      oooooo",
"oooooo       XXXXXX......XXXXXXXXXXXXX      XXXXXXXXXXXX       XXXXXXXXXXXX......XXXXXXX      oooooo",
"oooooo       XXXXXX......XXXXXXXXXXXXX      XXXXXXXXXXXX       XXXXXXXXXXXX......XXXXXXX      oooooo",
"oooooo       XXXXXX......XXXXXXXXXXXXX      XXXXXXXXXXXX       XXXXXXXXXXXX......XXXXXXX      oooooo",
"oooooo       XXXXXX......XXXXXXXXXXXXX      XXXXXXXXXXXX       XXXXXXXXXXXX......XXXXXXX      oooooo",
"oooooo       XXXXXX......XXXXXXXXXXXXX      XXXXXXXXXXXX       XXXXXXXXXXXX......XXXXXXX      oooooo",
"oooooo       XXXXXX......XXXXXXXXXXXXX      XXXXXXXXXXXX       XXXXXXXXXXXX......XXXXXXX      oooooo",
"ooooooooooooo            XXXXXXXXXXXXX      XXXXXXXXXXXX       XXXXXXXXXXXX             oooooooooooo",
"ooooooooooooo            XXXXXXXXXXXXX      XXXXXXXXXXXX       XXXXXXXXXXXX             oooooooooooo",
"ooooooooooooo            XXXXXXXXXXXXX      XXXXXXXXXXXX       XXXXXXXXXXXX             oooooooooooo",
"ooooooooooooo            XXXXXXXXXXXXX      XXXXXXXXXXXX       XXXXXXXXXXXX             oooooooooooo",
"ooooooooooooo            XXXXXXXXXXXXX      XXXXXXXXXXXX       XXXXXXXXXXXX             oooooooooooo",
"ooooooooooooo            XXXXXXXXXXXXX      XXXXXXXXXXXX       XXXXXXXXXXXX             oooooooooooo",
"ooooooooooooo                  XXXXXXXXXXXXX............XXXXXXXXXXXXX                   oooooooooooo",
"ooooooooooooo                  XXXXXXXXXXXXX............XXXXXXXXXXXXX                   oooooooooooo",
"ooooooooooooo                  XXXXXXXXXXXXX............XXXXXXXXXXXXX                   oooooooooooo",
"ooooooooooooo                  XXXXXXXXXXXXX............XXXXXXXXXXXXX                   oooooooooooo",
"ooooooooooooo                  XXXXXXXXXXXXX............XXXXXXXXXXXXX                   oooooooooooo",
"ooooooooooooo                  XXXXXXXXXXXXX............XXXXXXXXXXXXX                   oooooooooooo",
"ooooooooooooo                  XXXXXXXXXXXXX............XXXXXXXXXXXXX                   oooooooooooo",
"oooooo       XXXXXXXXXXXX                                                  XXXXXXXXXXXXX      oooooo",
"oooooo       XXXXXXXXXXXX                                                  XXXXXXXXXXXXX      oooooo",
"oooooo       XXXXXXXXXXXX                                                  XXXXXXXXXXXXX      oooooo",
"oooooo       XXXXXXXXXXXX                                                  XXXXXXXXXXXXX      oooooo",
"oooooo       XXXXXXXXXXXX                                                  XXXXXXXXXXXXX      oooooo",
"oooooo       XXXXXXXXXXXX                                                  XXXXXXXXXXXXX      oooooo",
"oooooo       XXXXXXXXXXXX      XXXXXXX      XXXXXXXXXXXX       XXXXXX      XXXXXXXXXXXXX      oooooo",
"oooooo       XXXXXXXXXXXX      XXXXXXX      XXXXXXXXXXXX       XXXXXX      XXXXXXXXXXXXX      oooooo",
"oooooo       XXXXXXXXXXXX      XXXXXXX      XXXXXXXXXXXX       XXXXXX      XXXXXXXXXXXXX      oooooo",
"oooooo       XXXXXXXXXXXX      XXXXXXX      XXXXXXXXXXXX       XXXXXX      XXXXXXXXXXXXX      oooooo",
"oooooo       XXXXXXXXXXXX      XXXXXXX      XXXXXXXXXXXX       XXXXXX      XXXXXXXXXXXXX      oooooo",
"oooooo       XXXXXXXXXXXX      XXXXXXX      XXXXXXXXXXXX       XXXXXX      XXXXXXXXXXXXX      oooooo",
"ooooooooooooo                                                                           oooooooooooo",
"ooooooooooooo                                                                           oooooooooooo",
"ooooooooooooo                                                                           oooooooooooo",
"ooooooooooooo                                                                           oooooooooooo",
"ooooooooooooo                                                                           oooooooooooo",
"ooooooooooooo                                                                           oooooooooooo",
"ooooooooooooooooooo                   .........................                  ooooooooooooooooooo",
"ooooooooooooooooooo                   .........................                  ooooooooooooooooooo",
"ooooooooooooooooooo                   .........................                  ooooooooooooooooooo",
"ooooooooooooooooooo                   .........................                  ooooooooooooooooooo",
"ooooooooooooooooooo                   .........................                  ooooooooooooooooooo",
"ooooooooooooooooooo                   .........................                  ooooooooooooooooooo",
"ooooooooooooooooooo                   .........................                  ooooooooooooooooooo",
"ooooooooooooooooooo      XXXXXX.......                         ......XXXXXX      ooooooooooooooooooo",
"ooooooooooooooooooo      XXXXXX.......                         ......XXXXXX      ooooooooooooooooooo",
"ooooooooooooooooooo      XXXXXX.......                         ......XXXXXX      ooooooooooooooooooo",
"ooooooooooooooooooo      XXXXXX.......                         ......XXXXXX      ooooooooooooooooooo",
"ooooooooooooooooooo      XXXXXX.......                         ......XXXXXX      ooooooooooooooooooo",
"ooooooooooooooooooo      XXXXXX.......                         ......XXXXXX      ooooooooooooooooooo",
"ooooooooooooooooooooooooo                   oooooooooooo                   ooooooooooooooooooooooooo",
"ooooooooooooooooooooooooo                   oooooooooooo                   ooooooooooooooooooooooooo",
"ooooooooooooooooooooooooo                   oooooooooooo                   ooooooooooooooooooooooooo",
"ooooooooooooooooooooooooo                   oooooooooooo                   ooooooooooooooooooooooooo",
"ooooooooooooooooooooooooo                   oooooooooooo                   ooooooooooooooooooooooooo",
"ooooooooooooooooooooooooo                   oooooooooooo                   ooooooooooooooooooooooooo"
};
