/* XPM */
static char *result[] = {
/* columns rows colors chars-per-pixel */
"100 100 4 1 ",
"  c black",
". c #61AE1E",
"X c #EE9D5C",
"o c None",
/* pixels */
"oooooooooooooooooooooooooooooooooooooo                               oooooo      ooooooooooooooooooo",
"oooooooooooooooooooooooooooooooooooooo                               oooooo      ooooooooooooooooooo",
"oooooooooooooooooooooooooooooooooooooo                               oooooo      ooooooooooooooooooo",
"oooooooooooooooooooooooooooooooooooooo                               oooooo      ooooooooooooooooooo",
"oooooooooooooooooooooooooooooooooooooo                               oooooo      ooooooooooooooooooo",
"oooooooooooooooooooooooooooooooooooooo                               oooooo      ooooooooooooooooooo",
"ooooooooooooooooooooooooo                                      ......      ......       oooooooooooo",
"ooooooooooooooooooooooooo                                      ......      ......       oooooooooooo",
"ooooooooooooooooooooooooo                                      ......      ......       oooooooooooo",
"ooooooooooooooooooooooooo                                      ......      ......       oooooooooooo",
"ooooooooooooooooooooooooo                                      ......      ......       oooooooooooo",
"ooooooooooooooooooooooooo                                      ......      ......       oooooooooooo",
"ooooooooooooooooooooooooo                                      ......      ......       oooooooooooo",
"ooooooooooooo                                           .........................       oooooooooooo",
"ooooooooooooo                                           .........................       oooooooooooo",
"ooooooooooooo                                           .........................       oooooooooooo",
"ooooooooooooo                                           .........................       oooooooooooo",
"ooooooooooooo                                           .........................       oooooooooooo",
"ooooooooooooo                                           .........................       oooooooooooo",
"ooooooooooooooooooo                                            ............      .......oooooooooooo",
"ooooooooooooooooooo                                            ............      .......oooooooooooo",
"ooooooooooooooooooo                                            ............      .......oooooooooooo",
"ooooooooooooooooooo                                            ............      .......oooooooooooo",
"ooooooooooooooooooo                                            ............      .......oooooooooooo",
"ooooooooooooooooooo                                            ............      .......oooooooooooo",
"ooooooooooooo                                           .............      ......       oooooooooooo",
"ooooooooooooo                                           .............      ......       oooooooooooo",
"ooooooooooooo                                           .............      ......       oooooooooooo",
"ooooooooooooo                                           .............      ......       oooooooooooo",
"ooooooooooooo                                           .............      ......       oooooooooooo",
"ooooooooooooo                                           .............      ......       oooooooooooo",
"oooooo                                      ......XXXXXX       XXXXXXXXXXXX......       oooooooooooo",
"oooooo                                      ......XXXXXX       XXXXXXXXXXXX......       oooooooooooo",
"oooooo                                      ......XXXXXX       XXXXXXXXXXXX......       oooooooooooo",
"oooooo                                      ......XXXXXX       XXXXXXXXXXXX......       oooooooooooo",
"oooooo                                      ......XXXXXX       XXXXXXXXXXXX......       oooooooooooo",
"oooooo                                      ......XXXXXX       XXXXXXXXXXXX......       oooooooooooo",
"oooooo                                      ......XXXXXX       XXXXXXXXXXXX......       oooooooooooo",
"ooooooooooooo                                     XXXXXXXXXXXXX      XXXXXX      ooooooooooooooooooo",
"ooooooooooooo                                     XXXXXXXXXXXXX      XXXXXX      ooooooooooooooooooo",
"ooooooooooooo                                     XXXXXXXXXXXXX      XXXXXX      ooooooooooooooooooo",
"ooooooooooooo                                     XXXXXXXXXXXXX      XXXXXX      ooooooooooooooooooo",
"ooooooooooooo                                     XXXXXXXXXXXXX      XXXXXX      ooooooooooooooooooo",
"ooooooooooooo                                     XXXXXXXXXXXXX      XXXXXX      ooooooooooooooooooo",
"ooooooooooooooooooo            XXXXXXXXXXXXX      XXXXXXXXXXXXX      XXXXXX      ooooooooooooooooooo",
"ooooooooooooooooooo            XXXXXXXXXXXXX      XXXXXXXXXXXXX      XXXXXX      ooooooooooooooooooo",
"ooooooooooooooooooo            XXXXXXXXXXXXX      XXXXXXXXXXXXX      XXXXXX      ooooooooooooooooooo",
"ooooooooooooooooooo            XXXXXXXXXXXXX      XXXXXXXXXXXXX      XXXXXX      ooooooooooooooooooo",
"ooooooooooooooooooo            XXXXXXXXXXXXX      XXXXXXXXXXXXX      XXXXXX      ooooooooooooooooooo",
"ooooooooooooooooooo            XXXXXXXXXXXXX      XXXXXXXXXXXXX      XXXXXX      ooooooooooooooooooo",
"ooooooooooooooooooooooooo      XXXXXXXXXXXXXXXXXXXXXXXXXXXXXXXXXXXXXXXXXXXX      ooooooooooooooooooo",
"ooooooooooooooooooooooooo      XXXXXXXXXXXXXXXXXXXXXXXXXXXXXXXXXXXXXXXXXXXX      ooooooooooooooooooo",
"ooooooooooooooooooooooooo      XXXXXXXXXXXXXXXXXXXXXXXXXXXXXXXXXXXXXXXXXXXX      ooooooooooooooooooo",
"ooooooooooooooooooooooooo      XXXXXXXXXXXXXXXXXXXXXXXXXXXXXXXXXXXXXXXXXXXX      ooooooooooooooooooo",
"ooooooooooooooooooooooooo      XXXXXXXXXXXXXXXXXXXXXXXXXXXXXXXXXXXXXXXXXXXX      ooooooooooooooooooo",
"ooooooooooooooooooooooooo      XXXXXXXXXXXXXXXXXXXXXXXXXXXXXXXXXXXXXXXXXXXX      ooooooooooooooooooo",
"ooooooooooooooooooooooooo                   XXXXXXXXXXXXXXXXXXX......      ooooooooooooooooooooooooo",
"ooooooooooooooooooooooooo                   XXXXXXXXXXXXXXXXXXX......      ooooooooooooooooooooooooo",
"ooooooooooooooooooooooooo                   XXXXXXXXXXXXXXXXXXX......      ooooooooooooooooooooooooo",
"ooooooooooooooooooooooooo                   XXXXXXXXXXXXXXXXXXX......      ooooooooooooooooooooooooo",
"ooooooooooooooooooooooooo                   XXXXXXXXXXXXXXXXXXX......      ooooooooooooooooooooooooo",
"ooooooooooooooooooooooooo                   XXXXXXXXXXXXXXXXXXX......      ooooooooooooooooooooooooo",
"ooooooooooooooooooooooooo                   XXXXXXXXXXXXXXXXXXX......      ooooooooooooooooooooooooo",
"ooooooooooooooooooooooooo                                            ooooooooooooooooooooooooooooooo",
"ooooooooooooooooooooooooo                                            ooooooooooooooooooooooooooooooo",
"ooooooooooooooooooooooooo                                            ooooooooooooooooooooooooooooooo",
"ooooooooooooooooooooooooo                                            ooooooooooooooooooooooooooooooo",
"ooooooooooooooooooooooooo                                            ooooooooooooooooooooooooooooooo",
"ooooooooooooooooooooooooo                                            ooooooooooooooooooooooooooooooo",
"ooooooooooooooooooooooooo             XXXXXXXXXXXX             ooooooooooooooooooooooooooooooooooooo",
"ooooooooooooooooooooooooo             XXXXXXXXXXXX             ooooooooooooooooooooooooooooooooooooo",
"ooooooooooooooooooooooooo             XXXXXXXXXXXX             ooooooooooooooooooooooooooooooooooooo",
"ooooooooooooooooooooooooo             XXXXXXXXXXXX             ooooooooooooooooooooooooooooooooooooo",
"ooooooooooooooooooooooooo             XXXXXXXXXXXX             ooooooooooooooooooooooooooooooooooooo",
"ooooooooooooooooooooooooo             XXXXXXXXXXXX             ooooooooooooooooooooooooooooooooooooo",
"ooooooooooooooooooooooooo             XXXXXXXXXXXX             ooooooooooooooooooooooooooooooooooooo",
"ooooooooooooooooooooooooo             XXXXXXXXXXXX             ooooooooooooooooooooooooooooooooooooo",
"ooooooooooooooooooooooooo             XXXXXXXXXXXX             ooooooooooooooooooooooooooooooooooooo",
"ooooooooooooooooooooooooo             XXXXXXXXXXXX             ooooooooooooooooooooooooooooooooooooo",
"ooooooooooooooooooooooooo             XXXXXXXXXXXX             ooooooooooooooooooooooooooooooooooooo",
"ooooooooooooooooooooooooo             XXXXXXXXXXXX             ooooooooooooooooooooooooooooooooooooo",
"ooooooooooooooooooooooooo                         XXXXXXXXXXXXX      ooooooooooooooooooooooooooooooo",
"ooooooooooooooooooooooooo                         XXXXXXXXXXXXX      ooooooooooooooooooooooooooooooo",
"ooooooooooooooooooooooooo                         XXXXXXXXXXXXX      ooooooooooooooooooooooooooooooo",
"ooooooooooooooooooooooooo                         XXXXXXXXXXXXX      ooooooooooooooooooooooooooooooo",
"ooooooooooooooooooooooooo                         XXXXXXXXXXXXX      ooooooooooooooooooooooooooooooo",
"ooooooooooooooooooooooooo                         XXXXXXXXXXXXX      ooooooooooooooooooooooooooooooo",
"ooooooooooooooooooooooooo                         XXXXXXXXXXXXX      ooooooooooooooooooooooooooooooo",
"ooooooooooooooooooooooooooooooo       .........................      ooooooooooooooooooooooooooooooo",
"ooooooooooooooooooooooooooooooo       .........................      ooooooooooooooooooooooooooooooo",
"ooooooooooooooooooooooooooooooo       .........................      ooooooooooooooooooooooooooooooo",
"ooooooooooooooooooooooooooooooo       .........................      ooooooooooooooooooooooooooooooo",
"ooooooooooooooooooooooooooooooo       .........................      ooooooooooooooooooooooooooooooo",
"ooooooooooooooooooooooooooooooo       .........................      ooooooooooooooooooooooooooooooo",
"oooooooooooooooooooooooooooooooooooooo                         ooooooooooooooooooooooooooooooooooooo",
"oooooooooooooooooooooooooooooooooooooo                         ooooooooooooooooooooooooooooooooooooo",
"oooooooooooooooooooooooooooooooooooooo                         ooooooooooooooooooooooooooooooooooooo",
"oooooooooooooooooooooooooooooooooooooo                         ooooooooooooooooooooooooooooooooooooo",
"oooooooooooooooooooooooooooooooooooooo                         ooooooooooooooooooooooooooooooooooooo",
"oooooooooooooooooooooooooooooooooooooo                         ooooooooooooooooooooooooooooooooooooo"
};
