/* XPM */
static char *result[] = {
/* columns rows colors chars-per-pixel */
"100 100 4 1 ",
"  c black",
". c #61AE1E",
"X c #EE9D5C",
"o c None",
/* pixels */
"oooooooooooooooooooooooooooooooooooooooooooooooooooooooooooooooooooooooooooooooooooooooooooooooooooo",
"oooooooooooooooooooooooooooooooooooooooooooooooooooooooooooooooooooooooooooooooooooooooooooooooooooo",
"oooooooooooooooooooooooooooooooooooooooooooooooooooooooooooooooooooooooooooooooooooooooooooooooooooo",
"oooooooooooooooooooooooooooooooooooooooooooooooooooooooooooooooooooooooooooooooooooooooooooooooooooo",
"oooooooooooooooooooooooooooooooooooooooooooooooooooooooooooooooooooooooooooooooooooooooooooooooooooo",
"oooooooooooooooooooooooooooooooooooooooooooooooooooooooooooooooooooooooooooooooooooooooooooooooooooo",
"ooooooooooooooooooooooooooooooo      ooooooo            oooooo       ooooooooooooooooooooooooooooooo",
"ooooooooooooooooooooooooooooooo      ooooooo            oooooo       ooooooooooooooooooooooooooooooo",
"ooooooooooooooooooooooooooooooo      ooooooo            oooooo       ooooooooooooooooooooooooooooooo",
"ooooooooooooooooooooooooooooooo      ooooooo            oooooo       ooooooooooooooooooooooooooooooo",
"ooooooooooooooooooooooooooooooo      ooooooo            oooooo       ooooooooooooooooooooooooooooooo",
"ooooooooooooooooooooooooooooooo      ooooooo            oooooo       ooooooooooooooooooooooooooooooo",
"ooooooooooooooooooooooooooooooo      ooooooo            oooooo       ooooooooooooooooooooooooooooooo",
"ooooooooooooooooooooooooo      ......       ............      .......      ooooooooooooooooooooooooo",
"ooooooooooooooooooooooooo      ......       ............      .......      ooooooooooooooooooooooooo",
"ooooooooooooooooooooooooo      ......       ............      .......      ooooooooooooooooooooooooo",
"ooooooooooooooooooooooooo      ......       ............      .......      ooooooooooooooooooooooooo",
"ooooooooooooooooooooooooo      ......       ............      .......      ooooooooooooooooooooooooo",
"ooooooooooooooooooooooooo      ......       ............      .......      ooooooooooooooooooooooooo",
"oooooooooooo             ............       ............      .............            ooooooooooooo",
"oooooooooooo             ............       ............      .............            ooooooooooooo",
"oooooooooooo             ............       ............      .............            ooooooooooooo",
"oooooooooooo             ............       ............      .............            ooooooooooooo",
"oooooooooooo             ............       ............      .............            ooooooooooooo",
"oooooooooooo             ............       ............      .............            ooooooooooooo",
"oooooo      .............      .............      ...................      ............       oooooo",
"oooooo      .............      .............      ...................      ............       oooooo",
"oooooo      .............      .............      ...................      ............       oooooo",
"oooooo      .............      .............      ...................      ............       oooooo",
"oooooo      .............      .............      ...................      ............       oooooo",
"oooooo      .............      .............      ...................      ............       oooooo",
"oooooooooooo       ..............................................................      ooooooooooooo",
"oooooooooooo       ..............................................................      ooooooooooooo",
"oooooooooooo       ..............................................................      ooooooooooooo",
"oooooooooooo       ..............................................................      ooooooooooooo",
"oooooooooooo       ..............................................................      ooooooooooooo",
"oooooooooooo       ..............................................................      ooooooooooooo",
"oooooooooooo       ..............................................................      ooooooooooooo",
"oooooooooooo       ......            .......            ......             ......      ooooooooooooo",
"oooooooooooo       ......            .......            ......             ......      ooooooooooooo",
"oooooooooooo       ......            .......            ......             ......      ooooooooooooo",
"oooooooooooo       ......            .......            ......             ......      ooooooooooooo",
"oooooooooooo       ......            .......            ......             ......      ooooooooooooo",
"oooooooooooo       ......            .......            ......             ......      ooooooooooooo",
"oooooo      XXXXXXX      XXXXXX      XXXXXXXXXXXXXXXXXXXXXXXXX       XXXXXX      XXXXXX       oooooo",
"oooooo      XXXXXXX      XXXXXX      XXXXXXXXXXXXXXXXXXXXXXXXX       XXXXXX      XXXXXX       oooooo",
"oooooo      XXXXXXX      XXXXXX      XXXXXXXXXXXXXXXXXXXXXXXXX       XXXXXX      XXXXXX       oooooo",
"oooooo      XXXXXXX      XXXXXX      XXXXXXXXXXXXXXXXXXXXXXXXX       XXXXXX      XXXXXX       oooooo",
"oooooo      XXXXXXX      XXXXXX      XXXXXXXXXXXXXXXXXXXXXXXXX       XXXXXX      XXXXXX       oooooo",
"oooooo      XXXXXXX      XXXXXX      XXXXXXXXXXXXXXXXXXXXXXXXX       XXXXXX      XXXXXX       oooooo",
"oooooo      XXXXXXX......XXXXXXXXXXXX       XXXXXXXXXXXX      XXXXXXXXXXXXX......XXXXXX       oooooo",
"oooooo      XXXXXXX......XXXXXXXXXXXX       XXXXXXXXXXXX      XXXXXXXXXXXXX......XXXXXX       oooooo",
"oooooo      XXXXXXX......XXXXXXXXXXXX       XXXXXXXXXXXX      XXXXXXXXXXXXX......XXXXXX       oooooo",
"oooooo      XXXXXXX......XXXXXXXXXXXX       XXXXXXXXXXXX      XXXXXXXXXXXXX......XXXXXX       oooooo",
"oooooo      XXXXXXX......XXXXXXXXXXXX       XXXXXXXXXXXX      XXXXXXXXXXXXX......XXXXXX       oooooo",
"oooooo      XXXXXXX......XXXXXXXXXXXX       XXXXXXXXXXXX      XXXXXXXXXXXXX......XXXXXX       oooooo",
"oooooooooooo             XXXXXXXXXXXX       XXXXXXXXXXXX      XXXXXXXXXXXXX                   oooooo",
"oooooooooooo             XXXXXXXXXXXX       XXXXXXXXXXXX      XXXXXXXXXXXXX                   oooooo",
"oooooooooooo             XXXXXXXXXXXX       XXXXXXXXXXXX      XXXXXXXXXXXXX                   oooooo",
"oooooooooooo             XXXXXXXXXXXX       XXXXXXXXXXXX      XXXXXXXXXXXXX                   oooooo",
"oooooooooooo             XXXXXXXXXXXX       XXXXXXXXXXXX      XXXXXXXXXXXXX                   oooooo",
"oooooooooooo             XXXXXXXXXXXX       XXXXXXXXXXXX      XXXXXXXXXXXXX                   oooooo",
"oooooooooooo             XXXXXXXXXXXX       XXXXXXXXXXXX      XXXXXXXXXXXXX                   oooooo",
"oooooooooooo                   XXXXXXXXXXXXX............XXXXXXXXXXXXX            XXXXXX       oooooo",
"oooooooooooo                   XXXXXXXXXXXXX............XXXXXXXXXXXXX            XXXXXX       oooooo",
"oooooooooooo                   XXXXXXXXXXXXX............XXXXXXXXXXXXX            XXXXXX       oooooo",
"oooooooooooo                   XXXXXXXXXXXXX............XXXXXXXXXXXXX            XXXXXX       oooooo",
"oooooooooooo                   XXXXXXXXXXXXX............XXXXXXXXXXXXX            XXXXXX       oooooo",
"oooooooooooo                   XXXXXXXXXXXXX............XXXXXXXXXXXXX            XXXXXX       oooooo",
"oooooooooooo                                                                           ooooooooooooo",
"oooooooooooo                                                                           ooooooooooooo",
"oooooooooooo                                                                           ooooooooooooo",
"oooooooooooo                                                                           ooooooooooooo",
"oooooooooooo                                                                           ooooooooooooo",
"oooooooooooo                                                                           ooooooooooooo",
"ooooooooooooooooooo      XXXXXXXXXXXX       XXXXXXXXXXXX      XXXXXXX      ooooooooooooooooooooooooo",
"ooooooooooooooooooo      XXXXXXXXXXXX       XXXXXXXXXXXX      XXXXXXX      ooooooooooooooooooooooooo",
"ooooooooooooooooooo      XXXXXXXXXXXX       XXXXXXXXXXXX      XXXXXXX      ooooooooooooooooooooooooo",
"ooooooooooooooooooo      XXXXXXXXXXXX       XXXXXXXXXXXX      XXXXXXX      ooooooooooooooooooooooooo",
"ooooooooooooooooooo      XXXXXXXXXXXX       XXXXXXXXXXXX      XXXXXXX      ooooooooooooooooooooooooo",
"ooooooooooooooooooo      XXXXXXXXXXXX       XXXXXXXXXXXX      XXXXXXX      ooooooooooooooooooooooooo",
"ooooooooooooooooooo      XXXXXXXXXXXX                                      ooooooooooooooooooooooooo",
"ooooooooooooooooooo      XXXXXXXXXXXX                                      ooooooooooooooooooooooooo",
"ooooooooooooooooooo      XXXXXXXXXXXX                                      ooooooooooooooooooooooooo",
"ooooooooooooooooooo      XXXXXXXXXXXX                                      ooooooooooooooooooooooooo",
"ooooooooooooooooooo      XXXXXXXXXXXX                                      ooooooooooooooooooooooooo",
"ooooooooooooooooooo      XXXXXXXXXXXX                                      ooooooooooooooooooooooooo",
"ooooooooooooooooooo      XXXXXXXXXXXX                                      ooooooooooooooooooooooooo",
"ooooooooooooooooooooooooo            ooooooo            ......XXXXXXX      ooooooooooooooooooooooooo",
"ooooooooooooooooooooooooo            ooooooo            ......XXXXXXX      ooooooooooooooooooooooooo",
"ooooooooooooooooooooooooo            ooooooo            ......XXXXXXX      ooooooooooooooooooooooooo",
"ooooooooooooooooooooooooo            ooooooo            ......XXXXXXX      ooooooooooooooooooooooooo",
"ooooooooooooooooooooooooo            ooooooo            ......XXXXXXX      ooooooooooooooooooooooooo",
"ooooooooooooooooooooooooo            ooooooo            ......XXXXXXX      ooooooooooooooooooooooooo",
"oooooooooooooooooooooooooooooooooooooooooooooooooo                   ooooooooooooooooooooooooooooooo",
"oooooooooooooooooooooooooooooooooooooooooooooooooo                   ooooooooooooooooooooooooooooooo",
"oooooooooooooooooooooooooooooooooooooooooooooooooo                   ooooooooooooooooooooooooooooooo",
"oooooooooooooooooooooooooooooooooooooooooooooooooo                   ooooooooooooooooooooooooooooooo",
"oooooooooooooooooooooooooooooooooooooooooooooooooo                   ooooooooooooooooooooooooooooooo",
"oooooooooooooooooooooooooooooooooooooooooooooooooo                   ooooooooooooooooooooooooooooooo"
};
