/* XPM */
static char *result[] = {
/* columns rows colors chars-per-pixel */
"100 100 4 1 ",
"  c black",
". c #61AE1E",
"X c #EE9D5C",
"o c None",
/* pixels */
"oooooooooooooooooooooooooooooooooooooooooooooooooooooooooooooooooooooooooooooooooooooooooooooooooooo",
"oooooooooooooooooooooooooooooooooooooooooooooooooooooooooooooooooooooooooooooooooooooooooooooooooooo",
"oooooooooooooooooooooooooooooooooooooooooooooooooooooooooooooooooooooooooooooooooooooooooooooooooooo",
"oooooooooooooooooooooooooooooooooooooooooooooooooooooooooooooooooooooooooooooooooooooooooooooooooooo",
"oooooooooooooooooooooooooooooooooooooooooooooooooooooooooooooooooooooooooooooooooooooooooooooooooooo",
"oooooooooooooooooooooooooooooooooooooooooooooooooooooooooooooooooooooooooooooooooooooooooooooooooooo",
"ooooooooooooooooooooooooooooooooooooo                                oooooo      ooooooooooooooooooo",
"ooooooooooooooooooooooooooooooooooooo                                oooooo      ooooooooooooooooooo",
"ooooooooooooooooooooooooooooooooooooo                                oooooo      ooooooooooooooooooo",
"ooooooooooooooooooooooooooooooooooooo                                oooooo      ooooooooooooooooooo",
"ooooooooooooooooooooooooooooooooooooo                                oooooo      ooooooooooooooooooo",
"ooooooooooooooooooooooooooooooooooooo                                oooooo      ooooooooooooooooooo",
"ooooooooooooooooooooooooooooooooooooo                                oooooo      ooooooooooooooooooo",
"ooooooooooooooooooooooooo                                     .......      ......      ooooooooooooo",
"ooooooooooooooooooooooooo                                     .......      ......      ooooooooooooo",
"ooooooooooooooooooooooooo                                     .......      ......      ooooooooooooo",
"ooooooooooooooooooooooooo                                     .......      ......      ooooooooooooo",
"ooooooooooooooooooooooooo                                     .......      ......      ooooooooooooo",
"ooooooooooooooooooooooooo                                     .......      ......      ooooooooooooo",
"oooooooooooo                                            .........................      ooooooooooooo",
"oooooooooooo                                            .........................      ooooooooooooo",
"oooooooooooo                                            .........................      ooooooooooooo",
"oooooooooooo                                            .........................      ooooooooooooo",
"oooooooooooo                                            .........................      ooooooooooooo",
"oooooooooooo                                            .........................      ooooooooooooo",
"oooooooooooooooooo                                            .............      ......ooooooooooooo",
"oooooooooooooooooo                                            .............      ......ooooooooooooo",
"oooooooooooooooooo                                            .............      ......ooooooooooooo",
"oooooooooooooooooo                                            .............      ......ooooooooooooo",
"oooooooooooooooooo                                            .............      ......ooooooooooooo",
"oooooooooooooooooo                                            .............      ......ooooooooooooo",
"oooooooooooo                                            .............      ......      ooooooooooooo",
"oooooooooooo                                            .............      ......      ooooooooooooo",
"oooooooooooo                                            .............      ......      ooooooooooooo",
"oooooooooooo                                            .............      ......      ooooooooooooo",
"oooooooooooo                                            .............      ......      ooooooooooooo",
"oooooooooooo                                            .............      ......      ooooooooooooo",
"oooooooooooo                                            .............      ......      ooooooooooooo",
"oooooo                                      ......XXXXXX      XXXXXXXXXXXXX......      ooooooooooooo",
"oooooo                                      ......XXXXXX      XXXXXXXXXXXXX......      ooooooooooooo",
"oooooo                                      ......XXXXXX      XXXXXXXXXXXXX......      ooooooooooooo",
"oooooo                                      ......XXXXXX      XXXXXXXXXXXXX......      ooooooooooooo",
"oooooo                                      ......XXXXXX      XXXXXXXXXXXXX......      ooooooooooooo",
"oooooo                                      ......XXXXXX      XXXXXXXXXXXXX......      ooooooooooooo",
"oooooooooooo                                      XXXXXXXXXXXX       XXXXXX      ooooooooooooooooooo",
"oooooooooooo                                      XXXXXXXXXXXX       XXXXXX      ooooooooooooooooooo",
"oooooooooooo                                      XXXXXXXXXXXX       XXXXXX      ooooooooooooooooooo",
"oooooooooooo                                      XXXXXXXXXXXX       XXXXXX      ooooooooooooooooooo",
"oooooooooooo                                      XXXXXXXXXXXX       XXXXXX      ooooooooooooooooooo",
"oooooooooooo                                      XXXXXXXXXXXX       XXXXXX      ooooooooooooooooooo",
"oooooooooooooooooo             XXXXXXXXXXXXX      XXXXXXXXXXXX       XXXXXX      ooooooooooooooooooo",
"oooooooooooooooooo             XXXXXXXXXXXXX      XXXXXXXXXXXX       XXXXXX      ooooooooooooooooooo",
"oooooooooooooooooo             XXXXXXXXXXXXX      XXXXXXXXXXXX       XXXXXX      ooooooooooooooooooo",
"oooooooooooooooooo             XXXXXXXXXXXXX      XXXXXXXXXXXX       XXXXXX      ooooooooooooooooooo",
"oooooooooooooooooo             XXXXXXXXXXXXX      XXXXXXXXXXXX       XXXXXX      ooooooooooooooooooo",
"oooooooooooooooooo             XXXXXXXXXXXXX      XXXXXXXXXXXX       XXXXXX      ooooooooooooooooooo",
"ooooooooooooooooooooooooo      XXXXXXXXXXXXXXXXXXXXXXXXXXXXXXXXXXXXXXXXXXXX      ooooooooooooooooooo",
"ooooooooooooooooooooooooo      XXXXXXXXXXXXXXXXXXXXXXXXXXXXXXXXXXXXXXXXXXXX      ooooooooooooooooooo",
"ooooooooooooooooooooooooo      XXXXXXXXXXXXXXXXXXXXXXXXXXXXXXXXXXXXXXXXXXXX      ooooooooooooooooooo",
"ooooooooooooooooooooooooo      XXXXXXXXXXXXXXXXXXXXXXXXXXXXXXXXXXXXXXXXXXXX      ooooooooooooooooooo",
"ooooooooooooooooooooooooo      XXXXXXXXXXXXXXXXXXXXXXXXXXXXXXXXXXXXXXXXXXXX      ooooooooooooooooooo",
"ooooooooooooooooooooooooo      XXXXXXXXXXXXXXXXXXXXXXXXXXXXXXXXXXXXXXXXXXXX      ooooooooooooooooooo",
"ooooooooooooooooooooooooo      XXXXXXXXXXXXXXXXXXXXXXXXXXXXXXXXXXXXXXXXXXXX      ooooooooooooooooooo",
"ooooooooooooooooooooooooo                   XXXXXXXXXXXXXXXXXX.......      ooooooooooooooooooooooooo",
"ooooooooooooooooooooooooo                   XXXXXXXXXXXXXXXXXX.......      ooooooooooooooooooooooooo",
"ooooooooooooooooooooooooo                   XXXXXXXXXXXXXXXXXX.......      ooooooooooooooooooooooooo",
"ooooooooooooooooooooooooo                   XXXXXXXXXXXXXXXXXX.......      ooooooooooooooooooooooooo",
"ooooooooooooooooooooooooo                   XXXXXXXXXXXXXXXXXX.......      ooooooooooooooooooooooooo",
"ooooooooooooooooooooooooo                   XXXXXXXXXXXXXXXXXX.......      ooooooooooooooooooooooooo",
"ooooooooooooooooooooooooo                                            ooooooooooooooooooooooooooooooo",
"ooooooooooooooooooooooooo                                            ooooooooooooooooooooooooooooooo",
"ooooooooooooooooooooooooo                                            ooooooooooooooooooooooooooooooo",
"ooooooooooooooooooooooooo                                            ooooooooooooooooooooooooooooooo",
"ooooooooooooooooooooooooo                                            ooooooooooooooooooooooooooooooo",
"ooooooooooooooooooooooooo                                            ooooooooooooooooooooooooooooooo",
"oooooooooooooooooo             XXXXXXXXXXXXX            XXXXXX                   ooooooooooooooooooo",
"oooooooooooooooooo             XXXXXXXXXXXXX            XXXXXX                   ooooooooooooooooooo",
"oooooooooooooooooo             XXXXXXXXXXXXX            XXXXXX                   ooooooooooooooooooo",
"oooooooooooooooooo             XXXXXXXXXXXXX            XXXXXX                   ooooooooooooooooooo",
"oooooooooooooooooo             XXXXXXXXXXXXX            XXXXXX                   ooooooooooooooooooo",
"oooooooooooooooooo             XXXXXXXXXXXXX            XXXXXX                   ooooooooooooooooooo",
"oooooooooooooooooo             XXXXXXXXXXXXX            XXXXXX                   ooooooooooooooooooo",
"oooooooooooo      .......      XXXXXXXXXXXXX      ............       XXXXXX......      ooooooooooooo",
"oooooooooooo      .......      XXXXXXXXXXXXX      ............       XXXXXX......      ooooooooooooo",
"oooooooooooo      .......      XXXXXXXXXXXXX      ............       XXXXXX......      ooooooooooooo",
"oooooooooooo      .......      XXXXXXXXXXXXX      ............       XXXXXX......      ooooooooooooo",
"oooooooooooo      .......      XXXXXXXXXXXXX      ............       XXXXXX......      ooooooooooooo",
"oooooooooooo      .......      XXXXXXXXXXXXX      ............       XXXXXX......      ooooooooooooo",
"oooooooooooo      .......XXXXXX                               .............      ooooooooooooooooooo",
"oooooooooooo      .......XXXXXX                               .............      ooooooooooooooooooo",
"oooooooooooo      .......XXXXXX                               .............      ooooooooooooooooooo",
"oooooooooooo      .......XXXXXX                               .............      ooooooooooooooooooo",
"oooooooooooo      .......XXXXXX                               .............      ooooooooooooooooooo",
"oooooooooooo      .......XXXXXX                               .............      ooooooooooooooooooo",
"oooooooooooooooooo             ooooooooooooooooooooooooo                   ooooooooooooooooooooooooo",
"oooooooooooooooooo             ooooooooooooooooooooooooo                   ooooooooooooooooooooooooo",
"oooooooooooooooooo             ooooooooooooooooooooooooo                   ooooooooooooooooooooooooo",
"oooooooooooooooooo             ooooooooooooooooooooooooo                   ooooooooooooooooooooooooo",
"oooooooooooooooooo             ooooooooooooooooooooooooo                   ooooooooooooooooooooooooo",
"oooooooooooooooooo             ooooooooooooooooooooooooo                   ooooooooooooooooooooooooo"
};
