/* XPM */
static char *result[] = {
/* columns rows colors chars-per-pixel */
"100 100 4 1 ",
"  c black",
". c #61AE1E",
"X c #EE9D5C",
"o c None",
/* pixels */
"oooooooooooooooooooooooooooooooooooooooooooooooooooooooooooooooooooooooooooooooooooooooooooooooooooo",
"oooooooooooooooooooooooooooooooooooooooooooooooooooooooooooooooooooooooooooooooooooooooooooooooooooo",
"oooooooooooooooooooooooooooooooooooooooooooooooooooooooooooooooooooooooooooooooooooooooooooooooooooo",
"oooooooooooooooooooooooooooooooooooooooooooooooooooooooooooooooooooooooooooooooooooooooooooooooooooo",
"oooooooooooooooooooooooooooooooooooooooooooooooooooooooooooooooooooooooooooooooooooooooooooooooooooo",
"oooooooooooooooooooooooooooooooooooooooooooooooooooooooooooooooooooooooooooooooooooooooooooooooooooo",
"ooooooooooooooooooooooooooooooo       oooooo            ooooooo      ooooooooooooooooooooooooooooooo",
"ooooooooooooooooooooooooooooooo       oooooo            ooooooo      ooooooooooooooooooooooooooooooo",
"ooooooooooooooooooooooooooooooo       oooooo            ooooooo      ooooooooooooooooooooooooooooooo",
"ooooooooooooooooooooooooooooooo       oooooo            ooooooo      ooooooooooooooooooooooooooooooo",
"ooooooooooooooooooooooooooooooo       oooooo            ooooooo      ooooooooooooooooooooooooooooooo",
"ooooooooooooooooooooooooooooooo       oooooo            ooooooo      ooooooooooooooooooooooooooooooo",
"ooooooooooooooooooooooooooooooo       oooooo            ooooooo      ooooooooooooooooooooooooooooooo",
"ooooooooooooooooooooooooo      .......      ............       ......      ooooooooooooooooooooooooo",
"ooooooooooooooooooooooooo      .......      ............       ......      ooooooooooooooooooooooooo",
"ooooooooooooooooooooooooo      .......      ............       ......      ooooooooooooooooooooooooo",
"ooooooooooooooooooooooooo      .......      ............       ......      ooooooooooooooooooooooooo",
"ooooooooooooooooooooooooo      .......      ............       ......      ooooooooooooooooooooooooo",
"ooooooooooooooooooooooooo      .......      ............       ......      ooooooooooooooooooooooooo",
"ooooooooooooo            .............      ............       ............             oooooooooooo",
"ooooooooooooo            .............      ............       ............             oooooooooooo",
"ooooooooooooo            .............      ............       ............             oooooooooooo",
"ooooooooooooo            .............      ............       ............             oooooooooooo",
"ooooooooooooo            .............      ............       ............             oooooooooooo",
"ooooooooooooo            .............      ............       ............             oooooooooooo",
"oooooo       ............      ...................      .............      .............      oooooo",
"oooooo       ............      ...................      .............      .............      oooooo",
"oooooo       ............      ...................      .............      .............      oooooo",
"oooooo       ............      ...................      .............      .............      oooooo",
"oooooo       ............      ...................      .............      .............      oooooo",
"oooooo       ............      ...................      .............      .............      oooooo",
"ooooooooooooo      ..............................................................       oooooooooooo",
"ooooooooooooo      ..............................................................       oooooooooooo",
"ooooooooooooo      ..............................................................       oooooooooooo",
"ooooooooooooo      ..............................................................       oooooooooooo",
"ooooooooooooo      ..............................................................       oooooooooooo",
"ooooooooooooo      ..............................................................       oooooooooooo",
"ooooooooooooo      ..............................................................       oooooooooooo",
"ooooooooooooo      ......             ......            .......            ......       oooooooooooo",
"ooooooooooooo      ......             ......            .......            ......       oooooooooooo",
"ooooooooooooo      ......             ......            .......            ......       oooooooooooo",
"ooooooooooooo      ......             ......            .......            ......       oooooooooooo",
"ooooooooooooo      ......             ......            .......            ......       oooooooooooo",
"ooooooooooooo      ......             ......            .......            ......       oooooooooooo",
"oooooo       XXXXXX      XXXXXX       XXXXXXXXXXXXXXXXXXXXXXXXX      XXXXXX      XXXXXXX      oooooo",
"oooooo       XXXXXX      XXXXXX       XXXXXXXXXXXXXXXXXXXXXXXXX      XXXXXX      XXXXXXX      oooooo",
"oooooo       XXXXXX      XXXXXX       XXXXXXXXXXXXXXXXXXXXXXXXX      XXXXXX      XXXXXXX      oooooo",
"oooooo       XXXXXX      XXXXXX       XXXXXXXXXXXXXXXXXXXXXXXXX      XXXXXX      XXXXXXX      oooooo",
"oooooo       XXXXXX      XXXXXX       XXXXXXXXXXXXXXXXXXXXXXXXX      XXXXXX      XXXXXXX      oooooo",
"oooooo       XXXXXX      XXXXXX       XXXXXXXXXXXXXXXXXXXXXXXXX      XXXXXX      XXXXXXX      oooooo",
"oooooo       XXXXXX......XXXXXXXXXXXXX      XXXXXXXXXXXX       XXXXXXXXXXXX......XXXXXXX      oooooo",
"oooooo       XXXXXX......XXXXXXXXXXXXX      XXXXXXXXXXXX       XXXXXXXXXXXX......XXXXXXX      oooooo",
"oooooo       XXXXXX......XXXXXXXXXXXXX      XXXXXXXXXXXX       XXXXXXXXXXXX......XXXXXXX      oooooo",
"oooooo       XXXXXX......XXXXXXXXXXXXX      XXXXXXXXXXXX       XXXXXXXXXXXX......XXXXXXX      oooooo",
"oooooo       XXXXXX......XXXXXXXXXXXXX      XXXXXXXXXXXX       XXXXXXXXXXXX......XXXXXXX      oooooo",
"oooooo       XXXXXX......XXXXXXXXXXXXX      XXXXXXXXXXXX       XXXXXXXXXXXX......XXXXXXX      oooooo",
"oooooo                   XXXXXXXXXXXXX      XXXXXXXXXXXX       XXXXXXXXXXXX             oooooooooooo",
"oooooo                   XXXXXXXXXXXXX      XXXXXXXXXXXX       XXXXXXXXXXXX             oooooooooooo",
"oooooo                   XXXXXXXXXXXXX      XXXXXXXXXXXX       XXXXXXXXXXXX             oooooooooooo",
"oooooo                   XXXXXXXXXXXXX      XXXXXXXXXXXX       XXXXXXXXXXXX             oooooooooooo",
"oooooo                   XXXXXXXXXXXXX      XXXXXXXXXXXX       XXXXXXXXXXXX             oooooooooooo",
"oooooo                   XXXXXXXXXXXXX      XXXXXXXXXXXX       XXXXXXXXXXXX             oooooooooooo",
"oooooo                   XXXXXXXXXXXXX      XXXXXXXXXXXX       XXXXXXXXXXXX             oooooooooooo",
"oooooo       XXXXXX            XXXXXXXXXXXXX............XXXXXXXXXXXXX                   oooooooooooo",
"oooooo       XXXXXX            XXXXXXXXXXXXX............XXXXXXXXXXXXX                   oooooooooooo",
"oooooo       XXXXXX            XXXXXXXXXXXXX............XXXXXXXXXXXXX                   oooooooooooo",
"oooooo       XXXXXX            XXXXXXXXXXXXX............XXXXXXXXXXXXX                   oooooooooooo",
"oooooo       XXXXXX            XXXXXXXXXXXXX............XXXXXXXXXXXXX                   oooooooooooo",
"oooooo       XXXXXX            XXXXXXXXXXXXX............XXXXXXXXXXXXX                   oooooooooooo",
"ooooooooooooo                                                                           oooooooooooo",
"ooooooooooooo                                                                           oooooooooooo",
"ooooooooooooo                                                                           oooooooooooo",
"ooooooooooooo                                                                           oooooooooooo",
"ooooooooooooo                                                                           oooooooooooo",
"ooooooooooooo                                                                           oooooooooooo",
"ooooooooooooooooooooooooo      XXXXXXX      XXXXXXXXXXXX       XXXXXXXXXXXX      ooooooooooooooooooo",
"ooooooooooooooooooooooooo      XXXXXXX      XXXXXXXXXXXX       XXXXXXXXXXXX      ooooooooooooooooooo",
"ooooooooooooooooooooooooo      XXXXXXX      XXXXXXXXXXXX       XXXXXXXXXXXX      ooooooooooooooooooo",
"ooooooooooooooooooooooooo      XXXXXXX      XXXXXXXXXXXX       XXXXXXXXXXXX      ooooooooooooooooooo",
"ooooooooooooooooooooooooo      XXXXXXX      XXXXXXXXXXXX       XXXXXXXXXXXX      ooooooooooooooooooo",
"ooooooooooooooooooooooooo      XXXXXXX      XXXXXXXXXXXX       XXXXXXXXXXXX      ooooooooooooooooooo",
"ooooooooooooooooooooooooo                                      XXXXXXXXXXXX      ooooooooooooooooooo",
"ooooooooooooooooooooooooo                                      XXXXXXXXXXXX      ooooooooooooooooooo",
"ooooooooooooooooooooooooo                                      XXXXXXXXXXXX      ooooooooooooooooooo",
"ooooooooooooooooooooooooo                                      XXXXXXXXXXXX      ooooooooooooooooooo",
"ooooooooooooooooooooooooo                                      XXXXXXXXXXXX      ooooooooooooooooooo",
"ooooooooooooooooooooooooo                                      XXXXXXXXXXXX      ooooooooooooooooooo",
"ooooooooooooooooooooooooo                                      XXXXXXXXXXXX      ooooooooooooooooooo",
"ooooooooooooooooooooooooo      XXXXXXX......            ooooooo            ooooooooooooooooooooooooo",
"ooooooooooooooooooooooooo      XXXXXXX......            ooooooo            ooooooooooooooooooooooooo",
"ooooooooooooooooooooooooo      XXXXXXX......            ooooooo            ooooooooooooooooooooooooo",
"ooooooooooooooooooooooooo      XXXXXXX......            ooooooo            ooooooooooooooooooooooooo",
"ooooooooooooooooooooooooo      XXXXXXX......            ooooooo            ooooooooooooooooooooooooo",
"ooooooooooooooooooooooooo      XXXXXXX......            ooooooo            ooooooooooooooooooooooooo",
"ooooooooooooooooooooooooooooooo                   oooooooooooooooooooooooooooooooooooooooooooooooooo",
"ooooooooooooooooooooooooooooooo                   oooooooooooooooooooooooooooooooooooooooooooooooooo",
"ooooooooooooooooooooooooooooooo                   oooooooooooooooooooooooooooooooooooooooooooooooooo",
"ooooooooooooooooooooooooooooooo                   oooooooooooooooooooooooooooooooooooooooooooooooooo",
"ooooooooooooooooooooooooooooooo                   oooooooooooooooooooooooooooooooooooooooooooooooooo",
"ooooooooooooooooooooooooooooooo                   oooooooooooooooooooooooooooooooooooooooooooooooooo"
};
