/* XPM */
static char *result[] = {
/* columns rows colors chars-per-pixel */
"100 100 4 1 ",
"  c black",
". c #61AE1E",
"X c #EE9D5C",
"o c None",
/* pixels */
"oooooooooooooooooooooooooooooooooooooooooooooooooooooooooooooooooooooooooooooooooooooooooooooooooooo",
"oooooooooooooooooooooooooooooooooooooooooooooooooooooooooooooooooooooooooooooooooooooooooooooooooooo",
"oooooooooooooooooooooooooooooooooooooooooooooooooooooooooooooooooooooooooooooooooooooooooooooooooooo",
"oooooooooooooooooooooooooooooooooooooooooooooooooooooooooooooooooooooooooooooooooooooooooooooooooooo",
"oooooooooooooooooooooooooooooooooooooooooooooooooooooooooooooooooooooooooooooooooooooooooooooooooooo",
"oooooooooooooooooooooooooooooooooooooooooooooooooooooooooooooooooooooooooooooooooooooooooooooooooooo",
"ooooooooooooooooooooooooooooooo      ooooooo            oooooo       ooooooooooooooooooooooooooooooo",
"ooooooooooooooooooooooooooooooo      ooooooo            oooooo       ooooooooooooooooooooooooooooooo",
"ooooooooooooooooooooooooooooooo      ooooooo            oooooo       ooooooooooooooooooooooooooooooo",
"ooooooooooooooooooooooooooooooo      ooooooo            oooooo       ooooooooooooooooooooooooooooooo",
"ooooooooooooooooooooooooooooooo      ooooooo            oooooo       ooooooooooooooooooooooooooooooo",
"ooooooooooooooooooooooooooooooo      ooooooo            oooooo       ooooooooooooooooooooooooooooooo",
"ooooooooooooooooooooooooooooooo      ooooooo            oooooo       ooooooooooooooooooooooooooooooo",
"ooooooooooooooooooooooooo      ......       ............      .......      ooooooooooooooooooooooooo",
"ooooooooooooooooooooooooo      ......       ............      .......      ooooooooooooooooooooooooo",
"ooooooooooooooooooooooooo      ......       ............      .......      ooooooooooooooooooooooooo",
"ooooooooooooooooooooooooo      ......       ............      .......      ooooooooooooooooooooooooo",
"ooooooooooooooooooooooooo      ......       ............      .......      ooooooooooooooooooooooooo",
"ooooooooooooooooooooooooo      ......       ............      .......      ooooooooooooooooooooooooo",
"oooooooooooo             ......                   ......             ......            ooooooooooooo",
"oooooooooooo             ......                   ......             ......            ooooooooooooo",
"oooooooooooo             ......                   ......             ......            ooooooooooooo",
"oooooooooooo             ......                   ......             ......            ooooooooooooo",
"oooooooooooo             ......                   ......             ......            ooooooooooooo",
"oooooooooooo             ......                   ......             ......            ooooooooooooo",
"oooooo      .............                                                  ............       oooooo",
"oooooo      .............                                                  ............       oooooo",
"oooooo      .............                                                  ............       oooooo",
"oooooo      .............                                                  ............       oooooo",
"oooooo      .............                                                  ............       oooooo",
"oooooo      .............                                                  ............       oooooo",
"oooooooooooo       ......                                                  ......      ooooooooooooo",
"oooooooooooo       ......                                                  ......      ooooooooooooo",
"oooooooooooo       ......                                                  ......      ooooooooooooo",
"oooooooooooo       ......                                                  ......      ooooooooooooo",
"oooooooooooo       ......                                                  ......      ooooooooooooo",
"oooooooooooo       ......                                                  ......      ooooooooooooo",
"oooooooooooo       ......                                                  ......      ooooooooooooo",
"oooooooooooo                                                                           ooooooooooooo",
"oooooooooooo                                                                           ooooooooooooo",
"oooooooooooo                                                                           ooooooooooooo",
"oooooooooooo                                                                           ooooooooooooo",
"oooooooooooo                                                                           ooooooooooooo",
"oooooooooooo                                                                           ooooooooooooo",
"oooooo      XXXXXXX                                                              XXXXXX       oooooo",
"oooooo      XXXXXXX                                                              XXXXXX       oooooo",
"oooooo      XXXXXXX                                                              XXXXXX       oooooo",
"oooooo      XXXXXXX                                                              XXXXXX       oooooo",
"oooooo      XXXXXXX                                                              XXXXXX       oooooo",
"oooooo      XXXXXXX                                                              XXXXXX       oooooo",
"oooooo      XXXXXXX                                                              XXXXXX       oooooo",
"oooooo      XXXXXXX                                                              XXXXXX       oooooo",
"oooooo      XXXXXXX                                                              XXXXXX       oooooo",
"oooooo      XXXXXXX                                                              XXXXXX       oooooo",
"oooooo      XXXXXXX                                                              XXXXXX       oooooo",
"oooooo      XXXXXXX                                                              XXXXXX       oooooo",
"oooooooooooo             XXXXXX......                         .......XXXXXX                   oooooo",
"oooooooooooo             XXXXXX......                         .......XXXXXX                   oooooo",
"oooooooooooo             XXXXXX......                         .......XXXXXX                   oooooo",
"oooooooooooo             XXXXXX......                         .......XXXXXX                   oooooo",
"oooooooooooo             XXXXXX......                         .......XXXXXX                   oooooo",
"oooooooooooo             XXXXXX......                         .......XXXXXX                   oooooo",
"oooooooooooo             XXXXXX......                         .......XXXXXX                   oooooo",
"oooooooooooo                   XXXXXXXXXXXXX............XXXXXXXXXXXXX            XXXXXX       oooooo",
"oooooooooooo                   XXXXXXXXXXXXX............XXXXXXXXXXXXX            XXXXXX       oooooo",
"oooooooooooo                   XXXXXXXXXXXXX............XXXXXXXXXXXXX            XXXXXX       oooooo",
"oooooooooooo                   XXXXXXXXXXXXX............XXXXXXXXXXXXX            XXXXXX       oooooo",
"oooooooooooo                   XXXXXXXXXXXXX............XXXXXXXXXXXXX            XXXXXX       oooooo",
"oooooooooooo                   XXXXXXXXXXXXX............XXXXXXXXXXXXX            XXXXXX       oooooo",
"oooooo      XXXXXXXXXXXXX                                            XXXXXX            ooooooooooooo",
"oooooo      XXXXXXXXXXXXX                                            XXXXXX            ooooooooooooo",
"oooooo      XXXXXXXXXXXXX                                            XXXXXX            ooooooooooooo",
"oooooo      XXXXXXXXXXXXX                                            XXXXXX            ooooooooooooo",
"oooooo      XXXXXXXXXXXXX                                            XXXXXX            ooooooooooooo",
"oooooo      XXXXXXXXXXXXX                                            XXXXXX            ooooooooooooo",
"oooooo      XXXXXXXXXXXXX            XXXXXXXXXXXXXXXXXXXXXXXXX                   ooooooooooooooooooo",
"oooooo      XXXXXXXXXXXXX            XXXXXXXXXXXXXXXXXXXXXXXXX                   ooooooooooooooooooo",
"oooooo      XXXXXXXXXXXXX            XXXXXXXXXXXXXXXXXXXXXXXXX                   ooooooooooooooooooo",
"oooooo      XXXXXXXXXXXXX            XXXXXXXXXXXXXXXXXXXXXXXXX                   ooooooooooooooooooo",
"oooooo      XXXXXXXXXXXXX            XXXXXXXXXXXXXXXXXXXXXXXXX                   ooooooooooooooooooo",
"oooooo      XXXXXXXXXXXXX            XXXXXXXXXXXXXXXXXXXXXXXXX                   ooooooooooooooooooo",
"oooooooooooo                                                               ooooooooooooooooooooooooo",
"oooooooooooo                                                               ooooooooooooooooooooooooo",
"oooooooooooo                                                               ooooooooooooooooooooooooo",
"oooooooooooo                                                               ooooooooooooooooooooooooo",
"oooooooooooo                                                               ooooooooooooooooooooooooo",
"oooooooooooo                                                               ooooooooooooooooooooooooo",
"oooooooooooo                                                               ooooooooooooooooooooooooo",
"ooooooooooooooooooooooooooooooooooooo             ............XXXXXXX      ooooooooooooooooooooooooo",
"ooooooooooooooooooooooooooooooooooooo             ............XXXXXXX      ooooooooooooooooooooooooo",
"ooooooooooooooooooooooooooooooooooooo             ............XXXXXXX      ooooooooooooooooooooooooo",
"ooooooooooooooooooooooooooooooooooooo             ............XXXXXXX      ooooooooooooooooooooooooo",
"ooooooooooooooooooooooooooooooooooooo             ............XXXXXXX      ooooooooooooooooooooooooo",
"ooooooooooooooooooooooooooooooooooooo             ............XXXXXXX      ooooooooooooooooooooooooo",
"oooooooooooooooooooooooooooooooooooooooooooooooooo                   ooooooooooooooooooooooooooooooo",
"oooooooooooooooooooooooooooooooooooooooooooooooooo                   ooooooooooooooooooooooooooooooo",
"oooooooooooooooooooooooooooooooooooooooooooooooooo                   ooooooooooooooooooooooooooooooo",
"oooooooooooooooooooooooooooooooooooooooooooooooooo                   ooooooooooooooooooooooooooooooo",
"oooooooooooooooooooooooooooooooooooooooooooooooooo                   ooooooooooooooooooooooooooooooo",
"oooooooooooooooooooooooooooooooooooooooooooooooooo                   ooooooooooooooooooooooooooooooo"
};
