/* XPM */
static char *result[] = {
/* columns rows colors chars-per-pixel */
"100 100 4 1 ",
"  c black",
". c #61AE1E",
"X c #EE9D5C",
"o c None",
/* pixels */
"ooooooooooooooooooooooooooooooo      ooooooo            oooooo       ooooooooooooooooooooooooooooooo",
"ooooooooooooooooooooooooooooooo      ooooooo            oooooo       ooooooooooooooooooooooooooooooo",
"ooooooooooooooooooooooooooooooo      ooooooo            oooooo       ooooooooooooooooooooooooooooooo",
"ooooooooooooooooooooooooooooooo      ooooooo            oooooo       ooooooooooooooooooooooooooooooo",
"ooooooooooooooooooooooooooooooo      ooooooo            oooooo       ooooooooooooooooooooooooooooooo",
"ooooooooooooooooooooooooooooooo      ooooooo            oooooo       ooooooooooooooooooooooooooooooo",
"ooooooooooooooooooooooooo      ......       ............      .......      ooooooooooooooooooooooooo",
"ooooooooooooooooooooooooo      ......       ............      .......      ooooooooooooooooooooooooo",
"ooooooooooooooooooooooooo      ......       ............      .......      ooooooooooooooooooooooooo",
"ooooooooooooooooooooooooo      ......       ............      .......      ooooooooooooooooooooooooo",
"ooooooooooooooooooooooooo      ......       ............      .......      ooooooooooooooooooooooooo",
"ooooooooooooooooooooooooo      ......       ............      .......      ooooooooooooooooooooooooo",
"oooooooooooo             ......             ......                   ......            ooooooooooooo",
"oooooooooooo             ......             ......                   ......            ooooooooooooo",
"oooooooooooo             ......             ......                   ......            ooooooooooooo",
"oooooooooooo             ......             ......                   ......            ooooooooooooo",
"oooooooooooo             ......             ......                   ......            ooooooooooooo",
"oooooooooooo             ......             ......                   ......            ooooooooooooo",
"oooooooooooo             ......             ......                   ......            ooooooooooooo",
"oooooo      .............                                                  ............       oooooo",
"oooooo      .............                                                  ............       oooooo",
"oooooo      .............                                                  ............       oooooo",
"oooooo      .............                                                  ............       oooooo",
"oooooo      .............                                                  ............       oooooo",
"oooooo      .............                                                  ............       oooooo",
"oooooooooooo       ......                                                  ......      ooooooooooooo",
"oooooooooooo       ......                                                  ......      ooooooooooooo",
"oooooooooooo       ......                                                  ......      ooooooooooooo",
"oooooooooooo       ......                                                  ......      ooooooooooooo",
"oooooooooooo       ......                                                  ......      ooooooooooooo",
"oooooooooooo       ......                                                  ......      ooooooooooooo",
"oooooooooooo                                                                           ooooooooooooo",
"oooooooooooo                                                                           ooooooooooooo",
"oooooooooooo                                                                           ooooooooooooo",
"oooooooooooo                                                                           ooooooooooooo",
"oooooooooooo                                                                           ooooooooooooo",
"oooooooooooo                                                                           ooooooooooooo",
"oooooo      XXXXXXX                                                              XXXXXX       oooooo",
"oooooo      XXXXXXX                                                              XXXXXX       oooooo",
"oooooo      XXXXXXX                                                              XXXXXX       oooooo",
"oooooo      XXXXXXX                                                              XXXXXX       oooooo",
"oooooo      XXXXXXX                                                              XXXXXX       oooooo",
"oooooo      XXXXXXX                                                              XXXXXX       oooooo",
"oooooo      XXXXXXX                                                              XXXXXX       oooooo",
"oooooo      XXXXXXX                                                              XXXXXX       oooooo",
"oooooo      XXXXXXX                                                              XXXXXX       oooooo",
"oooooo      XXXXXXX                                                              XXXXXX       oooooo",
"oooooo      XXXXXXX                                                              XXXXXX       oooooo",
"oooooo      XXXXXXX                                                              XXXXXX       oooooo",
"oooooo      XXXXXXX                                                              XXXXXX       oooooo",
"oooooooooooo             XXXXXX......                         .......XXXXXX            ooooooooooooo",
"oooooooooooo             XXXXXX......                         .......XXXXXX            ooooooooooooo",
"oooooooooooo             XXXXXX......                         .......XXXXXX            ooooooooooooo",
"oooooooooooo             XXXXXX......                         .......XXXXXX            ooooooooooooo",
"oooooooooooo             XXXXXX......                         .......XXXXXX            ooooooooooooo",
"oooooooooooo             XXXXXX......                         .......XXXXXX            ooooooooooooo",
"oooooooooooo                   XXXXXXXXXXXXX............XXXXXXXXXXXXX                  ooooooooooooo",
"oooooooooooo                   XXXXXXXXXXXXX............XXXXXXXXXXXXX                  ooooooooooooo",
"oooooooooooo                   XXXXXXXXXXXXX............XXXXXXXXXXXXX                  ooooooooooooo",
"oooooooooooo                   XXXXXXXXXXXXX............XXXXXXXXXXXXX                  ooooooooooooo",
"oooooooooooo                   XXXXXXXXXXXXX............XXXXXXXXXXXXX                  ooooooooooooo",
"oooooooooooo                   XXXXXXXXXXXXX............XXXXXXXXXXXXX                  ooooooooooooo",
"oooooo      XXXXXXX      XXXXXX                                      XXXXXX      XXXXXX       oooooo",
"oooooo      XXXXXXX      XXXXXX                                      XXXXXX      XXXXXX       oooooo",
"oooooo      XXXXXXX      XXXXXX                                      XXXXXX      XXXXXX       oooooo",
"oooooo      XXXXXXX      XXXXXX                                      XXXXXX      XXXXXX       oooooo",
"oooooo      XXXXXXX      XXXXXX                                      XXXXXX      XXXXXX       oooooo",
"oooooo      XXXXXXX      XXXXXX                                      XXXXXX      XXXXXX       oooooo",
"oooooo      XXXXXXX      XXXXXX                                      XXXXXX      XXXXXX       oooooo",
"oooooo      XXXXXXX                  XXXXXXXXXXXXXXXXXXXXXXXXX                   XXXXXX       oooooo",
"oooooo      XXXXXXX                  XXXXXXXXXXXXXXXXXXXXXXXXX                   XXXXXX       oooooo",
"oooooo      XXXXXXX                  XXXXXXXXXXXXXXXXXXXXXXXXX                   XXXXXX       oooooo",
"oooooo      XXXXXXX                  XXXXXXXXXXXXXXXXXXXXXXXXX                   XXXXXX       oooooo",
"oooooo      XXXXXXX                  XXXXXXXXXXXXXXXXXXXXXXXXX                   XXXXXX       oooooo",
"oooooo      XXXXXXX                  XXXXXXXXXXXXXXXXXXXXXXXXX                   XXXXXX       oooooo",
"oooooooooooo                                                                           ooooooooooooo",
"oooooooooooo                                                                           ooooooooooooo",
"oooooooooooo                                                                           ooooooooooooo",
"oooooooooooo                                                                           ooooooooooooo",
"oooooooooooo                                                                           ooooooooooooo",
"oooooooooooo                                                                           ooooooooooooo",
"ooooooooooooooooooo                  .........................                   ooooooooooooooooooo",
"ooooooooooooooooooo                  .........................                   ooooooooooooooooooo",
"ooooooooooooooooooo                  .........................                   ooooooooooooooooooo",
"ooooooooooooooooooo                  .........................                   ooooooooooooooooooo",
"ooooooooooooooooooo                  .........................                   ooooooooooooooooooo",
"ooooooooooooooooooo                  .........................                   ooooooooooooooooooo",
"ooooooooooooooooooo      XXXXXX......                         .......XXXXXX      ooooooooooooooooooo",
"ooooooooooooooooooo      XXXXXX......                         .......XXXXXX      ooooooooooooooooooo",
"ooooooooooooooooooo      XXXXXX......                         .......XXXXXX      ooooooooooooooooooo",
"ooooooooooooooooooo      XXXXXX......                         .......XXXXXX      ooooooooooooooooooo",
"ooooooooooooooooooo      XXXXXX......                         .......XXXXXX      ooooooooooooooooooo",
"ooooooooooooooooooo      XXXXXX......                         .......XXXXXX      ooooooooooooooooooo",
"ooooooooooooooooooo      XXXXXX......                         .......XXXXXX      ooooooooooooooooooo",
"ooooooooooooooooooooooooo                   oooooooooooo                   ooooooooooooooooooooooooo",
"ooooooooooooooooooooooooo                   oooooooooooo                   ooooooooooooooooooooooooo",
"ooooooooooooooooooooooooo                   oooooooooooo                   ooooooooooooooooooooooooo",
"ooooooooooooooooooooooooo                   oooooooooooo                   ooooooooooooooooooooooooo",
"ooooooooooooooooooooooooo                   oooooooooooo                   ooooooooooooooooooooooooo",
"ooooooooooooooooooooooooo                   oooooooooooo                   ooooooooooooooooooooooooo"
};
