/* XPM */
static char *result[] = {
/* columns rows colors chars-per-pixel */
"100 100 4 1 ",
"  c black",
". c #61AE1E",
"X c #EE9D5C",
"o c None",
/* pixels */
"oooooooooooooooooooooooooooooooooooooooooooooooooooooooooooooooooooooooooooooooooooooooooooooooooooo",
"oooooooooooooooooooooooooooooooooooooooooooooooooooooooooooooooooooooooooooooooooooooooooooooooooooo",
"oooooooooooooooooooooooooooooooooooooooooooooooooooooooooooooooooooooooooooooooooooooooooooooooooooo",
"oooooooooooooooooooooooooooooooooooooooooooooooooooooooooooooooooooooooooooooooooooooooooooooooooooo",
"oooooooooooooooooooooooooooooooooooooooooooooooooooooooooooooooooooooooooooooooooooooooooooooooooooo",
"oooooooooooooooooooooooooooooooooooooooooooooooooooooooooooooooooooooooooooooooooooooooooooooooooooo",
"ooooooooooooooooooo      oooooo                                ooooooooooooooooooooooooooooooooooooo",
"ooooooooooooooooooo      oooooo                                ooooooooooooooooooooooooooooooooooooo",
"ooooooooooooooooooo      oooooo                                ooooooooooooooooooooooooooooooooooooo",
"ooooooooooooooooooo      oooooo                                ooooooooooooooooooooooooooooooooooooo",
"ooooooooooooooooooo      oooooo                                ooooooooooooooooooooooooooooooooooooo",
"ooooooooooooooooooo      oooooo                                ooooooooooooooooooooooooooooooooooooo",
"ooooooooooooooooooo      oooooo                                ooooooooooooooooooooooooooooooooooooo",
"ooooooooooooo      ......      .......                                     ooooooooooooooooooooooooo",
"ooooooooooooo      ......      .......                                     ooooooooooooooooooooooooo",
"ooooooooooooo      ......      .......                                     ooooooooooooooooooooooooo",
"ooooooooooooo      ......      .......                                     ooooooooooooooooooooooooo",
"ooooooooooooo      ......      .......                                     ooooooooooooooooooooooooo",
"ooooooooooooo      ......      .......                                     ooooooooooooooooooooooooo",
"ooooooooooooo      .........................                                            oooooooooooo",
"ooooooooooooo      .........................                                            oooooooooooo",
"ooooooooooooo      .........................                                            oooooooooooo",
"ooooooooooooo      .........................                                            oooooooooooo",
"ooooooooooooo      .........................                                            oooooooooooo",
"ooooooooooooo      .........................                                            oooooooooooo",
"ooooooooooooo......      .............                                            oooooooooooooooooo",
"ooooooooooooo......      .............                                            oooooooooooooooooo",
"ooooooooooooo......      .............                                            oooooooooooooooooo",
"ooooooooooooo......      .............                                            oooooooooooooooooo",
"ooooooooooooo......      .............                                            oooooooooooooooooo",
"ooooooooooooo......      .............                                            oooooooooooooooooo",
"ooooooooooooo      ......      .............                                            oooooooooooo",
"ooooooooooooo      ......      .............                                            oooooooooooo",
"ooooooooooooo      ......      .............                                            oooooooooooo",
"ooooooooooooo      ......      .............                                            oooooooooooo",
"ooooooooooooo      ......      .............                                            oooooooooooo",
"ooooooooooooo      ......      .............                                            oooooooooooo",
"ooooooooooooo      ......      .............                                            oooooooooooo",
"ooooooooooooo      ......XXXXXXXXXXXXX      XXXXXX......                                      oooooo",
"ooooooooooooo      ......XXXXXXXXXXXXX      XXXXXX......                                      oooooo",
"ooooooooooooo      ......XXXXXXXXXXXXX      XXXXXX......                                      oooooo",
"ooooooooooooo      ......XXXXXXXXXXXXX      XXXXXX......                                      oooooo",
"ooooooooooooo      ......XXXXXXXXXXXXX      XXXXXX......                                      oooooo",
"ooooooooooooo      ......XXXXXXXXXXXXX      XXXXXX......                                      oooooo",
"ooooooooooooooooooo      XXXXXX       XXXXXXXXXXXX                                      oooooooooooo",
"ooooooooooooooooooo      XXXXXX       XXXXXXXXXXXX                                      oooooooooooo",
"ooooooooooooooooooo      XXXXXX       XXXXXXXXXXXX                                      oooooooooooo",
"ooooooooooooooooooo      XXXXXX       XXXXXXXXXXXX                                      oooooooooooo",
"ooooooooooooooooooo      XXXXXX       XXXXXXXXXXXX                                      oooooooooooo",
"ooooooooooooooooooo      XXXXXX       XXXXXXXXXXXX                                      oooooooooooo",
"ooooooooooooooooooo      XXXXXX       XXXXXXXXXXXX      XXXXXXXXXXXXX             oooooooooooooooooo",
"ooooooooooooooooooo      XXXXXX       XXXXXXXXXXXX      XXXXXXXXXXXXX             oooooooooooooooooo",
"ooooooooooooooooooo      XXXXXX       XXXXXXXXXXXX      XXXXXXXXXXXXX             oooooooooooooooooo",
"ooooooooooooooooooo      XXXXXX       XXXXXXXXXXXX      XXXXXXXXXXXXX             oooooooooooooooooo",
"ooooooooooooooooooo      XXXXXX       XXXXXXXXXXXX      XXXXXXXXXXXXX             oooooooooooooooooo",
"ooooooooooooooooooo      XXXXXX       XXXXXXXXXXXX      XXXXXXXXXXXXX             oooooooooooooooooo",
"ooooooooooooooooooo      XXXXXXXXXXXXXXXXXXXXXXXXXXXXXXXXXXXXXXXXXXXX      ooooooooooooooooooooooooo",
"ooooooooooooooooooo      XXXXXXXXXXXXXXXXXXXXXXXXXXXXXXXXXXXXXXXXXXXX      ooooooooooooooooooooooooo",
"ooooooooooooooooooo      XXXXXXXXXXXXXXXXXXXXXXXXXXXXXXXXXXXXXXXXXXXX      ooooooooooooooooooooooooo",
"ooooooooooooooooooo      XXXXXXXXXXXXXXXXXXXXXXXXXXXXXXXXXXXXXXXXXXXX      ooooooooooooooooooooooooo",
"ooooooooooooooooooo      XXXXXXXXXXXXXXXXXXXXXXXXXXXXXXXXXXXXXXXXXXXX      ooooooooooooooooooooooooo",
"ooooooooooooooooooo      XXXXXXXXXXXXXXXXXXXXXXXXXXXXXXXXXXXXXXXXXXXX      ooooooooooooooooooooooooo",
"ooooooooooooooooooo      XXXXXXXXXXXXXXXXXXXXXXXXXXXXXXXXXXXXXXXXXXXX      ooooooooooooooooooooooooo",
"ooooooooooooooooooooooooo      .......XXXXXXXXXXXXXXXXXX                   ooooooooooooooooooooooooo",
"ooooooooooooooooooooooooo      .......XXXXXXXXXXXXXXXXXX                   ooooooooooooooooooooooooo",
"ooooooooooooooooooooooooo      .......XXXXXXXXXXXXXXXXXX                   ooooooooooooooooooooooooo",
"ooooooooooooooooooooooooo      .......XXXXXXXXXXXXXXXXXX                   ooooooooooooooooooooooooo",
"ooooooooooooooooooooooooo      .......XXXXXXXXXXXXXXXXXX                   ooooooooooooooooooooooooo",
"ooooooooooooooooooooooooo      .......XXXXXXXXXXXXXXXXXX                   ooooooooooooooooooooooooo",
"ooooooooooooooooooooooooooooooo                                            ooooooooooooooooooooooooo",
"ooooooooooooooooooooooooooooooo                                            ooooooooooooooooooooooooo",
"ooooooooooooooooooooooooooooooo                                            ooooooooooooooooooooooooo",
"ooooooooooooooooooooooooooooooo                                            ooooooooooooooooooooooooo",
"ooooooooooooooooooooooooooooooo                                            ooooooooooooooooooooooooo",
"ooooooooooooooooooooooooooooooo                                            ooooooooooooooooooooooooo",
"ooooooooooooooooooo                   XXXXXX            XXXXXXXXXXXXX             oooooooooooooooooo",
"ooooooooooooooooooo                   XXXXXX            XXXXXXXXXXXXX             oooooooooooooooooo",
"ooooooooooooooooooo                   XXXXXX            XXXXXXXXXXXXX             oooooooooooooooooo",
"ooooooooooooooooooo                   XXXXXX            XXXXXXXXXXXXX             oooooooooooooooooo",
"ooooooooooooooooooo                   XXXXXX            XXXXXXXXXXXXX             oooooooooooooooooo",
"ooooooooooooooooooo                   XXXXXX            XXXXXXXXXXXXX             oooooooooooooooooo",
"ooooooooooooooooooo                   XXXXXX            XXXXXXXXXXXXX             oooooooooooooooooo",
"ooooooooooooo      ......XXXXXX       ............      XXXXXXXXXXXXX      .......      oooooooooooo",
"ooooooooooooo      ......XXXXXX       ............      XXXXXXXXXXXXX      .......      oooooooooooo",
"ooooooooooooo      ......XXXXXX       ............      XXXXXXXXXXXXX      .......      oooooooooooo",
"ooooooooooooo      ......XXXXXX       ............      XXXXXXXXXXXXX      .......      oooooooooooo",
"ooooooooooooo      ......XXXXXX       ............      XXXXXXXXXXXXX      .......      oooooooooooo",
"ooooooooooooo      ......XXXXXX       ............      XXXXXXXXXXXXX      .......      oooooooooooo",
"ooooooooooooooooooo      .............                               XXXXXX.......      oooooooooooo",
"ooooooooooooooooooo      .............                               XXXXXX.......      oooooooooooo",
"ooooooooooooooooooo      .............                               XXXXXX.......      oooooooooooo",
"ooooooooooooooooooo      .............                               XXXXXX.......      oooooooooooo",
"ooooooooooooooooooo      .............                               XXXXXX.......      oooooooooooo",
"ooooooooooooooooooo      .............                               XXXXXX.......      oooooooooooo",
"ooooooooooooooooooooooooo                   ooooooooooooooooooooooooo             oooooooooooooooooo",
"ooooooooooooooooooooooooo                   ooooooooooooooooooooooooo             oooooooooooooooooo",
"ooooooooooooooooooooooooo                   ooooooooooooooooooooooooo             oooooooooooooooooo",
"ooooooooooooooooooooooooo                   ooooooooooooooooooooooooo             oooooooooooooooooo",
"ooooooooooooooooooooooooo                   ooooooooooooooooooooooooo             oooooooooooooooooo",
"ooooooooooooooooooooooooo                   ooooooooooooooooooooooooo             oooooooooooooooooo"
};
