/* XPM */
static char *result[] = {
/* columns rows colors chars-per-pixel */
"100 100 4 1 ",
"  c black",
". c #61AE1E",
"X c #EE9D5C",
"o c None",
/* pixels */
"ooooooooooooooooooo      oooooo                                ooooooooooooooooooooooooooooooooooooo",
"ooooooooooooooooooo      oooooo                                ooooooooooooooooooooooooooooooooooooo",
"ooooooooooooooooooo      oooooo                                ooooooooooooooooooooooooooooooooooooo",
"ooooooooooooooooooo      oooooo                                ooooooooooooooooooooooooooooooooooooo",
"ooooooooooooooooooo      oooooo                                ooooooooooooooooooooooooooooooooooooo",
"ooooooooooooooooooo      oooooo                                ooooooooooooooooooooooooooooooooooooo",
"ooooooooooooo      ......      .......                                     ooooooooooooooooooooooooo",
"ooooooooooooo      ......      .......                                     ooooooooooooooooooooooooo",
"ooooooooooooo      ......      .......                                     ooooooooooooooooooooooooo",
"ooooooooooooo      ......      .......                                     ooooooooooooooooooooooooo",
"ooooooooooooo      ......      .......                                     ooooooooooooooooooooooooo",
"ooooooooooooo      ......      .......                                     ooooooooooooooooooooooooo",
"ooooooooooooo      ......      .......                                     ooooooooooooooooooooooooo",
"ooooooooooooo      .........................                                            oooooooooooo",
"ooooooooooooo      .........................                                            oooooooooooo",
"ooooooooooooo      .........................                                            oooooooooooo",
"ooooooooooooo      .........................                                            oooooooooooo",
"ooooooooooooo      .........................                                            oooooooooooo",
"ooooooooooooo      .........................                                            oooooooooooo",
"ooooooooooooo......      .............                                            oooooooooooooooooo",
"ooooooooooooo......      .............                                            oooooooooooooooooo",
"ooooooooooooo......      .............                                            oooooooooooooooooo",
"ooooooooooooo......      .............                                            oooooooooooooooooo",
"ooooooooooooo......      .............                                            oooooooooooooooooo",
"ooooooooooooo......      .............                                            oooooooooooooooooo",
"ooooooooooooo      ......      .............                                            oooooooooooo",
"ooooooooooooo      ......      .............                                            oooooooooooo",
"ooooooooooooo      ......      .............                                            oooooooooooo",
"ooooooooooooo      ......      .............                                            oooooooooooo",
"ooooooooooooo      ......      .............                                            oooooooooooo",
"ooooooooooooo      ......      .............                                            oooooooooooo",
"ooooooooooooo      ......XXXXXXXXXXXXX      XXXXXX.......                                     oooooo",
"ooooooooooooo      ......XXXXXXXXXXXXX      XXXXXX.......                                     oooooo",
"ooooooooooooo      ......XXXXXXXXXXXXX      XXXXXX.......                                     oooooo",
"ooooooooooooo      ......XXXXXXXXXXXXX      XXXXXX.......                                     oooooo",
"ooooooooooooo      ......XXXXXXXXXXXXX      XXXXXX.......                                     oooooo",
"ooooooooooooo      ......XXXXXXXXXXXXX      XXXXXX.......                                     oooooo",
"ooooooooooooo      ......XXXXXXXXXXXXX      XXXXXX.......                                     oooooo",
"ooooooooooooooooooo      XXXXXX       XXXXXXXXXXXX                                      oooooooooooo",
"ooooooooooooooooooo      XXXXXX       XXXXXXXXXXXX                                      oooooooooooo",
"ooooooooooooooooooo      XXXXXX       XXXXXXXXXXXX                                      oooooooooooo",
"ooooooooooooooooooo      XXXXXX       XXXXXXXXXXXX                                      oooooooooooo",
"ooooooooooooooooooo      XXXXXX       XXXXXXXXXXXX                                      oooooooooooo",
"ooooooooooooooooooo      XXXXXX       XXXXXXXXXXXX                                      oooooooooooo",
"ooooooooooooooooooo      XXXXXX       XXXXXXXXXXXX       XXXXXXXXXXXX             oooooooooooooooooo",
"ooooooooooooooooooo      XXXXXX       XXXXXXXXXXXX       XXXXXXXXXXXX             oooooooooooooooooo",
"ooooooooooooooooooo      XXXXXX       XXXXXXXXXXXX       XXXXXXXXXXXX             oooooooooooooooooo",
"ooooooooooooooooooo      XXXXXX       XXXXXXXXXXXX       XXXXXXXXXXXX             oooooooooooooooooo",
"ooooooooooooooooooo      XXXXXX       XXXXXXXXXXXX       XXXXXXXXXXXX             oooooooooooooooooo",
"ooooooooooooooooooo      XXXXXX       XXXXXXXXXXXX       XXXXXXXXXXXX             oooooooooooooooooo",
"ooooooooooooooooooo      XXXXXXXXXXXXXXXXXXXXXXXXXXXXXXXXXXXXXXXXXXXX      ooooooooooooooooooooooooo",
"ooooooooooooooooooo      XXXXXXXXXXXXXXXXXXXXXXXXXXXXXXXXXXXXXXXXXXXX      ooooooooooooooooooooooooo",
"ooooooooooooooooooo      XXXXXXXXXXXXXXXXXXXXXXXXXXXXXXXXXXXXXXXXXXXX      ooooooooooooooooooooooooo",
"ooooooooooooooooooo      XXXXXXXXXXXXXXXXXXXXXXXXXXXXXXXXXXXXXXXXXXXX      ooooooooooooooooooooooooo",
"ooooooooooooooooooo      XXXXXXXXXXXXXXXXXXXXXXXXXXXXXXXXXXXXXXXXXXXX      ooooooooooooooooooooooooo",
"ooooooooooooooooooo      XXXXXXXXXXXXXXXXXXXXXXXXXXXXXXXXXXXXXXXXXXXX      ooooooooooooooooooooooooo",
"ooooooooooooooooooo      XXXXXXXXXXXXXXXXXXXXXXXXXXXXXXXXXXXXXXXXXXXX      ooooooooooooooooooooooooo",
"ooooooooooooooooooooooooo      .......XXXXXXXXXXXXXXXXXXX                  ooooooooooooooooooooooooo",
"ooooooooooooooooooooooooo      .......XXXXXXXXXXXXXXXXXXX                  ooooooooooooooooooooooooo",
"ooooooooooooooooooooooooo      .......XXXXXXXXXXXXXXXXXXX                  ooooooooooooooooooooooooo",
"ooooooooooooooooooooooooo      .......XXXXXXXXXXXXXXXXXXX                  ooooooooooooooooooooooooo",
"ooooooooooooooooooooooooo      .......XXXXXXXXXXXXXXXXXXX                  ooooooooooooooooooooooooo",
"ooooooooooooooooooooooooo      .......XXXXXXXXXXXXXXXXXXX                  ooooooooooooooooooooooooo",
"ooooooooooooooooooooooooooooooo                                            ooooooooooooooooooooooooo",
"ooooooooooooooooooooooooooooooo                                            ooooooooooooooooooooooooo",
"ooooooooooooooooooooooooooooooo                                            ooooooooooooooooooooooooo",
"ooooooooooooooooooooooooooooooo                                            ooooooooooooooooooooooooo",
"ooooooooooooooooooooooooooooooo                                            ooooooooooooooooooooooooo",
"ooooooooooooooooooooooooooooooo                                            ooooooooooooooooooooooooo",
"oooooooooooooooooooooooooooooooooooooo            XXXXXXXXXXXXX            ooooooooooooooooooooooooo",
"oooooooooooooooooooooooooooooooooooooo            XXXXXXXXXXXXX            ooooooooooooooooooooooooo",
"oooooooooooooooooooooooooooooooooooooo            XXXXXXXXXXXXX            ooooooooooooooooooooooooo",
"oooooooooooooooooooooooooooooooooooooo            XXXXXXXXXXXXX            ooooooooooooooooooooooooo",
"oooooooooooooooooooooooooooooooooooooo            XXXXXXXXXXXXX            ooooooooooooooooooooooooo",
"oooooooooooooooooooooooooooooooooooooo            XXXXXXXXXXXXX            ooooooooooooooooooooooooo",
"oooooooooooooooooooooooooooooooooooooo            XXXXXXXXXXXXX            ooooooooooooooooooooooooo",
"oooooooooooooooooooooooooooooooooooooo            XXXXXXXXXXXXX            ooooooooooooooooooooooooo",
"oooooooooooooooooooooooooooooooooooooo            XXXXXXXXXXXXX            ooooooooooooooooooooooooo",
"oooooooooooooooooooooooooooooooooooooo            XXXXXXXXXXXXX            ooooooooooooooooooooooooo",
"oooooooooooooooooooooooooooooooooooooo            XXXXXXXXXXXXX            ooooooooooooooooooooooooo",
"oooooooooooooooooooooooooooooooooooooo            XXXXXXXXXXXXX            ooooooooooooooooooooooooo",
"oooooooooooooooooooooooooooooooooooooo            XXXXXXXXXXXXX            ooooooooooooooooooooooooo",
"ooooooooooooooooooooooooooooooo       XXXXXXXXXXXX                         ooooooooooooooooooooooooo",
"ooooooooooooooooooooooooooooooo       XXXXXXXXXXXX                         ooooooooooooooooooooooooo",
"ooooooooooooooooooooooooooooooo       XXXXXXXXXXXX                         ooooooooooooooooooooooooo",
"ooooooooooooooooooooooooooooooo       XXXXXXXXXXXX                         ooooooooooooooooooooooooo",
"ooooooooooooooooooooooooooooooo       XXXXXXXXXXXX                         ooooooooooooooooooooooooo",
"ooooooooooooooooooooooooooooooo       XXXXXXXXXXXX                         ooooooooooooooooooooooooo",
"ooooooooooooooooooooooooooooooo       .........................      ooooooooooooooooooooooooooooooo",
"ooooooooooooooooooooooooooooooo       .........................      ooooooooooooooooooooooooooooooo",
"ooooooooooooooooooooooooooooooo       .........................      ooooooooooooooooooooooooooooooo",
"ooooooooooooooooooooooooooooooo       .........................      ooooooooooooooooooooooooooooooo",
"ooooooooooooooooooooooooooooooo       .........................      ooooooooooooooooooooooooooooooo",
"ooooooooooooooooooooooooooooooo       .........................      ooooooooooooooooooooooooooooooo",
"oooooooooooooooooooooooooooooooooooooo                         ooooooooooooooooooooooooooooooooooooo",
"oooooooooooooooooooooooooooooooooooooo                         ooooooooooooooooooooooooooooooooooooo",
"oooooooooooooooooooooooooooooooooooooo                         ooooooooooooooooooooooooooooooooooooo",
"oooooooooooooooooooooooooooooooooooooo                         ooooooooooooooooooooooooooooooooooooo",
"oooooooooooooooooooooooooooooooooooooo                         ooooooooooooooooooooooooooooooooooooo",
"oooooooooooooooooooooooooooooooooooooo                         ooooooooooooooooooooooooooooooooooooo"
};
