/* XPM */
static char *result[] = {
/* columns rows colors chars-per-pixel */
"100 100 4 1 ",
"  c black",
". c #61AE1E",
"X c #EE9D5C",
"o c None",
/* pixels */
"oooooooooooooooooooooooooooooooooooooooooooooooooooooooooooooooooooooooooooooooooooooooooooooooooooo",
"oooooooooooooooooooooooooooooooooooooooooooooooooooooooooooooooooooooooooooooooooooooooooooooooooooo",
"oooooooooooooooooooooooooooooooooooooooooooooooooooooooooooooooooooooooooooooooooooooooooooooooooooo",
"oooooooooooooooooooooooooooooooooooooooooooooooooooooooooooooooooooooooooooooooooooooooooooooooooooo",
"oooooooooooooooooooooooooooooooooooooooooooooooooooooooooooooooooooooooooooooooooooooooooooooooooooo",
"oooooooooooooooooooooooooooooooooooooooooooooooooooooooooooooooooooooooooooooooooooooooooooooooooooo",
"ooooooooooooooooooooooooooooooo       oooooo            ooooooo      ooooooooooooooooooooooooooooooo",
"ooooooooooooooooooooooooooooooo       oooooo            ooooooo      ooooooooooooooooooooooooooooooo",
"ooooooooooooooooooooooooooooooo       oooooo            ooooooo      ooooooooooooooooooooooooooooooo",
"ooooooooooooooooooooooooooooooo       oooooo            ooooooo      ooooooooooooooooooooooooooooooo",
"ooooooooooooooooooooooooooooooo       oooooo            ooooooo      ooooooooooooooooooooooooooooooo",
"ooooooooooooooooooooooooooooooo       oooooo            ooooooo      ooooooooooooooooooooooooooooooo",
"ooooooooooooooooooooooooooooooo       oooooo            ooooooo      ooooooooooooooooooooooooooooooo",
"ooooooooooooooooooooooooo      .......      ............       ......      ooooooooooooooooooooooooo",
"ooooooooooooooooooooooooo      .......      ............       ......      ooooooooooooooooooooooooo",
"ooooooooooooooooooooooooo      .......      ............       ......      ooooooooooooooooooooooooo",
"ooooooooooooooooooooooooo      .......      ............       ......      ooooooooooooooooooooooooo",
"ooooooooooooooooooooooooo      .......      ............       ......      ooooooooooooooooooooooooo",
"ooooooooooooooooooooooooo      .......      ............       ......      ooooooooooooooooooooooooo",
"ooooooooooooo            ......             ......                   ......             oooooooooooo",
"ooooooooooooo            ......             ......                   ......             oooooooooooo",
"ooooooooooooo            ......             ......                   ......             oooooooooooo",
"ooooooooooooo            ......             ......                   ......             oooooooooooo",
"ooooooooooooo            ......             ......                   ......             oooooooooooo",
"ooooooooooooo            ......             ......                   ......             oooooooooooo",
"oooooo       ............                                                  .............      oooooo",
"oooooo       ............                                                  .............      oooooo",
"oooooo       ............                                                  .............      oooooo",
"oooooo       ............                                                  .............      oooooo",
"oooooo       ............                                                  .............      oooooo",
"oooooo       ............                                                  .............      oooooo",
"ooooooooooooo      ......                                                  ......       oooooooooooo",
"ooooooooooooo      ......                                                  ......       oooooooooooo",
"ooooooooooooo      ......                                                  ......       oooooooooooo",
"ooooooooooooo      ......                                                  ......       oooooooooooo",
"ooooooooooooo      ......                                                  ......       oooooooooooo",
"ooooooooooooo      ......                                                  ......       oooooooooooo",
"ooooooooooooo      ......                                                  ......       oooooooooooo",
"ooooooooooooo                                                                           oooooooooooo",
"ooooooooooooo                                                                           oooooooooooo",
"ooooooooooooo                                                                           oooooooooooo",
"ooooooooooooo                                                                           oooooooooooo",
"ooooooooooooo                                                                           oooooooooooo",
"ooooooooooooo                                                                           oooooooooooo",
"oooooo       XXXXXX                                                              XXXXXXX      oooooo",
"oooooo       XXXXXX                                                              XXXXXXX      oooooo",
"oooooo       XXXXXX                                                              XXXXXXX      oooooo",
"oooooo       XXXXXX                                                              XXXXXXX      oooooo",
"oooooo       XXXXXX                                                              XXXXXXX      oooooo",
"oooooo       XXXXXX                                                              XXXXXXX      oooooo",
"oooooo       XXXXXX                                                              XXXXXXX      oooooo",
"oooooo       XXXXXX                                                              XXXXXXX      oooooo",
"oooooo       XXXXXX                                                              XXXXXXX      oooooo",
"oooooo       XXXXXX                                                              XXXXXXX      oooooo",
"oooooo       XXXXXX                                                              XXXXXXX      oooooo",
"oooooo       XXXXXX                                                              XXXXXXX      oooooo",
"oooooo                   XXXXXX.......                         ......XXXXXX             oooooooooooo",
"oooooo                   XXXXXX.......                         ......XXXXXX             oooooooooooo",
"oooooo                   XXXXXX.......                         ......XXXXXX             oooooooooooo",
"oooooo                   XXXXXX.......                         ......XXXXXX             oooooooooooo",
"oooooo                   XXXXXX.......                         ......XXXXXX             oooooooooooo",
"oooooo                   XXXXXX.......                         ......XXXXXX             oooooooooooo",
"oooooo                   XXXXXX.......                         ......XXXXXX             oooooooooooo",
"oooooo       XXXXXX            XXXXXXXXXXXXX............XXXXXXXXXXXXX                   oooooooooooo",
"oooooo       XXXXXX            XXXXXXXXXXXXX............XXXXXXXXXXXXX                   oooooooooooo",
"oooooo       XXXXXX            XXXXXXXXXXXXX............XXXXXXXXXXXXX                   oooooooooooo",
"oooooo       XXXXXX            XXXXXXXXXXXXX............XXXXXXXXXXXXX                   oooooooooooo",
"oooooo       XXXXXX            XXXXXXXXXXXXX............XXXXXXXXXXXXX                   oooooooooooo",
"oooooo       XXXXXX            XXXXXXXXXXXXX............XXXXXXXXXXXXX                   oooooooooooo",
"ooooooooooooo            XXXXXX                                            XXXXXXXXXXXXX      oooooo",
"ooooooooooooo            XXXXXX                                            XXXXXXXXXXXXX      oooooo",
"ooooooooooooo            XXXXXX                                            XXXXXXXXXXXXX      oooooo",
"ooooooooooooo            XXXXXX                                            XXXXXXXXXXXXX      oooooo",
"ooooooooooooo            XXXXXX                                            XXXXXXXXXXXXX      oooooo",
"ooooooooooooo            XXXXXX                                            XXXXXXXXXXXXX      oooooo",
"ooooooooooooooooooo                   XXXXXXXXXXXXXXXXXXXXXXXXX            XXXXXXXXXXXXX      oooooo",
"ooooooooooooooooooo                   XXXXXXXXXXXXXXXXXXXXXXXXX            XXXXXXXXXXXXX      oooooo",
"ooooooooooooooooooo                   XXXXXXXXXXXXXXXXXXXXXXXXX            XXXXXXXXXXXXX      oooooo",
"ooooooooooooooooooo                   XXXXXXXXXXXXXXXXXXXXXXXXX            XXXXXXXXXXXXX      oooooo",
"ooooooooooooooooooo                   XXXXXXXXXXXXXXXXXXXXXXXXX            XXXXXXXXXXXXX      oooooo",
"ooooooooooooooooooo                   XXXXXXXXXXXXXXXXXXXXXXXXX            XXXXXXXXXXXXX      oooooo",
"ooooooooooooooooooooooooo                                                               oooooooooooo",
"ooooooooooooooooooooooooo                                                               oooooooooooo",
"ooooooooooooooooooooooooo                                                               oooooooooooo",
"ooooooooooooooooooooooooo                                                               oooooooooooo",
"ooooooooooooooooooooooooo                                                               oooooooooooo",
"ooooooooooooooooooooooooo                                                               oooooooooooo",
"ooooooooooooooooooooooooo                                                               oooooooooooo",
"ooooooooooooooooooooooooo      XXXXXXX............             ooooooooooooooooooooooooooooooooooooo",
"ooooooooooooooooooooooooo      XXXXXXX............             ooooooooooooooooooooooooooooooooooooo",
"ooooooooooooooooooooooooo      XXXXXXX............             ooooooooooooooooooooooooooooooooooooo",
"ooooooooooooooooooooooooo      XXXXXXX............             ooooooooooooooooooooooooooooooooooooo",
"ooooooooooooooooooooooooo      XXXXXXX............             ooooooooooooooooooooooooooooooooooooo",
"ooooooooooooooooooooooooo      XXXXXXX............             ooooooooooooooooooooooooooooooooooooo",
"ooooooooooooooooooooooooooooooo                   oooooooooooooooooooooooooooooooooooooooooooooooooo",
"ooooooooooooooooooooooooooooooo                   oooooooooooooooooooooooooooooooooooooooooooooooooo",
"ooooooooooooooooooooooooooooooo                   oooooooooooooooooooooooooooooooooooooooooooooooooo",
"ooooooooooooooooooooooooooooooo                   oooooooooooooooooooooooooooooooooooooooooooooooooo",
"ooooooooooooooooooooooooooooooo                   oooooooooooooooooooooooooooooooooooooooooooooooooo",
"ooooooooooooooooooooooooooooooo                   oooooooooooooooooooooooooooooooooooooooooooooooooo"
};
