/* XPM */
static char *result[] = {
/* columns rows colors chars-per-pixel */
"100 100 6 1 ",
"  c black",
". c #ED462F",
"X c #F49A50",
"o c #F49A51",
"O c #F49B51",
"+ c None",
/* pixels */
"++++++++++++++++++++++++++++++++++++++++++++++++++++++++++++++++++++++++++++++++++++++++++++++++++++",
"++++++++++++++++++++++++++++++++++++++++++++++++++++++++++++++++++++++++++++++++++++++++++++++++++++",
"++++++++++++++++++++++++++++++++++++++++++++++++++++++++++++++++++++++++++++++++++++++++++++++++++++",
"++++++++++++++++++++++++++++++++++++++++++++++++++++++++++++++++++++++++++++++++++++++++++++++++++++",
"++++++++++++++++++++++++++++++++++++++++++++++++++++++++++++++++++++++++++++++++++++++++++++++++++++",
"++++++++++++++++++++++++++++++++++++++++++++++++++++++++++++++++++++++++++++++++++++++++++++++++++++",
"++++++++++++++++++++++++++++++++++++++++++++++++++++++++++++++++++++++++++++++++++++++++++++++++++++",
"++++++++++++++++++++++++++++++++++++++++++++++++++++++++++++++++++++++++++++++++++++++++++++++++++++",
"++++++++++++++++++++++++++++++++++++++++++++++++++++++++++++++++++++++++++++++++++++++++++++++++++++",
"++++++++++++++++++++++++++++++++++++++++++++++++++++++++++++++++++++++++++++++++++++++++++++++++++++",
"++                  ++++++++++++++++++++++++++++++++++++++++++                  ++++++++++++++++++++",
"++                  ++++++++++++++++++++++++++++++++++++++++++                  ++++++++++++++++++++",
"++                  ++++++++++++++++++++++++++++++++++++++++++                  ++++++++++++++++++++",
"++                  ++++++++++++++++++++++++++++++++++++++++++                  ++++++++++++++++++++",
"++                  ++++++++++++++++++++++++++++++++++++++++++                  ++++++++++++++++++++",
"++                  ++++++++++++++++++++++++++++++++++++++++++                  ++++++++++++++++++++",
"++                        ++++++++++++++++++++++++++++++                                          ++",
"++                        ++++++++++++++++++++++++++++++                                          ++",
"++                        ++++++++++++++++++++++++++++++                                          ++",
"++                        ++++++++++++++++++++++++++++++                                          ++",
"++                        ++++++++++++++++++++++++++++++                                          ++",
"++                        ++++++++++++++++++++++++++++++                                          ++",
"++            XXOOXXXXXXXX      ++++++++++++++++++      XXXXOOXXOOOO            OOXXXXOOXXXX      ++",
"++            XXOOXXXXXXXX      ++++++++++++++++++      XXXXOOXXOOOO            OOXXXXOOXXXX      ++",
"++            XXooooOOXXXX      ++++++++++++++++++      OOOOOOOOXXXX            XXOOOOOOOOOO      ++",
"++            XXooooOOXXXX      ++++++++++++++++++      OOOOOOOOXXXX            XXOOOOOOOOOO      ++",
"++            OOOOooXXXXXO      ++++++++++++++++++      ooXXOOOOXXXX            XXOOXXOOOOXX      ++",
"++            OOOOooXXXXOO      ++++++++++++++++++      ooXXOOOOXXXX            XXOOXXOOOOXX      ++",
"++      OOOOXXXXXXXXOOOOXX                              XXXXOOOOXXOOXXXXOO      OOXXXXXXXXOO      ++",
"++      OOOOXXXXXXXXOOOOXX                              XXXXOOOOXXOOXXXXOO      OOXXXXXXXXOO      ++",
"++      OOXXOOXXXXXXOOOOXX                              XXooXXooOOOOOOXXOO      XXOOXXOOOOXX      ++",
"++      OOXXOOXXXXXXOOOOXX                              XXooXXooOOOOOOXXOO      XXOOXXOOOOXX      ++",
"++      XXXXOOOOOOOOXXOOOO                              OOOOXXOOOOXXXXOOXX      OOXXOOXXXXOO      ++",
"++      XXXXOOOOOOOOXXOOOO                              OOOOXXOOOOXXXXOOXX      OOXXOOXXXXOO      ++",
"++++++++      XXOOXXOOOOOOXXXXOOXXOOOOXXXXOOXXXXXXXXOOOOXXXXXXOOOOOO      OOOOXXXXOOXXOOOOXX      ++",
"++++++++      XXOOXXOOOOOOXXXXOOXXOOOOXXXXOOXXXXXXXXOOOOXXXXXXOOOOOO      OOOOXXXXOOXXOOOOXX      ++",
"++++++++      XXXXXXooOOOOOOooOOOOOOXXOOOOOOXXOOOOXXXXOOXXOOXXXXXXXX      OOXXOOooOOOOOOXXOO      ++",
"++++++++      XXXXXXooOOOOOOooOOOOOOXXOOOOOOXXOOOOXXXXOOXXOOXXXXXXXX      OOXXOOooOOOOOOXXOO      ++",
"++++++++      XXOOOOooXXXXOOXXXXOOXXXXOOXXXXXXOOOOOOOOOOXXOOooXXXXoo      XXXXOOOOXXooOOOXXX      ++",
"++++++++      XXOOOOooXXXXOOXXXXOOXXXXOOXXXXXXOOOOOOOOOOXXOOooXXXXoo      XXXXOOOOXXooOOOXXX      ++",
"++++++++      OOooOOXXXXOOOOOOOOXXXXOOXXOOOOOOXXXXXXOOXXOOOOOOOOOOOO      OOOOOOXXXXXX      ++++++++",
"++++++++      OOooOOXXXXOOOOOOOOXXXXOOXXOOOOOOXXXXXXOOXXOOOOOOOOOOOO      OOOOOOXXXXXX      ++++++++",
"++++++++      XXXXOOXXOOooOOOOXXXXOOXXOOOOOOOOOOOOXXOOOOOOXXOOXXOOOO      OOOOOOOOOOXX      ++++++++",
"++++++++      XXXXOOXXOOooOOOOXXXXOOXXOOOOOOOOOOOOXXOOOOOOXXOOXXOOOO      OOOOOOOOOOXX      ++++++++",
"++++++++      XXXXXXOOXXOOXXOOOOOOXXXXOOXXXXXXXXXXOOXXOOXXXXXXXXXXXX      XXOOOOOOOXXX      ++++++++",
"++++++++      XXXXXXOOXXOOXXOOOOOOXXXXOOXXXXXXXXXXOOXXOOXXXXXXXXXXXX      XXOOOOOOOXXX      ++++++++",
"++      XXXOXXXXOOOOXXXXXXXXooOOOOOOOOOOXXOOXXOOXXOOOOXXXXOOOOXXOOXXOOOOOO            ++++++++++++++",
"++      XXXOXXXXOOOOXXXXXXXXooOOOOOOOOOOXXOOXXOOXXOOOOXXXXOOOOXXOOXXOOOOOO            ++++++++++++++",
"++      OOOOXXXXOOooOOXXXXXXXXOOXXOOOOXXOOXXXXOOOOOOXXXXOOOOXXXXXXOOooooXX            ++++++++++++++",
"++      OOOOXXXXOOooOOXXXXXXXXOOXXOOOOXXOOXXXXOOOOOOXXXXOOOOXXXXXXOOooooXX            ++++++++++++++",
"++      XXOOXXXXXXXXXXooXXOOOOXXooOOOOOOXXXXXXXXXXOOXXXXOOXXOOXXXXOOOOXXOO            ++++++++++++++",
"++      XXOOXXXXXXXXXXooXXOOOOXXooOOOOOOXXXXXXXXXXOOXXXXOOXXOOXXXXOOOOXXOO            ++++++++++++++",
"++      OOXXXXOOOOXX      XXOOXXXXXXOOXXXXXXOOOOOOOOXXXX      OOOOOOooOOXX      ++++++++++++++++++++",
"++      OOXXXXOOOOXX      XXOOXXXXXXOOXXXXXXOOOOOOOOXXXX      OOOOOOooOOXX      ++++++++++++++++++++",
"++      XXOOooXXOOXX      XXXXOOOOOOXXOOXXXXOOXXXXOOXXOO      XXXXOOOOOOXX      ++++++++++++++++++++",
"++      XXOOooXXOOXX      XXXXOOOOOOXXOOXXXXOOXXXXOOXXOO      XXXXOOOOOOXX      ++++++++++++++++++++",
"++      XXOOXXOOXXXX      XXOOXXOOOOOOXXOOOOOOOOXXOOXXOO      OOOOXXXXOOOO      ++++++++++++++++++++",
"++      XXOOXXOOXXXX      XXOOXXOOOOOOXXOOOOOOOOXXOOXXOO      OOOOXXXXOOOO      ++++++++++++++++++++",
"++      ............OOOOXXOOXXXXXXOOXX      XXOOOOXXXXOOXXOOOO............                  ++++++++",
"++      ............OOOOXXOOXXXXXXOOXX      XXOOOOXXXXOOXXOOOO............                  ++++++++",
"++      ............OOXXXXOOOOOOXXXXXX      ooXXOOOOOOXXXXXXOO............                  ++++++++",
"++      ............OOXXXXOOOOOOXXXXXX      ooXXOOOOOOXXXXXXOO............                  ++++++++",
"++      ............OOXXXXooXXXXOOXXXX      OOOOXXOOOOOOXXXXOO............                  ++++++++",
"++      ............OOXXXXooXXXXOOXXXX      OOOOXXOOOOOOXXXXOO............                  ++++++++",
"++      ............OOOOOOXXOOXX      OOOOXX      OOXXOOOOXXXX............      XXXXOO      ++++++++",
"++      ............OOOOOOXXOOXX      OOOOXX      OOXXOOOOXXXX............      XXXXOO      ++++++++",
"++      ............OOooOOXXOOOO      OOXXXX      OOOOXXXXXXOO............      XXXXOO      ++++++++",
"++      ............OOooOOXXOOOO      OOXXXX      OOOOXXXXXXOO............      XXXXOO      ++++++++",
"++      ............OOOOXXOOXXOO      OOOOOO      OOXXXXXXOOOO............      XXOXXX      ++++++++",
"++      ............OOOOXXOOXXOO      OOOOOO      OOXXXXXXOOOO............      XXOXXX      ++++++++",
"++++++++      OOXXXXXXOOXXOOOOXXOOOOOOOOOOOOXXXXOOOOOOXXooXXXXOOooOO      OOXXXX      ++++++++++++++",
"++++++++      OOXXXXXXOOXXOOOOXXOOOOOOOOOOOOXXXXOOOOOOXXooXXXXOOooOO      OOXXXX      ++++++++++++++",
"++++++++      OOXXOOXXOOOOXXXXXXXXXXOOOOXXXXXXOOOOXXXXXXOOOOXXXXXXOO      OOOOOO      ++++++++++++++",
"++++++++      OOXXOOXXOOOOXXXXXXXXXXOOOOXXXXXXOOOOXXXXXXOOOOXXXXXXOO      OOOOOO      ++++++++++++++",
"++++++++      OOXXXXOOOOXXOOOOOOXXXXXXXXOOXXXXXXOOooOOXXOOXXooOOXXXX      XXXXXX      ++++++++++++++",
"++++++++      OOXXXXOOOOXXOOOOOOXXXXXXXXOOXXXXXXOOooOOXXOOXXooOOXXXX      XXXXXX      ++++++++++++++",
"++++++++      ......XXOOOO      XXXXXXOOXXooXXXXXX      OOOOOO......            ++++++++++++++++++++",
"++++++++      ......XXOOOO      XXXXXXOOXXooXXXXXX      OOOOOO......            ++++++++++++++++++++",
"++++++++      ......OOOOOO      XXOOXXOOOOOOOOXXOO      XXXXXX......            ++++++++++++++++++++",
"++++++++      ......OOOOOO      XXOOXXOOOOOOOOXXOO      XXXXXX......            ++++++++++++++++++++",
"++++++++      ......OOOOXX      XXooOOOOXXXXOOOOXX      OOOOXX......            ++++++++++++++++++++",
"++++++++      ......OOOOXX      XXooOOOOXXXXOOOOXX      OOOOXX......            ++++++++++++++++++++",
"++++++++      XXXXXX            OOXXOOOOXXXXXXOOXX            OOOOOO      ++++++++++++++++++++++++++",
"++++++++      XXXXXX            OOXXOOOOXXXXXXOOXX            OOOOOO      ++++++++++++++++++++++++++",
"++++++++      XXXXOO            XXXXooOOOOXXOOXXOO            XXOOOO      ++++++++++++++++++++++++++",
"++++++++      XXXXOO            XXXXooOOOOXXOOXXOO            XXOOOO      ++++++++++++++++++++++++++",
"++++++++      XXXOXX            OOOOXXXXXXOOXXXXOO            OOXXXX      ++++++++++++++++++++++++++",
"++++++++      XXXOXX            OOOOXXXXXXOOXXXXOO            OOXXXX      ++++++++++++++++++++++++++",
"++++++++++++++      OOOOOOXXXXOOooOOOO      XXooXXOOXXXXOOXXOO      ++++++++++++++++++++++++++++++++",
"++++++++++++++      OOOOOOXXXXOOooOOOO      XXooXXOOXXXXOOXXOO      ++++++++++++++++++++++++++++++++",
"++++++++++++++      OOXXOOooXXXXOOOOOO      OOOOXXXXOOOOooOOOO      ++++++++++++++++++++++++++++++++",
"++++++++++++++      OOXXOOooXXXXOOOOOO      OOOOXXXXOOOOooOOOO      ++++++++++++++++++++++++++++++++",
"++++++++++++++      XXXOOOOOXXOOOOXXOO      OOOOXXXXXXXXOOXXXX      ++++++++++++++++++++++++++++++++",
"++++++++++++++      XXXOOOOOXXOOOOXXOO      OOOOXXXXXXXXOOXXXX      ++++++++++++++++++++++++++++++++",
"++++++++++++++++++++                  ++++++                  ++++++++++++++++++++++++++++++++++++++",
"++++++++++++++++++++                  ++++++                  ++++++++++++++++++++++++++++++++++++++",
"++++++++++++++++++++                  ++++++                  ++++++++++++++++++++++++++++++++++++++",
"++++++++++++++++++++                  ++++++                  ++++++++++++++++++++++++++++++++++++++",
"++++++++++++++++++++                  ++++++                  ++++++++++++++++++++++++++++++++++++++",
"++++++++++++++++++++                  ++++++                  ++++++++++++++++++++++++++++++++++++++"
};
