/* XPM */
static char *result[] = {
/* columns rows colors chars-per-pixel */
"100 100 6 1 ",
"  c black",
". c #ED462F",
"X c #F49A50",
"o c #F49A51",
"O c #F49B51",
"+ c None",
/* pixels */
"++++++++++++++++++++++++++++++++++++++++++++++++++++++++++++++++++++++++++++++++++++++++++++++++++++",
"++++++++++++++++++++++++++++++++++++++++++++++++++++++++++++++++++++++++++++++++++++++++++++++++++++",
"++++++++++++++++++++++++++++++++++++++++++++++++++++++++++++++++++++++++++++++++++++++++++++++++++++",
"++++++++++++++++++++++++++++++++++++++++++++++++++++++++++++++++++++++++++++++++++++++++++++++++++++",
"++                  ++++++++++++++++++++++++++++++++++++++++++                  ++++++++++++++++++++",
"++                  ++++++++++++++++++++++++++++++++++++++++++                  ++++++++++++++++++++",
"++                  ++++++++++++++++++++++++++++++++++++++++++                  ++++++++++++++++++++",
"++                  ++++++++++++++++++++++++++++++++++++++++++                  ++++++++++++++++++++",
"++                  ++++++++++++++++++++++++++++++++++++++++++                  ++++++++++++++++++++",
"++                  ++++++++++++++++++++++++++++++++++++++++++                  ++++++++++++++++++++",
"++                        ++++++++++++++++++++++++++++++                        ++++++++++++++++++++",
"++                        ++++++++++++++++++++++++++++++                        ++++++++++++++++++++",
"++                        ++++++++++++++++++++++++++++++                        ++++++++++++++++++++",
"++                        ++++++++++++++++++++++++++++++                        ++++++++++++++++++++",
"++                        ++++++++++++++++++++++++++++++                        ++++++++++++++++++++",
"++                        ++++++++++++++++++++++++++++++                        ++++++++++++++++++++",
"++            OOOOooXOOOOO      ++++++++++++++++++      OOOOOOOOXXOO                              ++",
"++            OOOOooXOOOOO      ++++++++++++++++++      OOOOOOOOXXOO                              ++",
"++            OOXXOOOOOOOO      ++++++++++++++++++      OOOOOXXXXXXX                              ++",
"++            OOXXOOOOXXXX      ++++++++++++++++++      OOXXXXXXXXXX                              ++",
"++            OOXXOOOOOOOO      ++++++++++++++++++      OOXXOOXXOOOO                              ++",
"++            OOXXOOOOOOOO      ++++++++++++++++++      OOXXOOXXOOOO                              ++",
"++      OOXXOOXXOOXXXXXXOO                              XXXXOOXXOOOOOOOOXX      OOXXXXOOXXXX      ++",
"++      OOXXOOXXOOXXXXXXOO                              XXXXOOXXOOOOOOOOXX      OOXXXXOOXXXX      ++",
"++      XXXXOOXXooooOOXXXX                              OOOOOOOOXXXXOOOOOO      XXOOOOOOOOOO      ++",
"++      XXXXOOXXooooOOXXXX                              OOOOOOOOXXXXOOOOOO      XXOOOOOOOOOO      ++",
"++      OOOOOOOOOOooXXXXOO                              ooXXOOOOXXXXooXXXX      XXOOXXOOOOXX      ++",
"++      OOOOOOOOOOooXXXXOO                              ooXXOOOOXXXXooXXXX      XXOOXXOOOOXX      ++",
"++++++++      XXXXXXOOOOXXXXXXXXooXXXXOOXXOOXXXXOOOOOOXXXXXXOOOOXXOO      OOOOXXOOXXXXXXXXOO      ++",
"++++++++      XXXXXXOOOOXXXXXXXXooXXXXOOXXOOXXXXOOOOOOXXXXXXOOOOXXOO      OOOOXXOOXXXXXXXXOO      ++",
"++++++++      XXXXXXOOOOXXOOOOXXOOOOXXXXXXXXXXOOXXOOXXOOXXooXXooOOOO      XXXXOOXXOOXXOOOOXX      ++",
"++++++++      XXXXXXOOOOXXOOOOXXOOOOXXXXXXXXXXOOXXOOXXOOXXooXXooOOOO      XXXXOOXXOOXXOOOOXX      ++",
"++++++++      OOOOOOXXOOOOXXXXOOXXXXOOXXXXXXOOXXXXXXXXXXOOOOXXOOOOXX      OOOOXXOOXXOOXXXXOO      ++",
"++++++++      OOOOOOXXOOOOXXXXOOXXXXOOXXXXXXOOXXXXXXXXXXOOOOXXOOOOXX      OOOOXXOOXXOOXXXXOO      ++",
"++++++++      XXOOXXOOOOOOXXXXOOXXOOOOXXXXOOXXXXXXXXOOOOXXXXXXOOOOOO      OOOOXXXXOOXXOOOOXX      ++",
"++++++++      XXOOXXOOOOOOXXXXOOXXOOOOXXXXOOXXXXXXXXOOOOXXXXXXOOOOOO      OOOOXXXXOOXXOOOOXX      ++",
"++++++++      XXXXXXooOOOOOOooOOOOOOXXOOOOOOXXOOOOXXXXOOXXOOXXXXXXXX      OOXXOOooOOOOOOXXOO      ++",
"++++++++      XXXXXXooOOOOOOooOOOOOOXXOOOOOOXXOOOOXXXXOOXXOOXXXXXXXX      OOXXOOooOOOOOOOOOO      ++",
"++++++++      XXOOOOooXXXXOOXXXXOOXXXXOOXXXXXXOOOOOOOOOOXXOOooXXXXoo      XXXXOOOOXXooOOOOOO      ++",
"++++++++      XXOOOOooXXXXOOXXXXOOXXXXOOXXXXXXOOOOOOOOOOXXOOooXXXXoo      XXXXOOOOXXooOOOOOO      ++",
"++      OOOOOXOOooOOXXXXOOOOOOOOXXXXOOXXOOOOOOXXXXXXOOXXOOOOOOOOOOOOXXOOOO      XXXXXX      ++++++++",
"++      OOOOOXOOooOOXXXXOOOOOOOOXXXXOOXXOOOOOOXXXXXXOOXXOOOOOOOOOOOOXXOOOO      XXXXXX      ++++++++",
"++      OOOOXXXXXXOOXXOOooOOOOXXXXOOXXOOOOOOOOOOOOXXOOOOOOXXOOXXOOOOXXOOOO      OOOOXX      ++++++++",
"++      OOOOXXXXXXOOXXOOooOOOOXXXXOOXXOOOOOOOOOOOOXXOOOOOOXXOOXXOOOOXXOOOO      OOOOXX      ++++++++",
"++      OOXXXXXXXXXXOOXXOOXXOOOOOOXXXXOOXXXXXXXXXXOOXXOOXXXXXXXXXXXXXXXXOO      OOOOOO      ++++++++",
"++      OOXXXXXXXXXXOOXXOOXXOOOOOOXXXXOOXXXXXXXXXXOOXXOOXXXXXXXXXXXXXXXXOO      OOOOOO      ++++++++",
"++      XXOOXXXXOOOO      XXooOOOOOOOOOOXXOOXXOOXXOOOOXX      XXOOXXOOOOOO            ++++++++++++++",
"++      XXOOXXXXOOOO      XXooOOOOOOOOOOXXOOXXOOXXOOOOXX      XXOOXXOOOOOO            ++++++++++++++",
"++      OOOOXXXXOOoo      XXXXOOXXOOOOXXOOXXXXOOOOOOXXXX      XXXXOOooooXX            ++++++++++++++",
"++      OOOOXXXXOOoo      XXXXOOXXOOOOXXOOXXXXOOOOOOXXXX      XXXXOOooooXX            ++++++++++++++",
"++      XXOOXXXXXXXX      OOOOXXooOOOOOOXXXXXXXXXXOOXXXX      XXXXOOOOXXOO            ++++++++++++++",
"++      XXOOXXXXXXXX      OOOOXXooOOOOOOXXXXXXXXXXOOXXXX      XXXXOOOOXXOO            ++++++++++++++",
"++      ............XXXXOOXXOOXXXXXXOO      OOOOOOOOXXXXOOXXOO............      ++++++++++++++++++++",
"++      ............XXXXOOXXOOXXXXXXOO      OOOOOOOOXXXXOOXXOO............      ++++++++++++++++++++",
"++      ............OOXXXXXXXXOOOOOOXX      OOXXXXOOXXOOXXXXOO............      ++++++++++++++++++++",
"++      ............OOXXXXXXXXOOOOOOXX      OOXXXXOOXXOOXXXXOO............      ++++++++++++++++++++",
"++      ............OOXXXXXXOOXXOOOOOO      OOOOXXOOXXOOOOXXXX............      ++++++++++++++++++++",
"++      ............OOXXXXXXOOXXOOOOOO      OOOOXXOOXXOOOOXXXX............      ++++++++++++++++++++",
"++      ............OOOOXXOOXXXX      XXOOOO      XXXXOOXXOOOO............                  ++++++++",
"++      ............OOOOXXOOXXXX      XXOOOO      XXXXOOXXOOOO............                  ++++++++",
"++      ............OOXXXXOOOOOO      OOOOXX      OOOOXXXXXXOO............                  ++++++++",
"++      ............OOXXXXOOOOOO      OOOOXX      OOOOXXXXXXOO............                  ++++++++",
"++      ............OOXXXXooXXXX      OOXXOO      OOOOOOXXXXOO............                  ++++++++",
"++      ............OOXXXXooXXXX      OOXXOO      OOOOOOXXXXOO............                  ++++++++",
"++++++++      XXOOOOOOOOOOXXOOXXOOOOOOOOOOXXOOXXOOOOXXOOOOXXXXXXXXXX      XXOOOOXXXXOO      ++++++++",
"++++++++      XXOOOOOOOOOOXXOOXXOOOOOOOOOOXXOOXXOOOOXXOOOOXXXXXXXXXX      XXOOOOXXXXOO      ++++++++",
"++++++++      ooXXXXOOooOOXXOOOOXXOOOOOOXXXXOOOOXXOOOOXXXXXXOOOOOOXX      OOXXOOXXXXOO      ++++++++",
"++++++++      ooXXXXOOooOOXXOOOOXXOOOOOOXXXXOOOOXXOOOOXXXXXXOOOOOOXX      OOXXOOXOOOOO      ++++++++",
"++++++++      OOXXXXOOOOXXOOXXOOOOXXOOOOOOOOXXOOOOOOXXXXXXOOOOXXXXXX      XXOOOOXOOOOO      ++++++++",
"++++++++      OOXXXXOOOOXXOOXXOOOOXXOOOOOOOOXXOOOOOOXXXXXXOOOOXXXXXX      XXOOOOXOOOOO      ++++++++",
"++++++++      ......XXOOXX      OOOOOOOOOOOOXXXXOO      ooXXXX......      OOXXXX      ++++++++++++++",
"++++++++      ......XXOOXX      OOOOOOOOOOOOXXXXOO      ooXXXX......      OOXXXX      ++++++++++++++",
"++++++++      ......XXOOOO      XXXXOOOOXXXXXXOOOO      OOOOXX......      OOOOOO      ++++++++++++++",
"++++++++      ......XXOOOO      XXXXOOOOXXXXXXOOOO      OOOOXX......      OOOOOO      ++++++++++++++",
"++++++++      ......OOOOXX      XXXXXXXXOOXXXXXXOO      OOXXoo......      XOOOOO      ++++++++++++++",
"++++++++      ......OOOOXX      XXXXXXXXOOXXXXXXOO      OOXXoo......      XOOOOO      ++++++++++++++",
"++++++++      XXXXXX            XXXXXXOOXXooXXXXXX            OOOOOO            ++++++++++++++++++++",
"++++++++      XXXXXX            XXXXXXOOXXooXXXXXX            OOOOOO            ++++++++++++++++++++",
"++++++++      XXOOOO            XXOOXXOOOOOOOOXXOO            XXOOOO            ++++++++++++++++++++",
"++++++++      XXOOOO            XXOOXXOOOOOOOOXXOO            XXOOOO            ++++++++++++++++++++",
"++++++++      OOXXXX            XXooOOOOXXXXOOOOXX            XXOOXX            ++++++++++++++++++++",
"++++++++      OOXXXX            XXooOOOOXXXXOOOOXX            XXOOXX            ++++++++++++++++++++",
"++++++++      XXXXXXOOOOOOXXOOXXOOXXOOOOXXXXXXOOXXXXOOOOXXOOXXOOOOOO      ++++++++++++++++++++++++++",
"++++++++      XXXXXXOOOOOOXXOOXXOOXXOOOOXXXXXXOOXXXXOOOOXXOOXXOOOOOO      ++++++++++++++++++++++++++",
"++++++++      XXXXOOXXOOOOXXXXOOXXXXooOOOOXXOOXXOOOOXXOOXXOOOOXXOOOO      ++++++++++++++++++++++++++",
"++++++++      XXXXOOXXOOOOXXXXOOXXXXooOOOOXXOOXXOOOOXXOOXXOOOOXXOOOO      ++++++++++++++++++++++++++",
"++++++++      OOOOOXXXOOOOXXXXXXOOOOXXXXXXOOXXXXOOXXOOXXXXXXXXOOOOOO      ++++++++++++++++++++++++++",
"++++++++      OOOOOXXXOOOOXXXXXXOOOOXXXXXXOOXXXXOOXXOOXXXXXXXXOOOOOO      ++++++++++++++++++++++++++",
"++++++++++++++      OOOOOOXXXXOO                  OOXXXXOOXXOO      ++++++++++++++++++++++++++++++++",
"++++++++++++++      OOOOOOXXXXOO                  OOXXXXOOXXOO      ++++++++++++++++++++++++++++++++",
"++++++++++++++      OOXXOOooXXXX                  XXOOOOooOOOO      ++++++++++++++++++++++++++++++++",
"++++++++++++++      OOXXOOooXXXX                  XXOOOOooOOOO      ++++++++++++++++++++++++++++++++",
"++++++++++++++      OOOOOOOOXXOO                  XXXXXXOOOOOO      ++++++++++++++++++++++++++++++++",
"++++++++++++++      OOOOOOOOXXOO                  XXXXXXOOOOOO      ++++++++++++++++++++++++++++++++",
"++++++++++++++++++++                  ++++++                  ++++++++++++++++++++++++++++++++++++++",
"++++++++++++++++++++                  ++++++                  ++++++++++++++++++++++++++++++++++++++",
"++++++++++++++++++++                  ++++++                  ++++++++++++++++++++++++++++++++++++++",
"++++++++++++++++++++                  ++++++                  ++++++++++++++++++++++++++++++++++++++",
"++++++++++++++++++++                  ++++++                  ++++++++++++++++++++++++++++++++++++++",
"++++++++++++++++++++                  ++++++                  ++++++++++++++++++++++++++++++++++++++"
};
