/* XPM */
static char *result[] = {
/* columns rows colors chars-per-pixel */
"100 100 4 1 ",
"  c black",
". c #E6502F",
"X c #EC9453",
"o c None",
/* pixels */
"oooooooooooooooooooooooooooooooooooooooooooooooooooooooooooooooooooooooooooooooooooooooooooooooooooo",
"oooooooooooooooooooooooooooooooooooooooooooooooooooooooooooooooooooooooooooooooooooooooooooooooooooo",
"oooooooooooooooooooooooooooooooooooooooooooooooooooooooooooooooooooooooooooooooooooooooooooooooooooo",
"oooooooooooooooooooooooooooooooooooooooooooooooooooooooooooooooooooooooooooooooooooooooooooooooooooo",
"oooooooooooooooooooooooooooooooooooooooooooooooooooooooooooooooooooooooooooooooooooooooooooooooooooo",
"oooooooooooooooooooooooooooooooooooooooooooooooooooooooooooooooooooooooooooooooooooooooooooooooooooo",
"oooooooooooooooooooooooooooooooooooooooooooooooooooooooooooooooooooooooooooooooooooooooooooooooooooo",
"oooooooooooooooooooooooooooooooooooooooooooooooooooooooooooooooooooooooooooooooooooooooooooooooooooo",
"oooooooooooooooooooooooooooooooooooooooooooooooooooooooooooooooooooooooooooooooooooooooooooooooooooo",
"oooooooooooooooooooooooooooooooooooooooooooooooooooooooooooooooooooooooooooooooooooooooooooooooooooo",
"oooooooooooooooooooooooooooooooooooooooooooooooooooooooooooooooooooooooooooooooooooooooooooooooooooo",
"oooooooooooooooooooooooooooooooooooooooooooooooooooooooooooooooooooooooooooooooooooooooooooooooooooo",
"oooooooooooooooooooooooooooooooooooooooooooooooooooooooooooooooooooooooooooooooooooooooooooooooooooo",
"oooooooooooooooooooooooooooooooooooooooooooooooooooooooooooooooooooooooooooooooooooooooooooooooooooo",
"oooooooooooooooooooooooooooooooooooooooooooooooooooooooooooooooooooooooooooooooooooooooooooooooooooo",
"oooooooooooooooooooooooooooooooooooooooooooooooooooooooooooooooooooooooooooooooooooooooooooooooooooo",
"oooooooooooooooooooooooooooooooooooooooooooooooooooooooooooooooooooooooooooooooooooooooooooooooooooo",
"oooooooooooooooooooooooooooooooooooooooooooooooooooooooooooooooooooooooooooooooooooooooooooooooooooo",
"oooooooooooooooooooooooooooooooooooooooooooooooooooooooooooooooooooooooooooooooooooooooooooooooooooo",
"oooooooooooooooooooooooooooooooooooooooooooooooooooooooooooooooooooooooooooooooooooooooooooooooooooo",
"oooooooooooooooooooooooooooooooooooooooooooooooooooooooooooooooooooooooooooooooooooooooooooooooooooo",
"oooooooooooooooooooooooooooooooooooooooooooooooooooooooooooooooooooooooooooooooooooooooooooooooooooo",
"oooooooooooooooooooooooooooooooooooooooooooooooooooooooooooooooooooooooooooooooooooooooooooooooooooo",
"oooooooooooooooooooooooooooooooooooooooooooooooooooooooooooooooooooooooooooooooooooooooooooooooooooo",
"oooooooooooooooooooooooooooooooooooooooooooooooooooooooooooooooooooooooooooooooooooooooooooooooooooo",
"ooooooooooooooooooooooooooooooooooooo                         oooooooooooooooooooooooooooooooooooooo",
"ooooooooooooooooooooooooooooooooooooo                         oooooooooooooooooooooooooooooooooooooo",
"ooooooooooooooooooooooooooooooooooooo                         oooooooooooooooooooooooooooooooooooooo",
"ooooooooooooooooooooooooooooooooooooo                         oooooooooooooooooooooooooooooooooooooo",
"ooooooooooooooooooooooooooooooooooooo                         oooooooooooooooooooooooooooooooooooooo",
"ooooooooooooooooooooooooooooooooooooo                         oooooooooooooooooooooooooooooooooooooo",
"ooooooooooooooooooooooooo            .........................             ooooooooooooooooooooooooo",
"ooooooooooooooooooooooooo            .........................             ooooooooooooooooooooooooo",
"ooooooooooooooooooooooooo            .........................             ooooooooooooooooooooooooo",
"ooooooooooooooooooooooooo            .........................             ooooooooooooooooooooooooo",
"ooooooooooooooooooooooooo            .........................             ooooooooooooooooooooooooo",
"ooooooooooooooooooooooooo            .........................             ooooooooooooooooooooooooo",
"ooooooooooooooooooo      ...................XXXXXXXXXXXX...................      ooooooooooooooooooo",
"ooooooooooooooooooo      ...................XXXXXXXXXXXX...................      ooooooooooooooooooo",
"ooooooooooooooooooo      ...................XXXXXXXXXXXX...................      ooooooooooooooooooo",
"ooooooooooooooooooo      ...................XXXXXXXXXXXX...................      ooooooooooooooooooo",
"ooooooooooooooooooo      ...................XXXXXXXXXXXX...................      ooooooooooooooooooo",
"ooooooooooooooooooo      ...................XXXXXXXXXXXX...................      ooooooooooooooooooo",
"ooooooooooooooooooo      ...................XXXXXXXXXXXX...................      ooooooooooooooooooo",
"ooooooooooooooooooo      ...................XXXXXXXXXXXX...................      ooooooooooooooooooo",
"ooooooooooooooooooo      ...................XXXXXXXXXXXX...................      ooooooooooooooooooo",
"ooooooooooooooooooo      ...................XXXXXXXXXXXX...................      ooooooooooooooooooo",
"ooooooooooooooooooo      ...................XXXXXXXXXXXX...................      ooooooooooooooooooo",
"ooooooooooooooooooo      ...................XXXXXXXXXXXX...................      ooooooooooooooooooo",
"ooooooooooooooooooo      ...................XXXXXXXXXXXX...................      ooooooooooooooooooo",
"oooooooooooo       ..............................................................      ooooooooooooo",
"oooooooooooo       ..............................................................      ooooooooooooo",
"oooooooooooo       ..............................................................      ooooooooooooo",
"oooooooooooo       ..............................................................      ooooooooooooo",
"oooooooooooo       ..............................................................      ooooooooooooo",
"oooooooooooo       ..............................................................      ooooooooooooo",
"oooooooooooo       ..............................................................      ooooooooooooo",
"oooooooooooo       ..............................................................      ooooooooooooo",
"oooooooooooo       ..............................................................      ooooooooooooo",
"oooooooooooo       ..............................................................      ooooooooooooo",
"oooooooooooo       ..............................................................      ooooooooooooo",
"oooooooooooo       ..............................................................      ooooooooooooo",
"oooooooooooo       XXXXXXXXXXXX......................................XXXXXXXXXXXX      ooooooooooooo",
"oooooooooooo       XXXXXXXXXXXX......................................XXXXXXXXXXXX      ooooooooooooo",
"oooooooooooo       XXXXXXXXXXXX......................................XXXXXXXXXXXX      ooooooooooooo",
"oooooooooooo       XXXXXXXXXXXX......................................XXXXXXXXXXXX      ooooooooooooo",
"oooooooooooo       XXXXXXXXXXXX......................................XXXXXXXXXXXX      ooooooooooooo",
"oooooooooooo       XXXXXXXXXXXX......................................XXXXXXXXXXXX      ooooooooooooo",
"oooooooooooo       XXXXXXXXXXXX......................................XXXXXXXXXXXX      ooooooooooooo",
"oooooooooooo       XXXXXXXXXXXXXXXXXXXXXXXXXXXXXXXXXXXXXXXXXXXXXXXXXXXXXXXXXXXXXX      ooooooooooooo",
"oooooooooooo       XXXXXXXXXXXXXXXXXXXXXXXXXXXXXXXXXXXXXXXXXXXXXXXXXXXXXXXXXXXXXX      ooooooooooooo",
"oooooooooooo       XXXXXXXXXXXXXXXXXXXXXXXXXXXXXXXXXXXXXXXXXXXXXXXXXXXXXXXXXXXXXX      ooooooooooooo",
"oooooooooooo       XXXXXXXXXXXXXXXXXXXXXXXXXXXXXXXXXXXXXXXXXXXXXXXXXXXXXXXXXXXXXX      ooooooooooooo",
"oooooooooooo       XXXXXXXXXXXXXXXXXXXXXXXXXXXXXXXXXXXXXXXXXXXXXXXXXXXXXXXXXXXXXX      ooooooooooooo",
"oooooooooooo       XXXXXXXXXXXXXXXXXXXXXXXXXXXXXXXXXXXXXXXXXXXXXXXXXXXXXXXXXXXXXX      ooooooooooooo",
"ooooooooooooooooooo      XXXXXXXXXXXXXXXXXXXXXXXXXXXXXXXXXXXXXXXXXXXXXXXXXX      ooooooooooooooooooo",
"ooooooooooooooooooo      XXXXXXXXXXXXXXXXXXXXXXXXXXXXXXXXXXXXXXXXXXXXXXXXXX      ooooooooooooooooooo",
"ooooooooooooooooooo      XXXXXXXXXXXXXXXXXXXXXXXXXXXXXXXXXXXXXXXXXXXXXXXXXX      ooooooooooooooooooo",
"ooooooooooooooooooo      XXXXXXXXXXXXXXXXXXXXXXXXXXXXXXXXXXXXXXXXXXXXXXXXXX      ooooooooooooooooooo",
"ooooooooooooooooooo      XXXXXXXXXXXXXXXXXXXXXXXXXXXXXXXXXXXXXXXXXXXXXXXXXX      ooooooooooooooooooo",
"ooooooooooooooooooo      XXXXXXXXXXXXXXXXXXXXXXXXXXXXXXXXXXXXXXXXXXXXXXXXXX      ooooooooooooooooooo",
"ooooooooooooooooooo      XXXXXXXXXXXXXXXXXXXXXXXXXXXXXXXXXXXXXXXXXXXXXXXXXX      ooooooooooooooooooo",
"ooooooooooooooooooo      XXXXXXXXXXXXXXXXXXXXXXXXXXXXXXXXXXXXXXXXXXXXXXXXXX      ooooooooooooooooooo",
"ooooooooooooooooooo      XXXXXXXXXXXXXXXXXXXXXXXXXXXXXXXXXXXXXXXXXXXXXXXXXX      ooooooooooooooooooo",
"ooooooooooooooooooo      XXXXXXXXXXXXXXXXXXXXXXXXXXXXXXXXXXXXXXXXXXXXXXXXXX      ooooooooooooooooooo",
"ooooooooooooooooooo      XXXXXXXXXXXXXXXXXXXXXXXXXXXXXXXXXXXXXXXXXXXXXXXXXX      ooooooooooooooooooo",
"ooooooooooooooooooo      XXXXXXXXXXXXXXXXXXXXXXXXXXXXXXXXXXXXXXXXXXXXXXXXXX      ooooooooooooooooooo",
"ooooooooooooooooooooooooo            XXXXXXXXXXXXXXXXXXXXXXXXX             ooooooooooooooooooooooooo",
"ooooooooooooooooooooooooo            XXXXXXXXXXXXXXXXXXXXXXXXX             ooooooooooooooooooooooooo",
"ooooooooooooooooooooooooo            XXXXXXXXXXXXXXXXXXXXXXXXX             ooooooooooooooooooooooooo",
"ooooooooooooooooooooooooo            XXXXXXXXXXXXXXXXXXXXXXXXX             ooooooooooooooooooooooooo",
"ooooooooooooooooooooooooo            XXXXXXXXXXXXXXXXXXXXXXXXX             ooooooooooooooooooooooooo",
"ooooooooooooooooooooooooo            XXXXXXXXXXXXXXXXXXXXXXXXX             ooooooooooooooooooooooooo",
"ooooooooooooooooooooooooo            XXXXXXXXXXXXXXXXXXXXXXXXX             ooooooooooooooooooooooooo",
"ooooooooooooooooooooooooooooooooooooo                         oooooooooooooooooooooooooooooooooooooo",
"ooooooooooooooooooooooooooooooooooooo                         oooooooooooooooooooooooooooooooooooooo",
"ooooooooooooooooooooooooooooooooooooo                         oooooooooooooooooooooooooooooooooooooo",
"ooooooooooooooooooooooooooooooooooooo                         oooooooooooooooooooooooooooooooooooooo",
"ooooooooooooooooooooooooooooooooooooo                         oooooooooooooooooooooooooooooooooooooo",
"ooooooooooooooooooooooooooooooooooooo                         oooooooooooooooooooooooooooooooooooooo"
};
