/* XPM */
static char *result[] = {
/* columns rows colors chars-per-pixel */
"100 100 4 1 ",
"  c black",
". c #FF3921",
"X c #FF9C52",
"o c None",
/* pixels */
"oooooo                   oooooooooooooooooooooooooooooooooooooooooooooooooo                   oooooo",
"oooooo                   oooooooooooooooooooooooooooooooooooooooooooooooooo                   oooooo",
"oooooo                   oooooooooooooooooooooooooooooooooooooooooooooooooo                   oooooo",
"oooooo                   oooooooooooooooooooooooooooooooooooooooooooooooooo                   oooooo",
"oooooo                   oooooooooooooooooooooooooooooooooooooooooooooooooo                   oooooo",
"oooooo                   oooooooooooooooooooooooooooooooooooooooooooooooooo                   oooooo",
"oooooo                         oooooo                         ooooooo                         oooooo",
"oooooo                         oooooo                         ooooooo                         oooooo",
"oooooo                         oooooo                         ooooooo                         oooooo",
"oooooo                         oooooo                         ooooooo                         oooooo",
"oooooo                         oooooo                         ooooooo                         oooooo",
"oooooo                         oooooo                         ooooooo                         oooooo",
"oooooo                         oooooo                         ooooooo                         oooooo",
"oooooo                                                                                        oooooo",
"oooooo                                                                                        oooooo",
"oooooo                                                                                        oooooo",
"oooooo                                                                                        oooooo",
"oooooo                                                                                        oooooo",
"oooooo                                                                                        oooooo",
"oooooooooooo                                                                           ooooooooooooo",
"oooooooooooo                                                                           ooooooooooooo",
"oooooooooooo                                                                           ooooooooooooo",
"oooooooooooo                                                                           ooooooooooooo",
"oooooooooooo                                                                           ooooooooooooo",
"oooooooooooo                                                                           ooooooooooooo",
"oooooooooooo                                                                           ooooooooooooo",
"oooooooooooo                                                                           ooooooooooooo",
"oooooooooooo                                                                           ooooooooooooo",
"oooooooooooo                                                                           ooooooooooooo",
"oooooooooooo                                                                           ooooooooooooo",
"oooooooooooo                                                                           ooooooooooooo",
"oooooo                   XXXXXX......                         .......XXXXXX                   oooooo",
"oooooo                   XXXXXX......                         .......XXXXXX                   oooooo",
"oooooo                   XXXXXX......                         .......XXXXXX                   oooooo",
"oooooo                   XXXXXX......                         .......XXXXXX                   oooooo",
"oooooo                   XXXXXX......                         .......XXXXXX                   oooooo",
"oooooo                   XXXXXX......                         .......XXXXXX                   oooooo",
"oooooo                   XXXXXX......                         .......XXXXXX                   oooooo",
"oooooooooooo             XXXXXX.............            .............XXXXXX            ooooooooooooo",
"oooooooooooo             XXXXXX.............            .............XXXXXX            ooooooooooooo",
"oooooooooooo             XXXXXX.............            .............XXXXXX            ooooooooooooo",
"oooooooooooo             XXXXXX.............            .............XXXXXX            ooooooooooooo",
"oooooooooooo             XXXXXX.............            .............XXXXXX            ooooooooooooo",
"oooooooooooo             XXXXXX.............            .............XXXXXX            ooooooooooooo",
"oooooooooooo                                                                           ooooooooooooo",
"oooooooooooo                                                                           ooooooooooooo",
"oooooooooooo                                                                           ooooooooooooo",
"oooooooooooo                                                                           ooooooooooooo",
"oooooooooooo                                                                           ooooooooooooo",
"oooooooooooo                                                                           ooooooooooooo",
"oooooooooooo                   ......       ............      .......                  ooooooooooooo",
"oooooooooooo                   ......       ............      .......                  ooooooooooooo",
"oooooooooooo                   ......       ............      .......                  ooooooooooooo",
"oooooooooooo                   ......       ............      .......                  ooooooooooooo",
"oooooooooooo                   ......       ............      .......                  ooooooooooooo",
"oooooooooooo                   ......       ............      .......                  ooooooooooooo",
"ooooooooooooooooooo            ......................................            ooooooooooooooooooo",
"ooooooooooooooooooo            ......................................            ooooooooooooooooooo",
"ooooooooooooooooooo            ......................................            ooooooooooooooooooo",
"ooooooooooooooooooo            ......................................            ooooooooooooooooooo",
"ooooooooooooooooooo            ......................................            ooooooooooooooooooo",
"ooooooooooooooooooo            ......................................            ooooooooooooooooooo",
"ooooooooooooooooooo            ......................................            ooooooooooooooooooo",
"ooooooooooooooooooo                  .........................                   ooooooooooooooooooo",
"ooooooooooooooooooo                  .........................                   ooooooooooooooooooo",
"ooooooooooooooooooo                  .........................                   ooooooooooooooooooo",
"ooooooooooooooooooo                  .........................                   ooooooooooooooooooo",
"ooooooooooooooooooo                  .........................                   ooooooooooooooooooo",
"ooooooooooooooooooo                  .........................                   ooooooooooooooooooo",
"oooooo             oooooo                                                  oooooo             oooooo",
"oooooo             oooooo                                                  oooooo             oooooo",
"oooooo             oooooo                                                  oooooo             oooooo",
"oooooo             oooooo                                                  oooooo             oooooo",
"oooooo             oooooo                                                  oooooo             oooooo",
"oooooo             oooooo                                                  oooooo             oooooo",
"                         oooooooooooo                         ooooooooooooo                         ",
"                         oooooooooooo                         ooooooooooooo                         ",
"                         oooooooooooo                         ooooooooooooo                         ",
"                         oooooooooooo                         ooooooooooooo                         ",
"                         oooooooooooo                         ooooooooooooo                         ",
"                         oooooooooooo                         ooooooooooooo                         ",
"                               ooooooooooooo            ooooooooooooo                               ",
"                               ooooooooooooo            ooooooooooooo                               ",
"                               ooooooooooooo            ooooooooooooo                               ",
"                               ooooooooooooo            ooooooooooooo                               ",
"                               ooooooooooooo            ooooooooooooo                               ",
"                               ooooooooooooo            ooooooooooooo                               ",
"                               ooooooooooooo            ooooooooooooo                               ",
"                   oooooo      oooooooooooooooooooooooooooooooooooooo      oooooo                   ",
"                   oooooo      oooooooooooooooooooooooooooooooooooooo      oooooo                   ",
"                   oooooo      oooooooooooooooooooooooooooooooooooooo      oooooo                   ",
"                   oooooo      oooooooooooooooooooooooooooooooooooooo      oooooo                   ",
"                   oooooo      oooooooooooooooooooooooooooooooooooooo      oooooo                   ",
"                   oooooo      oooooooooooooooooooooooooooooooooooooo      oooooo                   ",
"oooooo             oooooooooooooooooooooooooooooooooooooooooooooooooooooooooooooo             oooooo",
"oooooo             oooooooooooooooooooooooooooooooooooooooooooooooooooooooooooooo             oooooo",
"oooooo             oooooooooooooooooooooooooooooooooooooooooooooooooooooooooooooo             oooooo",
"oooooo             oooooooooooooooooooooooooooooooooooooooooooooooooooooooooooooo             oooooo",
"oooooo             oooooooooooooooooooooooooooooooooooooooooooooooooooooooooooooo             oooooo",
"oooooo             oooooooooooooooooooooooooooooooooooooooooooooooooooooooooooooo             oooooo"
};
