/* XPM */
static char *result[] = {
/* columns rows colors chars-per-pixel */
"100 100 4 1 ",
"  c black",
". c #FF3921",
"X c #FF9C52",
"o c None",
/* pixels */
"oooooo                   oooooooooooo                         ooooooooooooo                   oooooo",
"oooooo                   oooooooooooo                         ooooooooooooo                   oooooo",
"oooooo                   oooooooooooo                         ooooooooooooo                   oooooo",
"oooooo                   oooooooooooo                         ooooooooooooo                   oooooo",
"oooooo                   oooooooooooo                         ooooooooooooo                   oooooo",
"oooooo                   oooooooooooo                         ooooooooooooo                   oooooo",
"oooooo                                                                                        oooooo",
"oooooo                                                                                        oooooo",
"oooooo                                                                                        oooooo",
"oooooo                                                                                        oooooo",
"oooooo                                                                                        oooooo",
"oooooo                                                                                        oooooo",
"oooooo                                                                                        oooooo",
"oooooo                                                                                        oooooo",
"oooooo                                                                                        oooooo",
"oooooo                                                                                        oooooo",
"oooooo                                                                                        oooooo",
"oooooo                                                                                        oooooo",
"oooooo                                                                                        oooooo",
"oooooooooooo                                                                           ooooooooooooo",
"oooooooooooo                                                                           ooooooooooooo",
"oooooooooooo                                                                           ooooooooooooo",
"oooooooooooo                                                                           ooooooooooooo",
"oooooooooooo                                                                           ooooooooooooo",
"oooooooooooo                                                                           ooooooooooooo",
"oooooo                   XXXXXXXXXXXX                         XXXXXXXXXXXXX                   oooooo",
"oooooo                   XXXXXXXXXXXX                         XXXXXXXXXXXXX                   oooooo",
"oooooo                   XXXXXXXXXXXX                         XXXXXXXXXXXXX                   oooooo",
"oooooo                   XXXXXXXXXXXX                         XXXXXXXXXXXXX                   oooooo",
"oooooo                   XXXXXXXXXXXX                         XXXXXXXXXXXXX                   oooooo",
"oooooo                   XXXXXXXXXXXX                         XXXXXXXXXXXXX                   oooooo",
"oooooooooooo             XXXXXX.............            .............XXXXXX            ooooooooooooo",
"oooooooooooo             XXXXXX.............            .............XXXXXX            ooooooooooooo",
"oooooooooooo             XXXXXX.............            .............XXXXXX            ooooooooooooo",
"oooooooooooo             XXXXXX.............            .............XXXXXX            ooooooooooooo",
"oooooooooooo             XXXXXX.............            .............XXXXXX            ooooooooooooo",
"oooooooooooo             XXXXXX.............            .............XXXXXX            ooooooooooooo",
"oooooooooooo             XXXXXX.............            .............XXXXXX            ooooooooooooo",
"oooooooooooo                                                                           ooooooooooooo",
"oooooooooooo                                                                           ooooooooooooo",
"oooooooooooo                                                                           ooooooooooooo",
"oooooooooooo                                                                           ooooooooooooo",
"oooooooooooo                                                                           ooooooooooooo",
"oooooooooooo                                                                           ooooooooooooo",
"oooooooooooo                   ......       ............      .......                  ooooooooooooo",
"oooooooooooo                   ......       ............      .......                  ooooooooooooo",
"oooooooooooo                   ......       ............      .......                  ooooooooooooo",
"oooooooooooo                   ......       ............      .......                  ooooooooooooo",
"oooooooooooo                   ......       ............      .......                  ooooooooooooo",
"oooooooooooo                   ......       ............      .......                  ooooooooooooo",
"ooooooooooooooooooo            ......................................            ooooooooooooooooooo",
"ooooooooooooooooooo            ......................................            ooooooooooooooooooo",
"ooooooooooooooooooo            ......................................            ooooooooooooooooooo",
"ooooooooooooooooooo            ......................................            ooooooooooooooooooo",
"ooooooooooooooooooo            ......................................            ooooooooooooooooooo",
"ooooooooooooooooooo            ......................................            ooooooooooooooooooo",
"oooooo                         ......................................                         oooooo",
"oooooo                         ......................................                         oooooo",
"oooooo                         ......................................                         oooooo",
"oooooo                         ......................................                         oooooo",
"oooooo                         ......................................                         oooooo",
"oooooo                         ......................................                         oooooo",
"oooooo                         ......................................                         oooooo",
"                               ......................................                               ",
"                               ......................................                               ",
"                               ......................................                               ",
"                               ......................................                               ",
"                               ......................................                               ",
"                               ......................................                               ",
"                               ......................................                               ",
"                               ......................................                               ",
"                               ......................................                               ",
"                               ......................................                               ",
"                               ......................................                               ",
"                               ......................................                               ",
"                   oooooo      ......................................      oooooo                   ",
"                   oooooo      ......................................      oooooo                   ",
"                   oooooo      ......................................      oooooo                   ",
"                   oooooo      ......................................      oooooo                   ",
"                   oooooo      ......................................      oooooo                   ",
"                   oooooo      ......................................      oooooo                   ",
"oooooo             oooooo      ......................................      oooooo             oooooo",
"oooooo             oooooo      ......................................      oooooo             oooooo",
"oooooo             oooooo      ......................................      oooooo             oooooo",
"oooooo             oooooo      ......................................      oooooo             oooooo",
"oooooo             oooooo      ......................................      oooooo             oooooo",
"oooooo             oooooo      ......................................      oooooo             oooooo",
"oooooo             oooooo      ......................................      oooooo             oooooo",
"ooooooooooooooooooooooooooooooo      .........................       ooooooooooooooooooooooooooooooo",
"ooooooooooooooooooooooooooooooo      .........................       ooooooooooooooooooooooooooooooo",
"ooooooooooooooooooooooooooooooo      .........................       ooooooooooooooooooooooooooooooo",
"ooooooooooooooooooooooooooooooo      .........................       ooooooooooooooooooooooooooooooo",
"ooooooooooooooooooooooooooooooo      .........................       ooooooooooooooooooooooooooooooo",
"ooooooooooooooooooooooooooooooo      .........................       ooooooooooooooooooooooooooooooo",
"ooooooooooooooooooooooooooooooooooooo                         oooooooooooooooooooooooooooooooooooooo",
"ooooooooooooooooooooooooooooooooooooo                         oooooooooooooooooooooooooooooooooooooo",
"ooooooooooooooooooooooooooooooooooooo                         oooooooooooooooooooooooooooooooooooooo",
"ooooooooooooooooooooooooooooooooooooo                         oooooooooooooooooooooooooooooooooooooo",
"ooooooooooooooooooooooooooooooooooooo                         oooooooooooooooooooooooooooooooooooooo",
"ooooooooooooooooooooooooooooooooooooo                         oooooooooooooooooooooooooooooooooooooo"
};
