/* XPM */
static char *result[] = {
/* columns rows colors chars-per-pixel */
"100 100 5 1 ",
"  c black",
". c #323C26",
"X c #4A7311",
"o c #B4E069",
"O c None",
/* pixels */
"OOOOOOOOOOOOOOOOOOOOOOOOOOOOOOOOOOOOOO                   OOOOOOOOOOOOOOOOOOOOOOOOOOOOOOOOOOOOOOOOOOO",
"OOOOOOOOOOOOOOOOOOOOOOOOOOOOOOOOOOOOOO                   OOOOOOOOOOOOOOOOOOOOOOOOOOOOOOOOOOOOOOOOOOO",
"OOOOOOOOOOOOOOOOOOOOOOOOOOOOOOOOOOOOOO                   OOOOOOOOOOOOOOOOOOOOOOOOOOOOOOOOOOOOOOOOOOO",
"OOOOOOOOOOOOOOOOOOOOOOOOOOOOOOOOOOOOOO                   OOOOOOOOOOOOOOOOOOOOOOOOOOOOOOOOOOOOOOOOOOO",
"OOOOOOOOOOOOOOOOOOOOOOOOOOOOOOOOOOOOOO                   OOOOOOOOOOOOOOOOOOOOOOOOOOOOOOOOOOOOOOOOOOO",
"OOOOOOOOOOOOOOOOOOOOOOOOOOOOOOOOOOOOOO                   OOOOOOOOOOOOOOOOOOOOOOOOOOOOOOOOOOOOOOOOOOO",
"OOOOOOOOOOOOOOOOOOO                   ooooooXXXXXXooooooo                   OOOOOOOOOOOOOOOOOOOOOOOO",
"OOOOOOOOOOOOOOOOOOO                   ooooooXXXXXXooooooo                   OOOOOOOOOOOOOOOOOOOOOOOO",
"OOOOOOOOOOOOOOOOOOO                   ooooooXXXXXXooooooo                   OOOOOOOOOOOOOOOOOOOOOOOO",
"OOOOOOOOOOOOOOOOOOO                   ooooooXXXXXXooooooo                   OOOOOOOOOOOOOOOOOOOOOOOO",
"OOOOOOOOOOOOOOOOOOO                   ooooooXXXXXXooooooo                   OOOOOOOOOOOOOOOOOOOOOOOO",
"OOOOOOOOOOOOOOOOOOO                   ooooooXXXXXXooooooo                   OOOOOOOOOOOOOOOOOOOOOOOO",
"OOOOOOOOOOOOOOOOOOO                   ooooooXXXXXXooooooo                   OOOOOOOOOOOOOOOOOOOOOOOO",
"OOOOOOOOOOOOO      XXXXXX       XXXXXXXXXXXXooooooXXXXXXXoooooo      .......      OOOOOOOOOOOOOOOOOO",
"OOOOOOOOOOOOO      XXXXXX       XXXXXXXXXXXXooooooXXXXXXXoooooo      .......      OOOOOOOOOOOOOOOOOO",
"OOOOOOOOOOOOO      XXXXXX       XXXXXXXXXXXXooooooXXXXXXXoooooo      .......      OOOOOOOOOOOOOOOOOO",
"OOOOOOOOOOOOO      XXXXXX       XXXXXXXXXXXXooooooXXXXXXXoooooo      .......      OOOOOOOOOOOOOOOOOO",
"OOOOOOOOOOOOO      XXXXXX       XXXXXXXXXXXXooooooXXXXXXXoooooo      .......      OOOOOOOOOOOOOOOOOO",
"OOOOOOOOOOOOO      XXXXXX       XXXXXXXXXXXXooooooXXXXXXXoooooo      .......      OOOOOOOOOOOOOOOOOO",
"OOOOOOOOOOOOO      XXXXXXXXXXXXXXXXXXXooooooXXXXXXoooooooXXXXXX......XXXXXXX      OOOOOOOOOOOOOOOOOO",
"OOOOOOOOOOOOO      XXXXXXXXXXXXXXXXXXXooooooXXXXXXoooooooXXXXXX......XXXXXXX      OOOOOOOOOOOOOOOOOO",
"OOOOOOOOOOOOO      XXXXXXXXXXXXXXXXXXXooooooXXXXXXoooooooXXXXXX......XXXXXXX      OOOOOOOOOOOOOOOOOO",
"OOOOOOOOOOOOO      XXXXXXXXXXXXXXXXXXXooooooXXXXXXoooooooXXXXXX......XXXXXXX      OOOOOOOOOOOOOOOOOO",
"OOOOOOOOOOOOO      XXXXXXXXXXXXXXXXXXXooooooXXXXXXoooooooXXXXXX......XXXXXXX      OOOOOOOOOOOOOOOOOO",
"OOOOOOOOOOOOO      XXXXXXXXXXXXXXXXXXXooooooXXXXXXoooooooXXXXXX......XXXXXXX      OOOOOOOOOOOOOOOOOO",
"OOOOOO       XXXXXX      .......      XXXXXXooooooXXXXXXX......XXXXXX       ......      OOOOOOOOOOOO",
"OOOOOO       XXXXXX      .......      XXXXXXooooooXXXXXXX......XXXXXX       ......      OOOOOOOOOOOO",
"OOOOOO       XXXXXX      .......      XXXXXXooooooXXXXXXX......XXXXXX       ......      OOOOOOOOOOOO",
"OOOOOO       XXXXXX      .......      XXXXXXooooooXXXXXXX......XXXXXX       ......      OOOOOOOOOOOO",
"OOOOOO       XXXXXX      .......      XXXXXXooooooXXXXXXX......XXXXXX       ......      OOOOOOOOOOOO",
"OOOOOO       XXXXXX      .......      XXXXXXooooooXXXXXXX......XXXXXX       ......      OOOOOOOOOOOO",
"OOOOOO       XXXXXX      .......      XXXXXXooooooXXXXXXX......XXXXXX       ......      OOOOOOOOOOOO",
"OOOOOO       ......XXXXXX       XXXXXX......      .......      ...................      OOOOOOOOOOOO",
"OOOOOO       ......XXXXXX       XXXXXX......      .......      ...................      OOOOOOOOOOOO",
"OOOOOO       ......XXXXXX       XXXXXX......      .......      ...................      OOOOOOOOOOOO",
"OOOOOO       ......XXXXXX       XXXXXX......      .......      ...................      OOOOOOOOOOOO",
"OOOOOO       ......XXXXXX       XXXXXX......      .......      ...................      OOOOOOOOOOOO",
"OOOOOO       ......XXXXXX       XXXXXX......      .......      ...................      OOOOOOOOOOOO",
"OOOOOO             ......XXXXXXX......XXXXXX......XXXXXXX......      .......            OOOOOOOOOOOO",
"OOOOOO             ......XXXXXXX......XXXXXX......XXXXXXX......      .......            OOOOOOOOOOOO",
"OOOOOO             ......XXXXXXX......XXXXXX......XXXXXXX......      .......            OOOOOOOOOOOO",
"OOOOOO             ......XXXXXXX......XXXXXX......XXXXXXX......      .......            OOOOOOOOOOOO",
"OOOOOO             ......XXXXXXX......XXXXXX......XXXXXXX......      .......            OOOOOOOOOOOO",
"OOOOOO             ......XXXXXXX......XXXXXX......XXXXXXX......      .......            OOOOOOOOOOOO",
"      .............XXXXXX.......XXXXXX......      .......      ......       ......             OOOOO",
"      .............XXXXXX.......XXXXXX......      .......      ......       ......             OOOOO",
"      .............XXXXXX.......XXXXXX......      .......      ......       ......             OOOOO",
"      .............XXXXXX.......XXXXXX......      .......      ......       ......             OOOOO",
"      .............XXXXXX.......XXXXXX......      .......      ......       ......             OOOOO",
"      .............XXXXXX.......XXXXXX......      .......      ......       ......             OOOOO",
"             .........................      ......       ......      .......      ......       OOOOO",
"             .........................      ......       ......      .......      ......       OOOOO",
"             .........................      ......       ......      .......      ......       OOOOO",
"             .........................      ......       ......      .......      ......       OOOOO",
"             .........................      ......       ......      .......      ......       OOOOO",
"             .........................      ......       ......      .......      ......       OOOOO",
"             .........................      ......       ......      .......      ......       OOOOO",
"      .......            ................................      ......       ............       OOOOO",
"      .......            ................................      ......       ............       OOOOO",
"      .......            ................................      ......       ............       OOOOO",
"      .......            ................................      ......       ............       OOOOO",
"      .......            ................................      ......       ............       OOOOO",
"      .......            ................................      ......       ............       OOOOO",
"OOOOOO             ......       ......      ......       ......      .......            OOOOOOOOOOOO",
"OOOOOO             ......       ......      ......       ......      .......            OOOOOOOOOOOO",
"OOOOOO             ......       ......      ......       ......      .......            OOOOOOOOOOOO",
"OOOOOO             ......       ......      ......       ......      .......            OOOOOOOOOOOO",
"OOOOOO             ......       ......      ......       ......      .......            OOOOOOOOOOOO",
"OOOOOO             ......       ......      ......       ......      .......            OOOOOOOOOOOO",
"OOOOOO       ......      .......                  .......                   ......      OOOOOOOOOOOO",
"OOOOOO       ......      .......                  .......                   ......      OOOOOOOOOOOO",
"OOOOOO       ......      .......                  .......                   ......      OOOOOOOOOOOO",
"OOOOOO       ......      .......                  .......                   ......      OOOOOOOOOOOO",
"OOOOOO       ......      .......                  .......                   ......      OOOOOOOOOOOO",
"OOOOOO       ......      .......                  .......                   ......      OOOOOOOOOOOO",
"OOOOOO       ......      .......                  .......                   ......      OOOOOOOOOOOO",
"OOOOOOOOOOOOO                   ......                                            ......OOOOOOOOOOOO",
"OOOOOOOOOOOOO                   ......                                            ......OOOOOOOOOOOO",
"OOOOOOOOOOOOO                   ......                                            ......OOOOOOOOOOOO",
"OOOOOOOOOOOOO                   ......                                            ......OOOOOOOOOOOO",
"OOOOOOOOOOOOO                   ......                                            ......OOOOOOOOOOOO",
"OOOOOOOOOOOOO                   ......                                            ......OOOOOOOOOOOO",
"OOOOOOOOOOOOO......                         .............                   ......OOOOOOOOOOOOOOOOOO",
"OOOOOOOOOOOOO......                         .............                   ......OOOOOOOOOOOOOOOOOO",
"OOOOOOOOOOOOO......                         .............                   ......OOOOOOOOOOOOOOOOOO",
"OOOOOOOOOOOOO......                         .............                   ......OOOOOOOOOOOOOOOOOO",
"OOOOOOOOOOOOO......                         .............                   ......OOOOOOOOOOOOOOOOOO",
"OOOOOOOOOOOOO......                         .............                   ......OOOOOOOOOOOOOOOOOO",
"OOOOOOOOOOOOOOOOOOO.............      ......XXXXXXXXXXXXX......      .............OOOOOOOOOOOOOOOOOO",
"OOOOOOOOOOOOOOOOOOO.............      ......XXXXXXXXXXXXX......      .............OOOOOOOOOOOOOOOOOO",
"OOOOOOOOOOOOOOOOOOO.............      ......XXXXXXXXXXXXX......      .............OOOOOOOOOOOOOOOOOO",
"OOOOOOOOOOOOOOOOOOO.............      ......XXXXXXXXXXXXX......      .............OOOOOOOOOOOOOOOOOO",
"OOOOOOOOOOOOOOOOOOO.............      ......XXXXXXXXXXXXX......      .............OOOOOOOOOOOOOOOOOO",
"OOOOOOOOOOOOOOOOOOO.............      ......XXXXXXXXXXXXX......      .............OOOOOOOOOOOOOOOOOO",
"OOOOOOOOOOOOOOOOOOO.............      ......XXXXXXXXXXXXX......      .............OOOOOOOOOOOOOOOOOO",
"OOOOOOOOOOOOOOOOOOOOOOOOO.............                         .............OOOOOOOOOOOOOOOOOOOOOOOO",
"OOOOOOOOOOOOOOOOOOOOOOOOO.............                         .............OOOOOOOOOOOOOOOOOOOOOOOO",
"OOOOOOOOOOOOOOOOOOOOOOOOO.............                         .............OOOOOOOOOOOOOOOOOOOOOOOO",
"OOOOOOOOOOOOOOOOOOOOOOOOO.............                         .............OOOOOOOOOOOOOOOOOOOOOOOO",
"OOOOOOOOOOOOOOOOOOOOOOOOO.............                         .............OOOOOOOOOOOOOOOOOOOOOOOO"
};
